<svg width="24" height="24" viewBox="0 0 24 24" fill="none" xmlns="http://www.w3.org/2000/svg">
<path d="M23.25 20.2502H22.5V11.6252C22.5 11.1279 22.3025 10.651 21.9508 10.2994C21.5992 9.94773 21.1223 9.75018 20.625 9.75018H16.1588V9.70143C16.1588 9.57393 16.1588 9.44643 16.1325 9.32643L16.56 9.25518C16.6132 9.24605 16.6638 9.22553 16.7083 9.19505C16.7529 9.16456 16.7903 9.12481 16.8181 9.07853C16.8458 9.03225 16.8633 8.98051 16.8692 8.92687C16.8752 8.87322 16.8695 8.81892 16.8525 8.76768L16.26 6.97518L19.26 5.98143C19.3323 5.95722 19.3954 5.91157 19.4411 5.85055C19.4868 5.78953 19.5128 5.71605 19.5156 5.63989C19.5185 5.56372 19.498 5.4885 19.4571 5.42424C19.4161 5.35998 19.3565 5.30973 19.2863 5.28018L12.1613 2.28018C12.115 2.26059 12.0652 2.25049 12.015 2.25049C11.9648 2.25049 11.915 2.26059 11.8687 2.28018L4.74375 5.28018C4.6735 5.30973 4.61391 5.35998 4.57294 5.42424C4.53196 5.4885 4.51154 5.56372 4.51439 5.63989C4.51724 5.71605 4.54323 5.78953 4.58889 5.85055C4.63456 5.91157 4.69773 5.95722 4.77 5.98143L5.265 6.14643V7.06143C5.04496 7.13923 4.85456 7.28353 4.72019 7.47435C4.58581 7.66516 4.5141 7.89305 4.515 8.12643V9.00018C4.515 9.09964 4.55451 9.19502 4.62484 9.26535C4.69516 9.33567 4.79054 9.37518 4.89 9.37518H6.39C6.48946 9.37518 6.58484 9.33567 6.65516 9.26535C6.72549 9.19502 6.765 9.09964 6.765 9.00018V8.12643C6.7659 7.89305 6.69419 7.66516 6.55981 7.47435C6.42544 7.28353 6.23504 7.13923 6.015 7.06143V6.39393L7.755 6.97518L7.1625 8.75643C7.14553 8.80767 7.13982 8.86197 7.14576 8.91562C7.1517 8.96926 7.16915 9.021 7.19692 9.06728C7.22469 9.11357 7.26213 9.15331 7.30667 9.1838C7.35121 9.21428 7.4018 9.2348 7.455 9.24393L7.80375 9.30018C7.80375 9.43143 7.78125 9.56643 7.78125 9.69768V9.74643H3.375C2.87772 9.74643 2.40081 9.94398 2.04917 10.2956C1.69754 10.6472 1.5 11.1242 1.5 11.6214V20.2502H0.75C0.650544 20.2502 0.555161 20.2897 0.484835 20.36C0.414509 20.4303 0.375 20.5257 0.375 20.6252V21.3752C0.375 21.773 0.533035 22.1545 0.81434 22.4358C1.09564 22.7171 1.47718 22.8752 1.875 22.8752H22.125C22.5228 22.8752 22.9044 22.7171 23.1857 22.4358C23.467 22.1545 23.625 21.773 23.625 21.3752V20.6252C23.625 20.5257 23.5855 20.4303 23.5152 20.36C23.4448 20.2897 23.3495 20.2502 23.25 20.2502ZM6 8.62518H5.25V8.13018C5.24539 8.07978 5.25192 8.02899 5.26914 7.9814C5.28635 7.9338 5.31383 7.89058 5.34961 7.8548C5.3854 7.81901 5.42862 7.79153 5.47621 7.77432C5.5238 7.75711 5.5746 7.75057 5.625 7.75518C5.6754 7.75057 5.7262 7.75711 5.77379 7.77432C5.82138 7.79153 5.8646 7.81901 5.90039 7.8548C5.93617 7.89058 5.96365 7.9338 5.98086 7.9814C5.99808 8.02899 6.00461 8.07978 6 8.13018V8.62518ZM16.125 10.5002H20.625C20.9234 10.5002 21.2095 10.6187 21.4205 10.8297C21.6315 11.0407 21.75 11.3268 21.75 11.6252V20.2502H19.3125V19.6014C19.3125 16.8039 16.7588 15.9939 15.2362 15.5064C14.9149 15.4127 14.5993 15.3 14.2913 15.1689C14.112 15.0927 13.9557 14.9712 13.8375 14.8164C15.0375 13.8752 15.8925 12.1802 16.125 10.5002ZM11.3175 20.2502L10.0238 18.9714L9.9975 18.9489L7.725 16.6989C8.13375 16.5302 8.55375 16.3914 8.93625 16.2677L9.19125 16.1852C9.61875 16.8752 10.4475 17.6252 12 17.6252C13.5525 17.6252 14.3888 16.8752 14.8275 16.1627L15.0075 16.2189C16.5075 16.6952 18.5625 17.3439 18.5625 19.5939V20.2502H11.3175ZM8.5425 18.5627C8.27318 18.6301 8.02787 18.771 7.83388 18.9697C7.63989 19.1683 7.50484 19.4168 7.44375 19.6877L5.47125 17.6252C5.39608 17.5568 5.33559 17.4739 5.29344 17.3815C5.25129 17.289 5.22835 17.189 5.22603 17.0874C5.22372 16.9859 5.24206 16.8849 5.27995 16.7906C5.31783 16.6963 5.37448 16.6108 5.44645 16.539C5.51842 16.4673 5.6042 16.411 5.6986 16.3734C5.79301 16.3359 5.89405 16.3179 5.99561 16.3206C6.09718 16.3232 6.19713 16.3465 6.28943 16.389C6.38172 16.4315 6.46441 16.4923 6.5325 16.5677L8.5425 18.5627ZM5.5425 18.7839L6.96 20.2502H5.4375V19.6014C5.43676 19.3255 5.47206 19.0507 5.5425 18.7839ZM8.19 20.2502C8.15021 20.1199 8.14664 19.9813 8.17967 19.8492C8.2127 19.717 8.28109 19.5964 8.3775 19.5002C8.52013 19.3594 8.71149 19.2789 8.91187 19.2754C9.11226 19.2719 9.3063 19.3457 9.45375 19.4814L10.2525 20.2502H8.19ZM10.77 15.2364C11.1496 15.4215 11.5668 15.5161 11.9891 15.5128C12.4113 15.5096 12.8271 15.4086 13.2037 15.2177C13.3987 15.4963 13.6657 15.7167 13.9762 15.8552L14.0963 15.9077C13.8566 16.2324 13.5388 16.4914 13.1723 16.6605C12.8059 16.8297 12.4026 16.9035 12 16.8752C11.597 16.9034 11.1934 16.8292 10.8269 16.6594C10.4603 16.4895 10.1427 16.2296 9.90375 15.9039L10.0463 15.8402C10.3244 15.6878 10.5702 15.4827 10.77 15.2364ZM7.995 8.57643L8.5725 6.84018C8.8275 6.63393 9.90375 5.87643 12 5.87643C14.0963 5.87643 15.1725 6.62643 15.4275 6.84018L16.005 8.57643L12 9.24393L7.995 8.57643ZM12 3.03018L18.06 5.58393L16.005 6.27018C15.9852 6.27966 15.9664 6.29096 15.9487 6.30393C15.6675 6.05643 14.4488 5.12643 12 5.12643C9.55125 5.12643 8.3325 6.05643 8.05125 6.30393C8.03344 6.29225 8.01462 6.28221 7.995 6.27393L5.94 5.58768L12 3.03018ZM11.94 9.99393H12.0637L15.3975 9.43893V9.69768C15.3975 11.9889 13.86 14.7602 11.9475 14.7602C10.035 14.7602 8.5125 12.0002 8.5125 9.70143V9.42768L11.94 9.99393ZM2.25 11.6252C2.25 11.3268 2.36853 11.0407 2.5795 10.8297C2.79048 10.6187 3.07663 10.5002 3.375 10.5002H7.81875C8.0325 12.1989 8.9025 13.9277 10.1213 14.8427C9.99737 14.9759 9.85306 15.0886 9.69375 15.1764C9.36878 15.3237 9.03428 15.449 8.6925 15.5514C8.15903 15.7113 7.6356 15.9029 7.125 16.1252L7.0425 16.0427C6.83204 15.8392 6.56664 15.7017 6.27901 15.6473C5.99138 15.5928 5.6941 15.6237 5.4238 15.7361C5.15351 15.8485 4.92202 16.0376 4.75786 16.28C4.59371 16.5223 4.50407 16.8075 4.5 17.1002C4.49968 17.4963 4.65606 17.8764 4.935 18.1577L4.95375 18.1802C4.77289 18.632 4.68244 19.1148 4.6875 19.6014V20.2502H2.25V11.6252ZM22.875 21.3752C22.875 21.5741 22.796 21.7649 22.6553 21.9055C22.5147 22.0462 22.3239 22.1252 22.125 22.1252H1.875C1.67609 22.1252 1.48532 22.0462 1.34467 21.9055C1.20402 21.7649 1.125 21.5741 1.125 21.3752V21.0002H22.875V21.3752Z" fill="#FD474D"/>
<path d="M17.625 12.375H18.75C18.8495 12.375 18.9448 12.3355 19.0152 12.2652C19.0855 12.1948 19.125 12.0995 19.125 12C19.125 11.9005 19.0855 11.8052 19.0152 11.7348C18.9448 11.6645 18.8495 11.625 18.75 11.625H17.625C17.5255 11.625 17.4302 11.6645 17.3598 11.7348C17.2895 11.8052 17.25 11.9005 17.25 12C17.25 12.0995 17.2895 12.1948 17.3598 12.2652C17.4302 12.3355 17.5255 12.375 17.625 12.375ZM17.625 13.875H19.875C19.9745 13.875 20.0698 13.8355 20.1402 13.7652C20.2105 13.6948 20.25 13.5995 20.25 13.5C20.25 13.4005 20.2105 13.3052 20.1402 13.2348C20.0698 13.1645 19.9745 13.125 19.875 13.125H17.625C17.5255 13.125 17.4302 13.1645 17.3598 13.2348C17.2895 13.3052 17.25 13.4005 17.25 13.5C17.25 13.5995 17.2895 13.6948 17.3598 13.7652C17.4302 13.8355 17.5255 13.875 17.625 13.875Z" fill="#FD474D"/>
</svg>
