<svg width="24" height="24" viewBox="0 0 24 24" fill="none" xmlns="http://www.w3.org/2000/svg">
<g clip-path="url(#clip0_113_1735)">
<path d="M10.6526 17.6126C10.1452 17.6126 9.73275 17.2008 9.73275 16.6935C9.73275 16.1861 10.1452 15.774 10.6526 15.774C11.16 15.774 11.5725 16.1861 11.5725 16.6935C11.5725 17.2008 11.16 17.6126 10.6526 17.6126ZM10.6526 16.5483C10.6141 16.5483 10.5771 16.5636 10.5499 16.5908C10.5226 16.618 10.5072 16.6549 10.5071 16.6935C10.5071 16.8536 10.7981 16.8536 10.7981 16.6935C10.798 16.6549 10.7827 16.618 10.7554 16.5908C10.7281 16.5636 10.6911 16.5483 10.6526 16.5483ZM14.1101 17.6126C13.6031 17.6126 13.191 17.2008 13.191 16.6935C13.191 16.1861 13.6031 15.774 14.1105 15.774C14.6179 15.774 15.0296 16.1861 15.0296 16.6935C15.0296 17.2008 14.6171 17.6126 14.1101 17.6126ZM14.1101 16.5483C14.0716 16.5483 14.0347 16.5636 14.0075 16.5908C13.9803 16.6181 13.965 16.655 13.965 16.6935C13.965 16.8536 14.2556 16.8536 14.2556 16.6935C14.2556 16.655 14.2403 16.6181 14.2131 16.5908C14.1859 16.5636 14.1486 16.5483 14.1101 16.5483ZM17.0062 8.78396C16.9224 8.67402 16.8143 8.585 16.6903 8.5239C16.5662 8.46281 16.4297 8.43129 16.2915 8.43183H7.4955L7.26675 7.57496C7.21005 7.36314 7.08507 7.17594 6.91116 7.04237C6.73726 6.90881 6.52415 6.83634 6.30487 6.83621H5.72775C5.62511 6.83621 5.52668 6.87698 5.4541 6.94956C5.38152 7.02213 5.34075 7.12057 5.34075 7.22321C5.34075 7.32585 5.38152 7.42428 5.4541 7.49686C5.52668 7.56943 5.62511 7.61021 5.72775 7.61021H6.30487C6.405 7.61021 6.49237 7.67771 6.51862 7.77483L8.36775 14.6883C8.43396 14.935 8.57962 15.1529 8.78217 15.3084C8.98472 15.4639 9.23289 15.5483 9.48825 15.5486H15.6945C15.7972 15.5486 15.8957 15.5078 15.9683 15.4352C16.0409 15.3626 16.0817 15.2641 16.0817 15.1614C16.0817 15.0587 16.0409 14.9602 15.9683 14.8876C15.8957 14.815 15.7972 14.7742 15.6945 14.7742H9.48825C9.31388 14.7742 9.1605 14.6565 9.1155 14.4885L8.9745 13.9608H14.8013C15.1428 13.9604 15.4748 13.8474 15.7457 13.6394C16.0167 13.4314 16.2115 13.1399 16.3001 12.81L17.1626 9.56508C17.1985 9.43164 17.2031 9.2917 17.176 9.15619C17.1489 9.02069 17.0908 8.89329 17.0062 8.78396ZM16.3924 9.25571C16.4066 9.27446 16.4284 9.31308 16.4141 9.36633L16.0305 10.8093H14.6708L14.8864 9.20621H16.2915C16.3463 9.20621 16.3778 9.23696 16.3924 9.25571ZM13.89 10.8093H12.4672V9.20621H14.106L13.89 10.8093ZM11.6932 9.20621V10.8093H10.272L10.0545 9.20621H11.6932ZM9.27337 9.20621L9.4905 10.8093H8.13338L7.704 9.20621H9.27337ZM9.5955 11.5837L9.81262 13.1865H8.77012L8.34075 11.5837H9.5955ZM10.377 11.5837H11.6932V13.1865H10.5938L10.377 11.5837ZM12.4672 13.1865V11.5837H13.7858L13.5697 13.1865H12.4672ZM14.8013 13.1865H14.3512L14.5669 11.5837H15.825L15.552 12.6105C15.5077 12.7756 15.4102 12.9215 15.2747 13.0256C15.1391 13.1297 14.973 13.1863 14.802 13.1865H14.8013ZM6.5565 2.61821C6.5565 2.52203 6.51829 2.4298 6.45029 2.36179C6.38228 2.29379 6.29005 2.25558 6.19388 2.25558H2.21137C2.1152 2.25558 2.02297 2.29379 1.95496 2.36179C1.88696 2.4298 1.84875 2.52203 1.84875 2.61821C1.84875 2.71438 1.88696 2.80662 1.95496 2.87462C2.02297 2.94263 2.1152 2.98083 2.21137 2.98083H6.19388C6.29005 2.98083 6.38228 2.94263 6.45029 2.87462C6.51829 2.80662 6.5565 2.71438 6.5565 2.61821ZM17.493 2.61821C17.493 2.72085 17.4522 2.81928 17.3797 2.89186C17.3071 2.96443 17.2086 3.00521 17.106 3.00521C17.0034 3.00521 16.9049 2.96443 16.8323 2.89186C16.7598 2.81928 16.719 2.72085 16.719 2.61821C16.719 2.51557 16.7598 2.41713 16.8323 2.34456C16.9049 2.27198 17.0034 2.23121 17.106 2.23121C17.2086 2.23121 17.3071 2.27198 17.3797 2.34456C17.4522 2.41713 17.493 2.51557 17.493 2.61821ZM18.7031 2.23121C18.6004 2.23121 18.502 2.272 18.4293 2.34461C18.3567 2.41722 18.3159 2.51571 18.3159 2.61839C18.3159 2.72108 18.3567 2.81957 18.4293 2.89218C18.502 2.96479 18.6004 3.00558 18.7031 3.00558C18.8058 3.00558 18.9043 2.96479 18.9769 2.89218C19.0495 2.81957 19.0903 2.72108 19.0903 2.61839C19.0903 2.51571 19.0495 2.41722 18.9769 2.34461C18.9043 2.272 18.8058 2.23121 18.7031 2.23121ZM20.3002 2.23121C20.1976 2.23121 20.0991 2.272 20.0265 2.34461C19.9539 2.41722 19.9131 2.51571 19.9131 2.61839C19.9131 2.72108 19.9539 2.81957 20.0265 2.89218C20.0991 2.96479 20.1976 3.00558 20.3002 3.00558C20.4029 3.00558 20.5014 2.96479 20.574 2.89218C20.6466 2.81957 20.6874 2.72108 20.6874 2.61839C20.6874 2.51571 20.6466 2.41722 20.574 2.34461C20.5014 2.272 20.4029 2.23121 20.3002 2.23121ZM23.7165 19.1475L22.5292 18.1466C22.53 18.123 22.5338 18.0993 22.5338 18.0753V2.95158C22.5338 1.78908 21.585 0.840332 20.4225 0.840332H2.11125C0.94875 0.840332 0 1.78908 0 2.95158V18.0753C0 19.2378 0.94875 20.1866 2.11125 20.1866H18.363L18.3634 21.6367C18.3634 21.9491 18.5389 22.2251 18.8216 22.3575C19.1021 22.488 19.428 22.4475 19.6676 22.2487L20.3929 21.6457L20.7964 22.5131C20.9212 22.7838 21.1451 22.9893 21.4249 23.0913C21.5625 23.1417 21.7088 23.1644 21.8552 23.1581C22.0017 23.1519 22.1455 23.1168 22.2784 23.055C22.4114 22.9935 22.5309 22.9062 22.6301 22.7983C22.7292 22.6904 22.8059 22.5639 22.8559 22.4261C22.9066 22.2886 22.9294 22.1424 22.9231 21.996C22.9168 21.8496 22.8815 21.7059 22.8191 21.5733L22.416 20.7052L23.3438 20.5395C23.4929 20.5135 23.6315 20.4451 23.7429 20.3426C23.8543 20.2401 23.9339 20.1077 23.9722 19.9612C24.0123 19.8153 24.0094 19.661 23.9641 19.5167C23.9187 19.3724 23.8328 19.2442 23.7165 19.1475ZM0.7725 2.95158C0.7725 2.21658 1.3725 1.61658 2.11125 1.61658H20.4225C21.1612 1.61658 21.7612 2.21658 21.7612 2.95158V3.61908H0.7725V2.95158ZM18.3619 16.3432L18.3626 19.4107H2.11125C1.75684 19.4107 1.41689 19.2702 1.16593 19.0199C0.914977 18.7697 0.773493 18.4301 0.7725 18.0757V4.39571H21.7612V17.4993L19.6691 15.7353C19.5537 15.637 19.4123 15.5741 19.262 15.5541C19.1116 15.5342 18.9587 15.558 18.8216 15.6228C18.6837 15.6858 18.5669 15.7873 18.4854 15.9151C18.4038 16.0429 18.3609 16.1916 18.3619 16.3432ZM23.2069 19.7775L21.7849 20.0313C21.7265 20.0417 21.6713 20.0654 21.6236 20.1006C21.5758 20.1357 21.5368 20.1813 21.5094 20.234C21.4821 20.2866 21.4672 20.3448 21.466 20.404C21.4647 20.4633 21.4771 20.5221 21.5021 20.5758L22.1171 21.9007C22.1362 21.9411 22.147 21.9849 22.149 22.0295C22.151 22.0741 22.1441 22.1187 22.1287 22.1606C22.0975 22.2454 22.0342 22.3147 21.9525 22.3533C21.9118 22.3722 21.8677 22.3829 21.8229 22.3848C21.778 22.3867 21.7333 22.3797 21.6911 22.3642C21.6487 22.3491 21.6098 22.3257 21.5766 22.2953C21.5435 22.2649 21.5167 22.2281 21.498 22.1872L20.883 20.8638C20.8518 20.7971 20.8022 20.7406 20.74 20.701C20.6779 20.6614 20.6057 20.6404 20.532 20.6403C20.4427 20.6403 20.355 20.6711 20.2845 20.7296L19.1378 21.6367L19.17 16.3267L23.2174 19.7392L23.2069 19.7775Z" fill="#FD474D"/>
</g>
<defs>
<clipPath id="clip0_113_1735">
<rect width="24" height="24" fill="white"/>
</clipPath>
</defs>
</svg>
