<svg width="24" height="24" viewBox="0 0 24 24" fill="none" xmlns="http://www.w3.org/2000/svg">
<g clip-path="url(#clip0_113_1721)">
<path d="M23.262 8.2775C21.3178 2.06703 14.6851 -1.40364 8.47339 0.539801C2.2625 2.48404 -1.20859 9.1183 0.735267 15.3288L1.49849 15.0897C-0.313842 9.30022 2.92217 3.1153 8.71245 1.3026C11.5175 0.425051 14.4964 0.692097 17.0995 2.05424C19.7038 3.41718 21.6212 5.71199 22.4992 8.51661C23.3767 11.3212 23.1101 14.2997 21.7475 16.9036C20.3854 19.5079 18.0906 21.4254 15.2856 22.3033C10.5907 23.7726 5.44452 21.9171 2.76786 17.7904L2.09699 18.2254C4.30949 21.6373 8.09638 23.6019 12.022 23.6015C13.1894 23.6015 14.37 23.428 15.5243 23.0658C18.5328 22.1242 20.9944 20.0673 22.456 17.2743C23.9177 14.4812 24.2035 11.286 23.262 8.2775Z" fill="#FD474D"/>
<path d="M9.68219 5.59703L9.91169 4.831L5.91367 3.63161C5.84455 3.61085 5.77109 3.60923 5.70111 3.6269C5.63113 3.64457 5.56725 3.68088 5.51627 3.73197L4.71667 4.53156C4.6708 4.57747 4.63679 4.63386 4.61756 4.69585C4.59834 4.75784 4.59448 4.82357 4.60633 4.88739C4.61818 4.95116 4.64537 5.0111 4.68556 5.06202C4.72574 5.11294 4.77772 5.15331 4.837 5.17965L8.43522 6.77884L8.75988 6.04801L5.69383 4.68507L5.91292 4.46598L9.68219 5.59703Z" fill="#FD474D"/>
<path d="M13.3958 3.21571C13.3958 3.16321 13.3855 3.11122 13.3654 3.0627C13.3453 3.01419 13.3158 2.97012 13.2787 2.93299C13.2416 2.89586 13.1975 2.86641 13.149 2.84633C13.1005 2.82624 13.0485 2.81591 12.996 2.81592H12.9952C12.1156 2.81592 11.2884 3.15853 10.6663 3.78065L7.27606 7.17056L5.89634 6.82551C5.82934 6.80873 5.75914 6.80959 5.69257 6.82802C5.626 6.84645 5.56535 6.88181 5.51651 6.93065L4.71692 7.73025C4.67391 7.77315 4.64126 7.82531 4.62144 7.88273C4.60163 7.94016 4.59518 8.00136 4.60259 8.06166C4.60999 8.12195 4.63105 8.17977 4.66417 8.2307C4.69729 8.28163 4.74159 8.32433 4.7937 8.35556L6.70714 9.50376L7.85534 11.4172C7.88657 11.4693 7.92927 11.5136 7.98019 11.5467C8.03111 11.5798 8.08891 11.6009 8.1492 11.6083C8.20953 11.6156 8.27072 11.6091 8.32819 11.5894C8.38566 11.5697 8.43793 11.5372 8.48108 11.4944L9.28067 10.6948C9.32943 10.6459 9.36473 10.5853 9.38315 10.5187C9.40157 10.4522 9.40249 10.382 9.38581 10.315L9.04118 8.93686L12.4855 5.52656C13.0731 4.91123 13.3966 4.10287 13.3958 3.21571ZM8.31631 8.52825C8.26701 8.57704 8.23125 8.63783 8.21253 8.70462C8.19382 8.77142 8.1928 8.84194 8.20958 8.90925L8.55462 10.289L8.27717 10.5664L7.34122 9.00642C7.30751 8.95012 7.26041 8.90302 7.20411 8.86931L5.64411 7.93336L5.92156 7.6559L7.30128 8.00095C7.36828 8.01773 7.43848 8.01687 7.50505 7.99844C7.57162 7.98001 7.63227 7.94465 7.68111 7.89581L11.2313 4.34559C11.5992 3.97739 12.0621 3.7387 12.5643 3.65193C12.4851 4.14609 12.26 4.60425 11.9146 4.96607L8.31631 8.52825Z" fill="#FD474D"/>
<path d="M12.5785 10.35L11.3791 6.30005L10.6122 6.52716L11.7393 10.3325L11.4966 10.5468L10.1637 7.45472L9.42922 7.77136L10.9804 11.3696C11.0114 11.4413 11.0627 11.5024 11.128 11.5453C11.1933 11.5883 11.2697 11.6111 11.3479 11.6111C11.4452 11.6112 11.5392 11.5756 11.6121 11.5111L12.4597 10.7635C12.5169 10.7131 12.5584 10.6473 12.5794 10.5741C12.6004 10.5008 12.6001 10.4231 12.5785 10.35ZM7.81043 22.0446C4.96306 23.3939 2.72937 23.5682 1.6835 22.5227C-0.129207 20.71 1.8394 15.4435 6.26239 10.2717L5.6547 9.75193C0.803559 15.4243 -1.0623 20.9083 1.11781 23.0881C1.72672 23.6965 2.58668 24 3.65332 24C4.89668 24 6.42073 23.5878 8.15267 22.767L7.81043 22.0446ZM21.3441 13.8211C21.3099 13.7573 21.2591 13.7039 21.197 13.6667C21.1349 13.6296 21.0638 13.61 20.9915 13.61H19.6393L18.5503 11.4323C18.517 11.3658 18.466 11.31 18.4028 11.2709C18.3396 11.2319 18.2667 11.2112 18.1925 11.2111H14.1944C14.1419 11.2111 14.0899 11.2215 14.0414 11.2415C13.9929 11.2616 13.9488 11.2911 13.9117 11.3282C13.8746 11.3653 13.8451 11.4094 13.825 11.4579C13.8049 11.5064 13.7946 11.5584 13.7946 11.6109V14.8094C13.7946 14.8619 13.8049 14.9139 13.825 14.9624C13.845 15.0109 13.8745 15.055 13.9116 15.0922C13.9488 15.1293 13.9929 15.1588 14.0414 15.1788C14.0899 15.1989 14.1419 15.2092 14.1944 15.2092H15.3938V19.607C15.3938 19.6595 15.4041 19.7115 15.4241 19.76C15.4442 19.8086 15.4737 19.8527 15.5108 19.8898C15.5479 19.9269 15.592 19.9564 15.6406 19.9764C15.6891 19.9965 15.7411 20.0068 15.7936 20.0068H17.7926C17.8452 20.0068 17.8973 19.9964 17.9459 19.9762C17.9944 19.956 18.0386 19.9265 18.0757 19.8892L19.6749 18.29C19.7121 18.253 19.7416 18.2089 19.7617 18.1604C19.7818 18.1119 19.7921 18.0599 19.792 18.0074V16.5293L21.324 14.2313C21.3642 14.1711 21.3872 14.1012 21.3907 14.0289C21.3943 13.9567 21.3782 13.8848 21.3441 13.8211ZM19.0592 16.1867C19.0155 16.2525 18.9921 16.3296 18.992 16.4086V17.8423L17.6271 19.2072H16.193V14.8094C16.1931 14.7568 16.1828 14.7048 16.1627 14.6563C16.1427 14.6078 16.1132 14.5637 16.0761 14.5265C16.0389 14.4894 15.9948 14.46 15.9463 14.4399C15.8978 14.4198 15.8458 14.4095 15.7932 14.4096H14.5939V12.0108H17.945L19.034 14.1885C19.0673 14.2549 19.1184 14.3108 19.1816 14.3498C19.2448 14.3889 19.3176 14.4096 19.3918 14.4096H20.2442L19.0592 16.1867ZM21.6228 10.4116L20.1387 7.81444C20.1038 7.75325 20.0533 7.70238 19.9923 7.66699C19.9314 7.6316 19.8622 7.61295 19.7917 7.61293H17.3929C17.3271 7.61296 17.2623 7.6292 17.2043 7.66023C17.1463 7.69126 17.0968 7.73611 17.0603 7.79082L16.3794 8.81232H15.3939V6.81333H17.3929C17.4454 6.81338 17.4974 6.80305 17.5459 6.78295C17.5944 6.76285 17.6385 6.73336 17.6756 6.69619L19.1576 5.21414H20.9911V4.41455H18.9921C18.9396 4.41451 18.8876 4.42483 18.8391 4.44493C18.7906 4.46503 18.7465 4.49452 18.7094 4.53169L17.2274 6.01374H14.9941C14.9416 6.01372 14.8896 6.02405 14.8411 6.04413C14.7926 6.06422 14.7485 6.09367 14.7114 6.1308C14.6743 6.16792 14.6448 6.212 14.6247 6.26052C14.6046 6.30903 14.5943 6.36103 14.5943 6.41354V9.21211C14.5943 9.26462 14.6046 9.31661 14.6247 9.36512C14.6448 9.41363 14.6743 9.45771 14.7114 9.49484C14.7485 9.53197 14.7926 9.56142 14.8411 9.5815C14.8896 9.60159 14.9416 9.61192 14.9941 9.61191H16.5933C16.6591 9.61188 16.7239 9.59563 16.7819 9.5646C16.8399 9.53358 16.8894 9.48872 16.9259 9.43402L17.6068 8.41252H19.5598L21.0439 11.0096C21.0788 11.0708 21.1294 11.1217 21.1903 11.1571C21.2512 11.1925 21.3204 11.2111 21.3909 11.2111H22.9901V10.4116H21.6228Z" fill="#FD474D"/>
<path d="M11.796 14.4095H9.5627L8.48045 13.3272C8.44337 13.2901 8.39932 13.2606 8.35081 13.2405C8.3023 13.2204 8.2503 13.21 8.1978 13.2101H6.19881C6.14631 13.2101 6.09431 13.2204 6.0458 13.2405C5.99729 13.2606 5.95321 13.29 5.91609 13.3272C5.87896 13.3643 5.84951 13.4084 5.82942 13.4569C5.80934 13.5054 5.799 13.5574 5.79902 13.6099V16.4085C5.799 16.461 5.80933 16.513 5.82941 16.5615C5.8495 16.61 5.87894 16.6541 5.91607 16.6912C5.9532 16.7283 5.99728 16.7578 6.0458 16.7779C6.09431 16.798 6.14631 16.8083 6.19881 16.8083H7.798V20.8063C7.798 20.8806 7.81869 20.9534 7.85774 21.0166C7.89679 21.0798 7.95267 21.1308 8.01911 21.1641C8.07466 21.1916 8.13583 21.206 8.19784 21.2061C8.28436 21.2062 8.36856 21.1781 8.4377 21.1261L10.0369 19.9267C10.0865 19.8895 10.1268 19.8412 10.1546 19.7857C10.1823 19.7302 10.1968 19.669 10.1968 19.6069V18.5994L12.0459 17.1206C12.0927 17.0831 12.1305 17.0355 12.1564 16.9815C12.1824 16.9275 12.1958 16.8683 12.1958 16.8083V14.8093C12.1958 14.7568 12.1855 14.7048 12.1654 14.6563C12.1453 14.6078 12.1158 14.5637 12.0787 14.5266C12.0416 14.4895 11.9975 14.46 11.949 14.4399C11.9005 14.4198 11.8485 14.4095 11.796 14.4095ZM11.3962 16.6164L9.54709 18.0953C9.50031 18.1328 9.46255 18.1803 9.43661 18.2343C9.41066 18.2884 9.39719 18.3476 9.39719 18.4075V19.407L8.59759 20.0067V16.4085C8.59761 16.356 8.58728 16.304 8.5672 16.2555C8.54711 16.207 8.51767 16.1629 8.48054 16.1258C8.44341 16.0887 8.39933 16.0592 8.35081 16.0391C8.3023 16.019 8.2503 16.0087 8.1978 16.0087H6.59861V14.0097H8.03228L9.11453 15.092C9.15162 15.1292 9.19568 15.1586 9.24418 15.1787C9.29269 15.1988 9.34468 15.2092 9.39719 15.2091H11.3962V16.6164ZM3.7428 8.60641L2.54341 6.60743C2.50792 6.54826 2.45771 6.49929 2.39766 6.4653C2.33762 6.43132 2.26979 6.41347 2.2008 6.4135H1.801V7.2131H1.97453L2.89689 8.75032L1.91819 9.72902C1.88101 9.7661 1.85152 9.81016 1.83142 9.85866C1.81132 9.90717 1.801 9.95917 1.80105 10.0117V11.2111H0.601562V12.0107H2.20075C2.30677 12.0106 2.40844 11.9685 2.48341 11.8935C2.55838 11.8186 2.60051 11.7169 2.60055 11.6109V10.1772L3.6828 9.09494C3.74579 9.03183 3.78591 8.94949 3.79678 8.86099C3.80764 8.77249 3.78865 8.68289 3.7428 8.60641ZM12.596 0.416504V0.904238L11.2994 1.22847C11.255 1.2397 11.2129 1.25836 11.1747 1.28364L10.1684 1.95452L7.97706 0.858676L7.61927 1.57389L10.018 2.77329C10.0811 2.8047 10.1513 2.81891 10.2215 2.81449C10.2918 2.81007 10.3597 2.78717 10.4183 2.74811L11.5601 1.98691L13.0925 1.60389C13.1791 1.58231 13.2559 1.53241 13.3108 1.46215C13.3657 1.39188 13.3955 1.30527 13.3956 1.2161V0.416504H12.596Z" fill="#FD474D"/>
</g>
<defs>
<clipPath id="clip0_113_1721">
<rect width="24" height="24" fill="white"/>
</clipPath>
</defs>
</svg>
