<svg width="24" height="24" viewBox="0 0 24 24" fill="none" xmlns="http://www.w3.org/2000/svg">
<g clip-path="url(#clip0_113_1746)">
<path d="M24 8.772C23.9993 8.64833 23.9688 8.52665 23.911 8.41731C23.8532 8.30797 23.7698 8.21421 23.668 8.144C23.5577 8.06955 23.4312 8.02238 23.2991 8.00639C23.167 7.99039 23.0329 8.00603 22.908 8.052L18.8 9.6V7.304L18.924 7.388C19.122 7.52695 19.3582 7.60103 19.6 7.6C19.8559 7.59977 20.105 7.51777 20.3109 7.36596C20.5169 7.21415 20.6689 7.00048 20.7449 6.75614C20.8208 6.5118 20.8167 6.24959 20.733 6.00778C20.6494 5.76597 20.4907 5.55722 20.28 5.412L12.68 0.212C12.48 0.0741406 12.2429 0.000216674 12 0C11.7571 0.000216674 11.52 0.0741406 11.32 0.212L3.72 5.412C3.58913 5.50075 3.47709 5.6145 3.39032 5.74669C3.30355 5.87889 3.24377 6.02693 3.2144 6.18231C3.18504 6.33768 3.18667 6.49733 3.21921 6.65208C3.25175 6.80682 3.31455 6.95361 3.404 7.084C3.51543 7.24463 3.66441 7.37561 3.838 7.46554C4.01158 7.55547 4.20451 7.60163 4.4 7.6C4.64111 7.60016 4.87668 7.52767 5.076 7.392L5.2 7.304V9.704L1.1 8.06C0.978688 8.01093 0.847189 7.99236 0.717033 8.00593C0.586876 8.0195 0.462036 8.0648 0.353457 8.13784C0.244878 8.21089 0.155875 8.30945 0.0942514 8.4249C0.0326277 8.54034 0.000264863 8.66914 0 8.8L0 19.6C0 19.8122 0.0842855 20.0157 0.234315 20.1657C0.384344 20.3157 0.587827 20.4 0.8 20.4H1.1C1.31941 20.3986 1.53424 20.3371 1.72112 20.2221C1.90801 20.1072 2.05981 19.9432 2.16 19.748L2.496 19.08L3.2 19.408C3.12747 19.6 3.10265 19.8068 3.12768 20.0106C3.15271 20.2143 3.22683 20.409 3.34368 20.5778C3.46053 20.7465 3.61662 20.8844 3.79852 20.9796C3.98043 21.0747 4.18271 21.1243 4.388 21.124C4.54412 21.123 4.69871 21.0932 4.844 21.036C4.94566 21.2969 5.12384 21.5209 5.35513 21.6787C5.58643 21.8364 5.86002 21.9206 6.14 21.92C6.3068 21.92 6.472 21.8904 6.628 21.832C6.72516 22.1033 6.9037 22.3381 7.13923 22.5041C7.37475 22.6702 7.6558 22.7596 7.944 22.76C8.08798 22.7592 8.23099 22.7363 8.368 22.692V22.712C8.42243 22.8602 8.50557 22.9962 8.61265 23.1122C8.71972 23.2282 8.84864 23.3219 8.992 23.388C9.24661 23.5045 9.53393 23.5282 9.80421 23.4552C10.0745 23.3821 10.3107 23.2169 10.472 22.988L11.42 23.752C11.5933 23.883 11.7966 23.9685 12.0113 24.001C12.2261 24.0334 12.4456 24.0117 12.6498 23.9378C12.8541 23.8639 13.0366 23.7401 13.1809 23.5777C13.3252 23.4154 13.4266 23.2195 13.476 23.008C13.6862 23.0692 13.9091 23.0717 14.1206 23.0153C14.3321 22.9589 14.5242 22.8457 14.676 22.688C14.8765 22.4903 15.0011 22.2283 15.028 21.948C15.0852 21.952 15.1428 21.952 15.2 21.948C15.5532 21.9488 15.8948 21.8223 16.1623 21.5916C16.4297 21.3609 16.605 21.0415 16.656 20.692C16.8146 20.7456 16.9806 20.7739 17.148 20.776C17.3493 20.7765 17.5488 20.7373 17.7349 20.6605C17.921 20.5837 18.0901 20.4708 18.2325 20.3285C18.3748 20.1861 18.4877 20.017 18.5645 19.8309C18.6413 19.6448 18.6805 19.4453 18.68 19.244C18.6788 19.0433 18.6381 18.8449 18.56 18.66L21.104 17.6L21.848 18.976C21.9513 19.1648 22.1034 19.3223 22.2885 19.4321C22.4736 19.5419 22.6848 19.5999 22.9 19.6H23.2C23.4074 19.6001 23.6068 19.5197 23.756 19.3757C23.9053 19.2316 23.9927 19.0353 24 18.828V8.772ZM4.624 6.732C4.53648 6.79193 4.42873 6.81464 4.32446 6.79514C4.2202 6.77564 4.12794 6.71552 4.068 6.628C4.03828 6.58387 4.01767 6.53425 4.00737 6.48205C3.99706 6.42985 3.99728 6.37612 4.008 6.324C4.02782 6.22187 4.08664 6.13148 4.172 6.072L11.772 0.872C11.8381 0.823832 11.9182 0.798553 12 0.8C12.0816 0.800193 12.1611 0.825316 12.228 0.872L19.828 6.072C19.9144 6.13189 19.9737 6.22338 19.9932 6.32667C20.0127 6.42997 19.9907 6.53678 19.932 6.624C19.8721 6.71152 19.7798 6.77164 19.6755 6.79114C19.5713 6.81064 19.4635 6.78793 19.376 6.728L12.228 1.84C12.161 1.79355 12.0815 1.76866 12 1.76866C11.9185 1.76866 11.839 1.79355 11.772 1.84L4.624 6.732ZM12 2.652L18 6.76V10C17.801 10.1633 17.6656 10.3913 17.6173 10.6442C17.5691 10.8971 17.6111 11.1589 17.736 11.384L18.136 12.128L17.056 12.528C16.8742 12.5986 16.6779 12.6239 16.4842 12.6016C16.2904 12.5793 16.105 12.5101 15.944 12.4L14 10.964V8.8C14 8.58783 13.9157 8.38434 13.7657 8.23432C13.6157 8.08429 13.4122 8 13.2 8H10.8C10.5878 8 10.3843 8.08429 10.2343 8.23432C10.0843 8.38434 10 8.58783 10 8.8V11.412C9.84876 11.622 9.71498 11.8441 9.6 12.076C9.1677 12.1155 8.73867 12.185 8.316 12.284C8.08096 12.3424 7.84147 12.3812 7.6 12.4C7.06978 12.3367 6.55356 12.1867 6.072 11.956L6.264 11.556C6.38504 11.3205 6.42479 11.0515 6.37703 10.7911C6.32928 10.5306 6.19672 10.2933 6 10.116V6.76L12 2.652ZM13.2 10.42C12.8221 10.2263 12.3981 10.1406 11.9747 10.1724C11.5512 10.2042 11.1448 10.3521 10.8 10.6V8.8H13.2V10.42ZM1.1 19.6H0.8V8.8L5.352 10.648C5.40441 10.6692 5.45172 10.7013 5.49081 10.7422C5.52991 10.7831 5.55989 10.8317 5.57879 10.885C5.59769 10.9383 5.60507 10.995 5.60046 11.0514C5.59584 11.1078 5.57932 11.1625 5.552 11.212L1.448 19.388C1.41431 19.4513 1.36424 19.5043 1.30302 19.5416C1.2418 19.5789 1.17168 19.5991 1.1 19.6ZM4.176 20.268C4.06272 20.2158 3.97472 20.1208 3.93125 20.0039C3.88778 19.8869 3.89236 19.7576 3.944 19.644L4.4 18.684C4.45224 18.5707 4.5472 18.4827 4.66413 18.4393C4.78106 18.3958 4.91044 18.4004 5.024 18.452C5.1384 18.5024 5.2268 18.598 5.268 18.716C5.31579 18.8326 5.31579 18.9634 5.268 19.08L4.8 20.04C4.77418 20.0961 4.73752 20.1465 4.69212 20.1884C4.64672 20.2303 4.59348 20.2627 4.53547 20.2839C4.47747 20.3051 4.41584 20.3146 4.35414 20.3119C4.29245 20.3092 4.2319 20.2942 4.176 20.268ZM6.332 21.068C6.25988 21.0986 6.18234 21.1143 6.104 21.1143C6.02566 21.1143 5.94812 21.0986 5.876 21.068C5.80402 21.0359 5.73926 20.9896 5.68565 20.9319C5.63203 20.8742 5.59065 20.8062 5.564 20.732C5.50418 20.5845 5.50418 20.4195 5.564 20.272L6.252 18.8C6.31828 18.6556 6.43911 18.5434 6.588 18.488C6.73789 18.4353 6.90213 18.441 7.048 18.504C7.1928 18.572 7.3048 18.694 7.36 18.844C7.39069 18.9168 7.40651 18.995 7.40651 19.074C7.40651 19.153 7.39069 19.2312 7.36 19.304L6.672 20.76C6.60407 20.9046 6.48193 21.0167 6.332 21.072V21.068ZM7.692 21.868C7.54754 21.8002 7.43554 21.6783 7.38017 21.5286C7.32479 21.379 7.33048 21.2135 7.396 21.068L7.9 20C7.96734 19.8564 8.0878 19.7445 8.236 19.688C8.30282 19.6644 8.37314 19.6523 8.444 19.652C8.53125 19.6505 8.61761 19.6697 8.696 19.708C8.8412 19.7732 8.9536 19.8944 9.008 20.044C9.064 20.1936 9.0564 20.36 8.988 20.504L8.524 21.52L8.492 21.588C8.45924 21.6602 8.41248 21.7253 8.35442 21.7793C8.29636 21.8334 8.22816 21.8754 8.15376 21.9029C8.07936 21.9305 8.00025 21.943 7.92099 21.9397C7.84173 21.9365 7.7639 21.9175 7.692 21.884V21.868ZM9.328 22.62C9.23175 22.5758 9.15694 22.4953 9.12 22.396C9.09965 22.3472 9.08917 22.2949 9.08917 22.242C9.08917 22.1891 9.09965 22.1368 9.12 22.088L9.244 21.82L9.616 21.02C9.65126 20.9496 9.7065 20.8912 9.7748 20.8521C9.84311 20.8129 9.92145 20.7948 10 20.8C10.0579 20.7997 10.1153 20.812 10.168 20.836C10.2167 20.8576 10.2607 20.8887 10.2972 20.9275C10.3337 20.9663 10.3622 21.012 10.3808 21.0619C10.3994 21.1118 10.4079 21.165 10.4057 21.2182C10.4035 21.2715 10.3907 21.3238 10.368 21.372L9.868 22.456C9.84534 22.5042 9.81328 22.5474 9.7737 22.583C9.73413 22.6187 9.68783 22.646 9.63754 22.6636C9.58724 22.6811 9.53395 22.6884 9.48079 22.685C9.42764 22.6816 9.37569 22.6677 9.328 22.644V22.62ZM17.664 19.744C17.5337 19.8755 17.3582 19.9525 17.1731 19.9592C16.9881 19.9658 16.8075 19.9018 16.668 19.78L14.724 18.076L14.264 17.676C14.2237 17.6395 14.1759 17.6122 14.124 17.596C14.104 17.594 14.084 17.594 14.064 17.596C13.983 17.5804 13.8992 17.5902 13.824 17.624C13.7776 17.6489 13.7357 17.6813 13.7 17.72C13.6652 17.7574 13.6383 17.8016 13.6211 17.8497C13.604 17.8978 13.5968 17.949 13.6 18C13.5983 18.0119 13.5983 18.0241 13.6 18.036C13.6131 18.1265 13.6569 18.2098 13.724 18.272L15.632 19.944C15.7599 20.0666 15.8343 20.2347 15.8391 20.4118C15.8439 20.5889 15.7788 20.7608 15.6578 20.8902C15.5368 21.0196 15.3697 21.0962 15.1927 21.1032C15.0156 21.1103 14.8429 21.0473 14.712 20.928L14.668 20.884L13.068 19.284C12.9927 19.2087 12.8905 19.1664 12.784 19.1664C12.6775 19.1664 12.5753 19.2087 12.5 19.284C12.4247 19.3593 12.3824 19.4615 12.3824 19.568C12.3824 19.6745 12.4247 19.7767 12.5 19.852L14.1 21.452C14.1418 21.4933 14.1751 21.5425 14.1977 21.5968C14.2204 21.651 14.2321 21.7092 14.2321 21.768C14.2321 21.8268 14.2204 21.885 14.1977 21.9393C14.1751 21.9935 14.1418 22.0427 14.1 22.084C14.0139 22.165 13.9002 22.2101 13.782 22.2101C13.6638 22.2101 13.5501 22.165 13.464 22.084L13.12 21.736L12.672 21.288C12.6348 21.2505 12.5906 21.2208 12.5418 21.2004C12.4931 21.1801 12.4408 21.1697 12.388 21.1697C12.3352 21.1697 12.2829 21.1801 12.2342 21.2004C12.1854 21.2208 12.1412 21.2505 12.104 21.288C12.0665 21.3252 12.0368 21.3694 12.0164 21.4182C11.9961 21.4669 11.9857 21.5192 11.9857 21.572C11.9857 21.6248 11.9961 21.6771 12.0164 21.7258C12.0368 21.7746 12.0665 21.8188 12.104 21.856L12.552 22.304C12.65 22.398 12.7052 22.528 12.704 22.664C12.6999 22.7551 12.6716 22.8434 12.6219 22.9199C12.5722 22.9964 12.503 23.0582 12.4215 23.099C12.3399 23.1398 12.249 23.158 12.158 23.1519C12.067 23.1457 11.9793 23.1154 11.904 23.064L10.84 22.24L11.088 21.696C11.1552 21.5525 11.1932 21.397 11.2 21.2387C11.2068 21.0803 11.1821 20.9222 11.1275 20.7735C11.0728 20.6247 10.9892 20.4882 10.8815 20.372C10.7738 20.2557 10.6441 20.1619 10.5 20.096C10.2871 19.9998 10.0508 19.9678 9.82 20.004C9.80615 19.9239 9.78609 19.845 9.76 19.768C9.64606 19.4557 9.42412 19.1945 9.13432 19.0316C8.84453 18.8688 8.50601 18.815 8.18 18.88C8.15491 18.6707 8.08277 18.4699 7.96899 18.2925C7.8552 18.1151 7.70273 17.9658 7.523 17.8557C7.34328 17.7456 7.14096 17.6777 6.93123 17.6569C6.7215 17.6362 6.5098 17.6632 6.312 17.736C6.11707 17.81 5.94087 17.9261 5.796 18.076C5.67709 17.9244 5.52343 17.8037 5.348 17.724C5.04192 17.5825 4.69218 17.5683 4.37566 17.6846C4.05913 17.8008 3.80172 18.038 3.66 18.344L3.512 18.672L2.856 18.36L5.712 12.672C6.30606 12.9559 6.94487 13.1345 7.6 13.2C7.89298 13.1822 8.18362 13.1367 8.468 13.064C8.692 13.016 8.932 12.968 9.184 12.928L8.528 14.4C8.38092 14.7354 8.36867 15.1145 8.49381 15.4586C8.61896 15.8028 8.87186 16.0855 9.2 16.248H9.24C9.51859 16.3799 9.83261 16.4172 10.1344 16.3544C10.4361 16.2916 10.7092 16.1321 10.912 15.9L12.492 14.14L17.632 18.704C17.707 18.7699 17.7677 18.8505 17.8102 18.9408C17.8527 19.0312 17.8762 19.1293 17.8792 19.229C17.8822 19.3288 17.8646 19.4282 17.8276 19.5209C17.7906 19.6136 17.7349 19.6977 17.664 19.768V19.744ZM18.064 17.988L12.264 12.9C12.1837 12.8353 12.0816 12.8042 11.9789 12.813C11.8762 12.8218 11.7809 12.8699 11.7128 12.9473C11.6447 13.0246 11.6091 13.1253 11.6134 13.2283C11.6178 13.3313 11.6617 13.4286 11.736 13.5L11.88 13.628L10.304 15.384C10.2127 15.4883 10.0896 15.5597 9.9537 15.5872C9.81781 15.6146 9.67667 15.5967 9.552 15.536H9.524C9.38863 15.4591 9.28642 15.3349 9.23696 15.1873C9.18751 15.0396 9.19429 14.8789 9.256 14.736L10.184 12.68C10.4028 12.1944 10.717 11.7577 11.108 11.396C11.3653 11.1574 11.6976 11.0158 12.0479 10.9954C12.3982 10.9749 12.7447 11.077 13.028 11.284L15.464 13.06C15.731 13.2516 16.0411 13.3745 16.367 13.4178C16.6928 13.461 17.0242 13.4233 17.332 13.308L18.532 12.864L20.72 16.908L18.064 17.988ZM22.908 18.788C22.8376 18.7898 22.768 18.773 22.7062 18.7393C22.6444 18.7056 22.5926 18.6562 22.556 18.596L18.448 10.996C18.4261 10.9567 18.413 10.9131 18.4095 10.8682C18.4061 10.8233 18.4124 10.7782 18.428 10.736C18.4469 10.6878 18.476 10.6443 18.5133 10.6084C18.5506 10.5725 18.5952 10.5451 18.644 10.528L23.2 8.772V18.8L22.908 18.788Z" fill="#FD474D"/>
<path d="M12.0004 7.2C12.4247 7.2 12.8317 7.03143 13.1318 6.73137C13.4318 6.43131 13.6004 6.02435 13.6004 5.6C13.6004 5.17565 13.4318 4.76869 13.1318 4.46863C12.8317 4.16857 12.4247 4 12.0004 4C11.576 4 11.1691 4.16857 10.869 4.46863C10.569 4.76869 10.4004 5.17565 10.4004 5.6C10.4004 6.02435 10.569 6.43131 10.869 6.73137C11.1691 7.03143 11.576 7.2 12.0004 7.2ZM12.0004 4.8C12.2126 4.8 12.416 4.88429 12.5661 5.03431C12.7161 5.18434 12.8004 5.38783 12.8004 5.6C12.8004 5.81217 12.7161 6.01566 12.5661 6.16569C12.416 6.31571 12.2126 6.4 12.0004 6.4C11.7882 6.4 11.5847 6.31571 11.4347 6.16569C11.2847 6.01566 11.2004 5.81217 11.2004 5.6C11.2004 5.38783 11.2847 5.18434 11.4347 5.03431C11.5847 4.88429 11.7882 4.8 12.0004 4.8Z" fill="#FD474D"/>
</g>
<defs>
<clipPath id="clip0_113_1746">
<rect width="24" height="24" fill="white"/>
</clipPath>
</defs>
</svg>
