<svg width="24" height="24" viewBox="0 0 24 24" fill="none" xmlns="http://www.w3.org/2000/svg">
<g clip-path="url(#clip0_113_1728)">
<path d="M18.1616 2.65979L12.1616 0.0333939C12.1111 0.0113686 12.0566 0 12.0016 0C11.9465 0 11.892 0.0113686 11.8416 0.0333939L5.84156 2.65979C5.77026 2.69091 5.70958 2.74215 5.66695 2.80722C5.62433 2.8723 5.6016 2.9484 5.60156 3.02619V9.30619C5.60356 10.7174 6.28156 12.0422 7.42556 12.8694L11.5724 15.8602C11.6972 15.9506 11.8474 15.9992 12.0016 15.9992C12.1557 15.9992 12.3059 15.9506 12.4308 15.8602L16.5776 12.8698C17.1414 12.4621 17.6006 11.9266 17.9176 11.3073C18.2347 10.688 18.4005 10.0024 18.4016 9.30659V3.02619C18.4015 2.9484 18.3788 2.8723 18.3362 2.80722C18.2935 2.74215 18.2329 2.69091 18.1616 2.65979ZM17.6016 9.30659C17.6007 9.87568 17.465 10.4365 17.2057 10.943C16.9463 11.4496 16.5707 11.8875 16.1096 12.221L12.0016 15.1838L7.89356 12.221C7.43241 11.8875 7.0568 11.4496 6.79747 10.943C6.53814 10.4365 6.40247 9.87568 6.40156 9.30659V3.28779L12.0016 0.836594L17.6016 3.28779V9.30659Z" fill="#FD474D"/>
<path d="M11.8408 1.77998L7.44083 3.70638C7.36953 3.73749 7.30885 3.78873 7.26622 3.85381C7.2236 3.91888 7.20087 3.99498 7.20083 4.07278V9.30678C7.20144 9.74921 7.30688 10.1852 7.50851 10.579C7.71015 10.9728 8.00223 11.3132 8.36083 11.5724L11.7668 14.0292C11.835 14.0783 11.9168 14.1048 12.0008 14.1048C12.0848 14.1048 12.1667 14.0783 12.2348 14.0292L15.6408 11.5724C15.9994 11.3132 16.2915 10.9728 16.4931 10.579C16.6948 10.1852 16.8002 9.74921 16.8008 9.30678V4.07278C16.8008 3.99498 16.7781 3.91888 16.7354 3.85381C16.6928 3.78873 16.6321 3.73749 16.5608 3.70638L12.1608 1.77998C12.1104 1.75795 12.0559 1.74658 12.0008 1.74658C11.9458 1.74658 11.8913 1.75795 11.8408 1.77998ZM16.0008 4.33398V9.30678C16.0002 9.6225 15.9249 9.93359 15.781 10.2146C15.6371 10.4956 15.4287 10.7386 15.1728 10.9236L12.0008 13.2116L8.82883 10.9236C8.573 10.7386 8.3646 10.4956 8.22069 10.2146C8.07677 9.93359 8.00143 9.6225 8.00083 9.30678V4.33398L12.0008 2.58318L16.0008 4.33398ZM3.31483 13.28L2.44963 11.2584C2.382 11.1052 2.28486 10.9668 2.16375 10.8511C2.04264 10.7355 1.89993 10.6448 1.74378 10.5843C1.58763 10.5238 1.42109 10.4946 1.25367 10.4985C1.08625 10.5024 0.92123 10.5391 0.76803 10.6068C0.61483 10.6744 0.476451 10.7716 0.360794 10.8927C0.245137 11.0138 0.154466 11.1565 0.0939596 11.3126C0.0334529 11.4688 0.004295 11.6353 0.00815054 11.8027C0.0120061 11.9702 0.0487996 12.1352 0.11643 12.2884L1.68403 15.7368C1.89552 16.2036 2.18972 16.6283 2.55243 16.9904L5.01763 19.456C4.87883 19.6032 4.80163 19.7976 4.80083 20V23.2C4.80083 23.4122 4.88512 23.6156 5.03515 23.7657C5.18517 23.9157 5.38866 24 5.60083 24H10.0008C10.213 24 10.4165 23.9157 10.5665 23.7657C10.7165 23.6156 10.8008 23.4122 10.8008 23.2V20C10.8008 19.7878 10.7165 19.5843 10.5665 19.4343C10.4165 19.2843 10.213 19.2 10.0008 19.2V18.4556C10.0131 17.5082 9.70402 16.5847 9.12403 15.8356C8.78399 15.3883 8.32056 15.0503 7.79083 14.8632C6.94837 14.5092 6.17358 14.012 5.50083 13.3936C5.19666 13.1431 4.82009 12.9968 4.42656 12.9764C4.03303 12.9559 3.64333 13.0623 3.31483 13.28ZM10.0008 23.2H5.60083V20H10.0008V23.2ZM8.49963 16.3352C8.96587 16.9426 9.21299 17.6899 9.20083 18.4556V19.2H5.89323L3.11803 16.4248C2.82328 16.1304 2.58411 15.7853 2.41203 15.406L0.84443 11.9576C0.816591 11.9001 0.800613 11.8376 0.797451 11.7738C0.794288 11.71 0.804005 11.6463 0.826022 11.5863C0.848039 11.5264 0.881905 11.4714 0.925601 11.4249C0.969296 11.3783 1.02192 11.341 1.08035 11.3152C1.13877 11.2894 1.20179 11.2756 1.26565 11.2747C1.32951 11.2738 1.3929 11.2858 1.45204 11.3099C1.51118 11.334 1.56485 11.3698 1.60987 11.4151C1.65488 11.4604 1.6903 11.5143 1.71403 11.5736L2.60883 13.6604C2.84644 14.2171 3.18893 14.723 3.61763 15.1504L5.44483 16.978C5.48173 17.0162 5.52587 17.0467 5.57467 17.0676C5.62347 17.0886 5.67596 17.0996 5.72907 17.1001C5.78218 17.1005 5.83485 17.0904 5.88401 17.0703C5.93317 17.0502 5.97783 17.0205 6.01539 16.9829C6.05295 16.9454 6.08265 16.9007 6.10276 16.8516C6.12287 16.8024 6.13299 16.7497 6.13253 16.6966C6.13207 16.6435 6.12103 16.591 6.10007 16.5422C6.07911 16.4934 6.04863 16.4493 6.01043 16.4124L4.18323 14.5848C3.9995 14.4015 3.8343 14.2005 3.69003 13.9848C3.87656 13.8412 4.10627 13.7652 4.34161 13.7691C4.57694 13.7731 4.80399 13.8567 4.98563 14.0064C5.73337 14.6926 6.59759 15.2398 7.53763 15.6224C7.92064 15.7617 8.25488 16.0093 8.49963 16.3352Z" fill="#FD474D"/>
<path d="M8.8 21.1996H8.4C8.29391 21.1996 8.19217 21.2417 8.11716 21.3167C8.04214 21.3917 8 21.4935 8 21.5996C8 21.7057 8.04214 21.8074 8.11716 21.8824C8.19217 21.9574 8.29391 21.9996 8.4 21.9996H8.8C8.90609 21.9996 9.00783 21.9574 9.08284 21.8824C9.15786 21.8074 9.2 21.7057 9.2 21.5996C9.2 21.4935 9.15786 21.3917 9.08284 21.3167C9.00783 21.2417 8.90609 21.1996 8.8 21.1996ZM22.3168 15.7364L23.8844 12.288C23.9552 12.1343 23.9948 11.9681 24.0007 11.799C24.0066 11.6299 23.9789 11.4614 23.919 11.3031C23.8592 11.1449 23.7684 11.0001 23.6521 10.8773C23.5358 10.7544 23.3961 10.656 23.2414 10.5877C23.0866 10.5193 22.9198 10.4825 22.7506 10.4792C22.5814 10.476 22.4133 10.5065 22.2561 10.5689C22.0988 10.6313 21.9555 10.7243 21.8346 10.8426C21.7136 10.9609 21.6174 11.1021 21.5516 11.258L20.6884 13.272C20.3587 13.0554 19.9683 12.9502 19.5744 12.9718C19.1806 12.9934 18.804 13.1406 18.5 13.392C17.8273 14.0104 17.0525 14.5076 16.21 14.8616C15.6803 15.0487 15.2168 15.3867 14.8768 15.834C14.2966 16.5834 13.9875 17.5074 14 18.4552V19.1996C13.7878 19.1996 13.5843 19.2839 13.4343 19.4339C13.2843 19.5839 13.2 19.7874 13.2 19.9996V23.1996C13.2 23.4117 13.2843 23.6152 13.4343 23.7653C13.5843 23.9153 13.7878 23.9996 14 23.9996H18.4C18.6122 23.9996 18.8157 23.9153 18.9657 23.7653C19.1157 23.6152 19.2 23.4117 19.2 23.1996V19.9996C19.1996 19.7973 19.122 19.6027 18.9832 19.4556L21.4484 16.99C21.8111 16.6279 22.1053 16.2032 22.3168 15.7364ZM18.4 23.1996H14V19.9996H18.4V23.1996ZM18.1076 19.1996H14.8V18.4552C14.7879 17.6896 15.035 16.9425 15.5012 16.3352C15.7454 16.0095 16.0789 15.7618 16.4612 15.622C17.4014 15.2396 18.2658 14.6923 19.0136 14.006C19.195 13.8552 19.4223 13.7705 19.6582 13.766C19.894 13.7614 20.1245 13.8371 20.3116 13.9808C20.1669 14.1981 20.0009 14.4004 19.816 14.5848L17.9888 16.4124C17.9159 16.4878 17.8756 16.5889 17.8765 16.6937C17.8774 16.7986 17.9195 16.8989 17.9937 16.9731C18.0678 17.0473 18.1682 17.0893 18.273 17.0902C18.3779 17.0912 18.479 17.0508 18.5544 16.978L20.3816 15.1504C20.8103 14.723 21.1528 14.2171 21.3904 13.6604L22.2852 11.5732C22.3191 11.4938 22.3739 11.4251 22.4439 11.3746C22.5139 11.324 22.5963 11.2935 22.6823 11.2863C22.7683 11.2791 22.8547 11.2955 22.9321 11.3337C23.0095 11.3719 23.075 11.4305 23.1216 11.5032C23.2096 11.6392 23.2216 11.8104 23.1548 11.9576L21.5872 15.406C21.4151 15.7853 21.1759 16.1304 20.8812 16.4248L18.1076 19.1996Z" fill="#FD474D"/>
<path d="M15.6012 21.1999H15.2012C15.0951 21.1999 14.9933 21.242 14.9183 21.317C14.8433 21.392 14.8012 21.4938 14.8012 21.5999C14.8012 21.7059 14.8433 21.8077 14.9183 21.8827C14.9933 21.9577 15.0951 21.9999 15.2012 21.9999H15.6012C15.7073 21.9999 15.809 21.9577 15.884 21.8827C15.959 21.8077 16.0012 21.7059 16.0012 21.5999C16.0012 21.4938 15.959 21.392 15.884 21.317C15.809 21.242 15.7073 21.1999 15.6012 21.1999ZM9.84117 8.47986C9.7563 8.4162 9.64963 8.38887 9.5446 8.40388C9.43958 8.41888 9.34483 8.47499 9.28117 8.55986C9.21752 8.64473 9.19019 8.7514 9.20519 8.85642C9.2202 8.96145 9.2763 9.0562 9.36117 9.11986L10.9612 10.3199C11.0047 10.3525 11.0544 10.3759 11.1073 10.3887C11.1601 10.4015 11.2151 10.4033 11.2687 10.3942C11.3223 10.385 11.3735 10.365 11.4191 10.3353C11.4647 10.3057 11.5038 10.2671 11.534 10.2219L14.734 5.42186C14.7929 5.33359 14.8143 5.22555 14.7935 5.12151C14.7727 5.01746 14.7114 4.92593 14.6232 4.86706C14.5349 4.80818 14.4269 4.78677 14.3228 4.80755C14.2188 4.82833 14.1273 4.88959 14.0684 4.97786L11.1028 9.42626L9.84117 8.47986Z" fill="#FD474D"/>
</g>
<defs>
<clipPath id="clip0_113_1728">
<rect width="24" height="24" fill="white"/>
</clipPath>
</defs>
</svg>
