<svg width="24" height="24" viewBox="0 0 24 24" fill="none" xmlns="http://www.w3.org/2000/svg">
<g clip-path="url(#clip0_113_1715)">
<path d="M22 3.19997H14.1656L16.6828 0.682768C16.7557 0.607327 16.796 0.506286 16.7951 0.401407C16.7942 0.296528 16.7521 0.196203 16.6779 0.12204C16.6038 0.0478769 16.5034 0.0058093 16.3986 0.00489793C16.2937 0.00398657 16.1926 0.0443043 16.1172 0.117168L13.0344 3.19997H10.9656L7.8828 0.117168C7.80736 0.0443043 7.70632 0.00398657 7.60144 0.00489793C7.49656 0.0058093 7.39624 0.0478769 7.32207 0.12204C7.24791 0.196203 7.20584 0.296528 7.20493 0.401407C7.20402 0.506286 7.24434 0.607327 7.3172 0.682768L9.8344 3.19997H2C1.46976 3.2006 0.961423 3.41152 0.586488 3.78646C0.211553 4.16139 0.000635143 4.66973 0 5.19997L0 19.6C0.000635143 20.1302 0.211553 20.6385 0.586488 21.0135C0.961423 21.3884 1.46976 21.5993 2 21.6H6.6224C6.47843 21.8421 6.40166 22.1183 6.4 22.4C6.4 22.8243 6.56857 23.2313 6.86863 23.5313C7.16869 23.8314 7.57565 24 8 24H16C16.4243 24 16.8313 23.8314 17.1314 23.5313C17.4314 23.2313 17.6 22.8243 17.6 22.4C17.5983 22.1183 17.5216 21.8421 17.3776 21.6H22C22.5302 21.5993 23.0386 21.3884 23.4135 21.0135C23.7884 20.6385 23.9994 20.1302 24 19.6V5.19997C23.9994 4.66973 23.7884 4.16139 23.4135 3.78646C23.0386 3.41152 22.5302 3.2006 22 3.19997ZM16.8 22.4C16.8 22.6121 16.7157 22.8156 16.5657 22.9657C16.4157 23.1157 16.2122 23.2 16 23.2H8C7.78783 23.2 7.58434 23.1157 7.43431 22.9657C7.28429 22.8156 7.2 22.6121 7.2 22.4C7.2 22.1878 7.28429 21.9843 7.43431 21.8343C7.58434 21.6843 7.78783 21.6 8 21.6H16C16.2122 21.6 16.4157 21.6843 16.5657 21.8343C16.7157 21.9843 16.8 22.1878 16.8 22.4ZM23.2 19.6C23.2 19.9182 23.0736 20.2235 22.8485 20.4485C22.6235 20.6735 22.3183 20.8 22 20.8H2C1.68174 20.8 1.37652 20.6735 1.15147 20.4485C0.926428 20.2235 0.8 19.9182 0.8 19.6V5.19997C0.8 4.88171 0.926428 4.57648 1.15147 4.35144C1.37652 4.1264 1.68174 3.99997 2 3.99997H22C22.3183 3.99997 22.6235 4.1264 22.8485 4.35144C23.0736 4.57648 23.2 4.88171 23.2 5.19997V19.6Z" fill="#FD474D"/>
<path d="M21.5996 4.7998H2.39961C2.18744 4.7998 1.98395 4.88409 1.83392 5.03412C1.68389 5.18415 1.59961 5.38763 1.59961 5.5998V19.1998C1.59961 19.412 1.68389 19.6155 1.83392 19.7655C1.98395 19.9155 2.18744 19.9998 2.39961 19.9998H21.5996C21.8118 19.9998 22.0153 19.9155 22.1653 19.7655C22.3153 19.6155 22.3996 19.412 22.3996 19.1998V5.5998C22.3996 5.38763 22.3153 5.18415 22.1653 5.03412C22.0153 4.88409 21.8118 4.7998 21.5996 4.7998ZM21.5996 5.5998V13.5998H2.39961V5.5998H21.5996ZM2.39961 19.1998V14.3998H21.5996V19.1998H2.39961Z" fill="#FD474D"/>
<path d="M6.39922 15.2H4.39922C4.18705 15.2 3.98356 15.2842 3.83353 15.4343C3.6835 15.5843 3.59922 15.7878 3.59922 16V17.6C3.59922 17.8121 3.6835 18.0156 3.83353 18.1656C3.98356 18.3157 4.18705 18.4 4.39922 18.4H6.39922C6.61139 18.4 6.81487 18.3157 6.9649 18.1656C7.11493 18.0156 7.19922 17.8121 7.19922 17.6V16C7.19922 15.7878 7.11493 15.5843 6.9649 15.4343C6.81487 15.2842 6.61139 15.2 6.39922 15.2ZM4.39922 17.6V16H6.39922V17.6H4.39922ZM10.7992 15.2H8.79922C8.58705 15.2 8.38356 15.2842 8.23353 15.4343C8.0835 15.5843 7.99922 15.7878 7.99922 16V17.6C7.99922 17.8121 8.0835 18.0156 8.23353 18.1656C8.38356 18.3157 8.58705 18.4 8.79922 18.4H10.7992C11.0114 18.4 11.2149 18.3157 11.3649 18.1656C11.5149 18.0156 11.5992 17.8121 11.5992 17.6V16C11.5992 15.7878 11.5149 15.5843 11.3649 15.4343C11.2149 15.2842 11.0114 15.2 10.7992 15.2ZM8.79922 17.6V16H10.7992V17.6H8.79922ZM15.1992 15.2H13.1992C12.987 15.2 12.7836 15.2842 12.6335 15.4343C12.4835 15.5843 12.3992 15.7878 12.3992 16V17.6C12.3992 17.8121 12.4835 18.0156 12.6335 18.1656C12.7836 18.3157 12.987 18.4 13.1992 18.4H15.1992C15.4114 18.4 15.6149 18.3157 15.7649 18.1656C15.9149 18.0156 15.9992 17.8121 15.9992 17.6V16C15.9992 15.7878 15.9149 15.5843 15.7649 15.4343C15.6149 15.2842 15.4114 15.2 15.1992 15.2ZM13.1992 17.6V16H15.1992V17.6H13.1992ZM19.5992 15.2H17.5992C17.387 15.2 17.1836 15.2842 17.0335 15.4343C16.8835 15.5843 16.7992 15.7878 16.7992 16V17.6C16.7992 17.8121 16.8835 18.0156 17.0335 18.1656C17.1836 18.3157 17.387 18.4 17.5992 18.4H19.5992C19.8114 18.4 20.0149 18.3157 20.1649 18.1656C20.3149 18.0156 20.3992 17.8121 20.3992 17.6V16C20.3992 15.7878 20.3149 15.5843 20.1649 15.4343C20.0149 15.2842 19.8114 15.2 19.5992 15.2ZM17.5992 17.6V16H19.5992V17.6H17.5992ZM10.4352 12.7072C10.5565 12.7737 10.6936 12.8057 10.8318 12.7997C10.9699 12.7937 11.1038 12.7499 11.2188 12.6732L14.8188 10.3212C14.9357 10.2407 15.0313 10.133 15.0973 10.0073C15.1634 9.8817 15.1979 9.74189 15.1979 9.59996C15.1979 9.45803 15.1634 9.31822 15.0973 9.19259C15.0313 9.06695 14.9357 8.95925 14.8188 8.87876L11.2188 6.52676C11.1038 6.44992 10.9699 6.40612 10.8318 6.40012C10.6936 6.39413 10.5564 6.42617 10.4352 6.49276C10.3012 6.56766 10.19 6.67738 10.1132 6.81032C10.0365 6.94326 9.99708 7.09447 9.99922 7.24796V11.952C9.99708 12.1054 10.0365 12.2567 10.1132 12.3896C10.19 12.5225 10.3012 12.6323 10.4352 12.7072ZM10.7992 7.24796C10.7996 7.23548 10.801 7.22305 10.8032 7.21076L14.3824 9.54836C14.3933 9.56335 14.3992 9.58142 14.3992 9.59996C14.3992 9.61851 14.3933 9.63657 14.3824 9.65156L10.816 12.0036C10.816 12.0036 10.7992 11.9916 10.7992 11.952V7.24796ZM3.59922 7.19996H3.99922C4.10531 7.19996 4.20705 7.15782 4.28206 7.0828C4.35708 7.00779 4.39922 6.90605 4.39922 6.79996C4.39922 6.69387 4.35708 6.59213 4.28206 6.51712C4.20705 6.4421 4.10531 6.39996 3.99922 6.39996H3.59922C3.49313 6.39996 3.39139 6.4421 3.31638 6.51712C3.24136 6.59213 3.19922 6.69387 3.19922 6.79996C3.19922 6.90605 3.24136 7.00779 3.31638 7.0828C3.39139 7.15782 3.49313 7.19996 3.59922 7.19996ZM5.59922 7.19996H7.19922C7.30531 7.19996 7.40705 7.15782 7.48206 7.0828C7.55708 7.00779 7.59922 6.90605 7.59922 6.79996C7.59922 6.69387 7.55708 6.59213 7.48206 6.51712C7.40705 6.4421 7.30531 6.39996 7.19922 6.39996H5.59922C5.49313 6.39996 5.39139 6.4421 5.31638 6.51712C5.24136 6.59213 5.19922 6.69387 5.19922 6.79996C5.19922 6.90605 5.24136 7.00779 5.31638 7.0828C5.39139 7.15782 5.49313 7.19996 5.59922 7.19996ZM19.9992 12.8H20.3992C20.5053 12.8 20.607 12.7578 20.6821 12.6828C20.7571 12.6078 20.7992 12.506 20.7992 12.4C20.7992 12.2939 20.7571 12.1921 20.6821 12.1171C20.607 12.0421 20.5053 12 20.3992 12H19.9992C19.8931 12 19.7914 12.0421 19.7164 12.1171C19.6414 12.1921 19.5992 12.2939 19.5992 12.4C19.5992 12.506 19.6414 12.6078 19.7164 12.6828C19.7914 12.7578 19.8931 12.8 19.9992 12.8ZM17.9992 12.8H18.3992C18.5053 12.8 18.607 12.7578 18.6821 12.6828C18.7571 12.6078 18.7992 12.506 18.7992 12.4C18.7992 12.2939 18.7571 12.1921 18.6821 12.1171C18.607 12.0421 18.5053 12 18.3992 12H17.9992C17.8931 12 17.7914 12.0421 17.7164 12.1171C17.6414 12.1921 17.5992 12.2939 17.5992 12.4C17.5992 12.506 17.6414 12.6078 17.7164 12.6828C17.7914 12.7578 17.8931 12.8 17.9992 12.8Z" fill="#FD474D"/>
</g>
<defs>
<clipPath id="clip0_113_1715">
<rect width="24" height="24" fill="white"/>
</clipPath>
</defs>
</svg>
