<svg width="24" height="24" viewBox="0 0 24 24" fill="none" xmlns="http://www.w3.org/2000/svg">
<g clip-path="url(#clip0_113_1742)">
<path d="M9.28496 18.2441H3.8008C3.50091 18.2441 3.25781 18.4872 3.25781 18.7871C3.25781 19.087 3.50091 19.3301 3.8008 19.3301H9.28496C9.58485 19.3301 9.82795 19.087 9.82795 18.7871C9.82795 18.4872 9.58485 18.2441 9.28496 18.2441ZM17.4841 18.2441H11.9999C11.7 18.2441 11.4569 18.4872 11.4569 18.7871C11.4569 19.087 11.7 19.3301 11.9999 19.3301H17.4841C17.7839 19.3301 18.027 19.087 18.027 18.7871C18.027 18.4872 17.7839 18.2441 17.4841 18.2441ZM17.4841 4.66943H3.8008C3.50091 4.66943 3.25781 4.91253 3.25781 5.21242C3.25781 5.51231 3.50091 5.75541 3.8008 5.75541H17.4841C17.7839 5.75541 18.027 5.51231 18.027 5.21242C18.027 4.91253 17.7839 4.66943 17.4841 4.66943ZM17.4841 7.38437H11.9999C11.7 7.38437 11.4569 7.62746 11.4569 7.92735C11.4569 8.22724 11.7 8.47034 11.9999 8.47034H17.4841C17.7839 8.47034 18.027 8.22724 18.027 7.92735C18.027 7.62746 17.7839 7.38437 17.4841 7.38437ZM17.4841 10.0993H11.9999C11.7 10.0993 11.4569 10.3424 11.4569 10.6423C11.4569 10.9422 11.7 11.1853 11.9999 11.1853H17.4841C17.7839 11.1853 18.027 10.9422 18.027 10.6423C18.027 10.3424 17.7839 10.0993 17.4841 10.0993ZM17.4841 12.8142H11.9999C11.7 12.8142 11.4569 13.0573 11.4569 13.3572C11.4569 13.6571 11.7 13.9002 11.9999 13.9002H17.4841C17.7839 13.9002 18.027 13.6571 18.027 13.3572C18.027 13.0573 17.7839 12.8142 17.4841 12.8142ZM17.4841 15.5292H11.9999C11.7 15.5292 11.4569 15.7723 11.4569 16.0721C11.4569 16.372 11.7 16.6151 11.9999 16.6151H17.4841C17.7839 16.6151 18.027 16.372 18.027 16.0721C18.027 15.7723 17.7839 15.5292 17.4841 15.5292ZM9.28496 15.5292H3.8008C3.50091 15.5292 3.25781 15.7723 3.25781 16.0721C3.25781 16.372 3.50091 16.6151 3.8008 16.6151H9.28496C9.58485 16.6151 9.82795 16.372 9.82795 16.0721C9.82795 15.7723 9.58485 15.5292 9.28496 15.5292ZM9.28496 7.38437H3.8008C3.50091 7.38437 3.25781 7.62746 3.25781 7.92735V13.4115C3.25781 13.7114 3.50091 13.9545 3.8008 13.9545H9.28496C9.58485 13.9545 9.82795 13.7114 9.82795 13.4115V7.92735C9.82795 7.62746 9.58485 7.38437 9.28496 7.38437ZM8.74198 12.8685H4.34379V8.47034H8.74198V12.8685Z" fill="#FD474D"/>
<path d="M22.914 4.12655H21.2851V2.49759C21.2851 1.89879 20.7979 1.41162 20.1991 1.41162H1.08597C0.487167 1.41162 0 1.89879 0 2.49759V19.8732C0 21.3702 1.21792 22.5881 2.71493 22.5881H21.2851C22.7821 22.5881 24 21.3702 24 19.8732V5.21253C24 4.61372 23.5128 4.12655 22.914 4.12655ZM22.914 19.8732C22.914 20.7714 22.1833 21.5021 21.2851 21.5021H2.71493C1.81672 21.5021 1.08597 20.7714 1.08597 19.8732V2.49759H20.1991V19.0587C20.1991 19.8072 20.8081 20.4161 21.5566 20.4161C21.8564 20.4161 22.0995 20.1731 22.0995 19.8732C22.0995 19.5733 21.8564 19.3302 21.5566 19.3302C21.4069 19.3302 21.2851 19.2084 21.2851 19.0587V5.21253H22.914V19.8732Z" fill="#FD474D"/>
</g>
<defs>
<clipPath id="clip0_113_1742">
<rect width="24" height="24" fill="white"/>
</clipPath>
</defs>
</svg>
