<svg width="24" height="24" viewBox="0 0 24 24" fill="none" xmlns="http://www.w3.org/2000/svg">
<g clip-path="url(#clip0_113_1711)">
<path d="M14.2498 4.875H13.1248V3.75C13.1248 3.65054 13.0853 3.55516 13.015 3.48484C12.9447 3.41451 12.8493 3.375 12.7498 3.375H11.2498C11.1504 3.375 11.055 3.41451 10.9847 3.48484C10.9144 3.55516 10.8748 3.65054 10.8748 3.75V4.875H9.74984C9.65039 4.875 9.55501 4.91451 9.48468 4.98484C9.41435 5.05516 9.37484 5.15054 9.37484 5.25V6.75C9.37484 6.84946 9.41435 6.94484 9.48468 7.01517C9.55501 7.08549 9.65039 7.125 9.74984 7.125H10.8748V8.25C10.8748 8.34946 10.9144 8.44484 10.9847 8.51517C11.055 8.58549 11.1504 8.625 11.2498 8.625H12.7498C12.8493 8.625 12.9447 8.58549 13.015 8.51517C13.0853 8.44484 13.1248 8.34946 13.1248 8.25V7.125H14.2498C14.3493 7.125 14.4447 7.08549 14.515 7.01517C14.5853 6.94484 14.6248 6.84946 14.6248 6.75V5.25C14.6248 5.15054 14.5853 5.05516 14.515 4.98484C14.4447 4.91451 14.3493 4.875 14.2498 4.875ZM13.8748 6.375H12.7498C12.6504 6.375 12.555 6.41451 12.4847 6.48483C12.4144 6.55516 12.3748 6.65054 12.3748 6.75V7.875H11.6248V6.75C11.6248 6.65054 11.5853 6.55516 11.515 6.48483C11.4447 6.41451 11.3493 6.375 11.2498 6.375H10.1248V5.625H11.2498C11.3493 5.625 11.4447 5.58549 11.515 5.51516C11.5853 5.44484 11.6248 5.34946 11.6248 5.25V4.125H12.3748V5.25C12.3748 5.34946 12.4144 5.44484 12.4847 5.51516C12.555 5.58549 12.6504 5.625 12.7498 5.625H13.8748V6.375ZM22.3986 6.885C22.4062 6.81902 22.4099 6.75266 22.4098 6.68625C22.408 6.34251 22.2888 6.00972 22.0719 5.74305C21.855 5.47637 21.5535 5.29182 21.2173 5.22C20.8371 5.14762 20.4436 5.22238 20.1164 5.42915C19.7892 5.63592 19.5527 5.95926 19.4548 6.33375L17.8048 11.0812C17.7804 11.091 17.7566 11.1022 17.7336 11.115L14.4186 13.0575C13.9113 13.3555 13.4906 13.7806 13.1979 14.291C12.9053 14.8013 12.7508 15.3792 12.7498 15.9675V19.5C12.6504 19.5 12.555 19.5395 12.4847 19.6098C12.4144 19.6802 12.3748 19.7755 12.3748 19.875V22.875C12.3748 22.9745 12.4144 23.0698 12.4847 23.1402C12.555 23.2105 12.6504 23.25 12.7498 23.25H17.9998C18.0993 23.25 18.1947 23.2105 18.265 23.1402C18.3353 23.0698 18.3748 22.9745 18.3748 22.875V19.875C18.3748 19.7755 18.3353 19.6802 18.265 19.6098C18.1947 19.5395 18.0993 19.5 17.9998 19.5V18.675C18.0005 18.5166 18.0343 18.3601 18.0988 18.2155C18.1634 18.0709 18.2574 17.9413 18.3748 17.835L20.9098 15.5812C21.1871 15.3386 21.3856 15.0187 21.4798 14.6625L23.1073 8.57625C23.1421 8.44916 23.1597 8.318 23.1598 8.18625C23.1584 7.92161 23.0872 7.66203 22.9536 7.4336C22.82 7.20518 22.6286 7.01597 22.3986 6.885ZM20.1711 6.555C20.2171 6.36107 20.3346 6.19161 20.5 6.08041C20.6654 5.9692 20.8666 5.92443 21.0636 5.955C21.2317 5.9902 21.3826 6.08202 21.4911 6.21512C21.5996 6.34821 21.6592 6.51452 21.6598 6.68625V6.69375C21.3249 6.69997 21.0011 6.81543 20.7378 7.02256C20.4745 7.22969 20.286 7.51717 20.2011 7.84125L19.1548 11.07C18.9964 10.9949 18.8266 10.9467 18.6523 10.9275L20.1711 6.555ZM17.6248 22.5H13.1248V20.25H17.6248V22.5ZM22.3836 8.38125L20.7523 14.4713C20.6959 14.6829 20.5785 14.8733 20.4148 15.0187L17.8761 17.2725C17.6796 17.4497 17.5224 17.666 17.4146 17.9075C17.3067 18.149 17.2506 18.4105 17.2498 18.675V19.5H13.4998V15.9675C13.5017 15.51 13.6222 15.0608 13.8497 14.6638C14.0771 14.2668 14.4036 13.9355 14.7973 13.7025L18.1086 11.7638C18.194 11.714 18.2883 11.6816 18.3863 11.6685C18.4842 11.6553 18.5838 11.6616 18.6792 11.6871C18.7747 11.7125 18.8642 11.7566 18.9426 11.8167C19.021 11.8768 19.0868 11.9519 19.1361 12.0375C19.2335 12.2108 19.2604 12.4149 19.2111 12.6075C19.185 12.7026 19.1405 12.7916 19.08 12.8695C19.0195 12.9473 18.9443 13.0125 18.8586 13.0613L16.7098 14.3025C16.6282 14.3544 16.5698 14.4358 16.5468 14.5298C16.5238 14.6237 16.538 14.7229 16.5864 14.8066C16.6348 14.8904 16.7136 14.9522 16.8065 14.9791C16.8994 15.0061 16.9991 14.9961 17.0848 14.9513L19.2336 13.71C19.4053 13.6126 19.5559 13.4817 19.6763 13.3252C19.7967 13.1687 19.8846 12.9897 19.9348 12.7987C20.0369 12.4151 19.983 12.0066 19.7848 11.6625L19.7623 11.6287L20.9211 8.055C20.9671 7.86107 21.0846 7.69161 21.25 7.58041C21.4154 7.4692 21.6166 7.42443 21.8136 7.455C21.9817 7.4902 22.1326 7.58202 22.2411 7.71512C22.3496 7.84821 22.4092 8.01452 22.4098 8.18625C22.4111 8.25221 22.4023 8.31797 22.3836 8.38125ZM11.2498 19.5V15.9675C11.2489 15.3792 11.0944 14.8013 10.8018 14.291C10.5091 13.7806 10.0884 13.3555 9.58109 13.0575L6.26609 11.1112C6.24359 11.1 6.21734 11.0925 6.19484 11.0812L4.55609 6.36C4.46085 5.98005 4.22441 5.65066 3.89489 5.43888C3.56537 5.22709 3.16753 5.14882 2.78234 5.22C2.44619 5.29182 2.14468 5.47637 1.92779 5.74305C1.7109 6.00972 1.59166 6.34251 1.58984 6.68625C1.58975 6.75266 1.5935 6.81902 1.60109 6.885C1.37113 7.01597 1.17971 7.20518 1.04608 7.4336C0.912444 7.66203 0.841315 7.92161 0.839844 8.18625C0.840572 8.31772 0.856937 8.44864 0.888594 8.57625L2.51984 14.6588C2.61306 15.0164 2.81166 15.3378 3.08984 15.5812L5.62109 17.835C5.73972 17.9405 5.83476 18.0699 5.90002 18.2146C5.96528 18.3594 5.9993 18.5162 5.99984 18.675V19.5C5.90039 19.5 5.80501 19.5395 5.73468 19.6098C5.66435 19.6802 5.62484 19.7755 5.62484 19.875V22.875C5.62484 22.9745 5.66435 23.0698 5.73468 23.1402C5.80501 23.2105 5.90039 23.25 5.99984 23.25H11.2498C11.3493 23.25 11.4447 23.2105 11.515 23.1402C11.5853 23.0698 11.6248 22.9745 11.6248 22.875V19.875C11.6248 19.7755 11.5853 19.6802 11.515 19.6098C11.4447 19.5395 11.3493 19.5 11.2498 19.5ZM2.33984 6.68625C2.34031 6.51504 2.39933 6.34914 2.50712 6.21612C2.6149 6.0831 2.76495 5.99095 2.93234 5.955C3.13472 5.92563 3.34071 5.97385 3.50902 6.08999C3.67733 6.20614 3.7955 6.38162 3.83984 6.58125L5.34734 10.9275C5.17308 10.9467 5.00325 10.9949 4.84484 11.07L3.80609 7.86C3.72156 7.53271 3.53273 7.24186 3.26819 7.03144C3.00364 6.82102 2.67776 6.70248 2.33984 6.69375V6.68625ZM6.11984 17.2725L3.58484 15.0187C3.42024 14.8725 3.30277 14.6806 3.24734 14.4675L1.61234 8.38125C1.59682 8.31743 1.58926 8.25193 1.58984 8.18625C1.59031 8.01504 1.64933 7.84914 1.75712 7.71612C1.8649 7.5831 2.01495 7.49095 2.18234 7.455C2.38329 7.42484 2.58821 7.47189 2.75587 7.58668C2.92354 7.70148 3.04153 7.8755 3.08609 8.07375L4.23734 11.6287L4.21484 11.6625C4.01669 12.0066 3.96276 12.4151 4.06484 12.7987C4.11505 12.9897 4.20296 13.1687 4.32339 13.3252C4.44382 13.4817 4.59434 13.6126 4.76609 13.71L6.91484 14.9513C7.00055 14.9961 7.10026 15.0061 7.19315 14.9791C7.28604 14.9522 7.36493 14.8904 7.41333 14.8066C7.46173 14.7229 7.47591 14.6237 7.4529 14.5298C7.42989 14.4358 7.37147 14.3544 7.28984 14.3025L5.14109 13.0613C5.0554 13.0125 4.98015 12.9473 4.91967 12.8695C4.85918 12.7916 4.81464 12.7026 4.78859 12.6075C4.73933 12.4149 4.76619 12.2108 4.86359 12.0375C4.91259 11.9521 4.97794 11.8771 5.0559 11.8169C5.13387 11.7567 5.22293 11.7125 5.31799 11.6867C5.41306 11.6609 5.51227 11.6542 5.60996 11.6667C5.70765 11.6793 5.8019 11.711 5.88734 11.76L9.20234 13.7025C9.59608 13.9355 9.92261 14.2668 10.15 14.6638C10.3775 15.0608 10.498 15.51 10.4998 15.9675V19.5H6.74984V18.675C6.74921 18.4101 6.69277 18.1483 6.58423 17.9066C6.47568 17.665 6.31745 17.4489 6.11984 17.2725ZM10.8748 22.5H6.37484V20.25H10.8748V22.5Z" fill="#FD474D"/>
<path d="M17.3055 1.92472C16.9574 1.57598 16.5439 1.29932 16.0888 1.11056C15.6336 0.921811 15.1457 0.824672 14.6529 0.824707C14.1601 0.824742 13.6722 0.92195 13.2171 1.11077C12.7619 1.29958 12.3485 1.5763 12.0004 1.92509C11.6524 1.5763 11.2389 1.29957 10.7838 1.11077C10.3287 0.921957 9.84078 0.824771 9.34804 0.824771C8.85529 0.824771 8.36739 0.921957 7.91226 1.11077C7.45713 1.29957 7.04371 1.5763 6.69566 1.92509C5.99379 2.62847 5.59961 3.58155 5.59961 4.57522C5.59961 5.56888 5.99379 6.52196 6.69566 7.22534L11.7357 12.2653C11.806 12.3356 11.9013 12.3751 12.0008 12.3751C12.1002 12.3751 12.1956 12.3356 12.2659 12.2653L17.3059 7.22534C18.0078 6.52185 18.4019 5.56867 18.4018 4.57495C18.4017 3.58123 18.0075 2.62811 17.3055 1.92472ZM12.0004 11.47L7.22554 6.69509C6.80633 6.27532 6.521 5.74068 6.4056 5.15877C6.29021 4.57686 6.34993 3.9738 6.57722 3.42582C6.80451 2.87785 7.18916 2.40956 7.68255 2.08016C8.17594 1.75077 8.75592 1.57505 9.34916 1.57522C9.74324 1.57386 10.1336 1.65099 10.4976 1.8021C10.8616 1.95321 11.1918 2.17527 11.469 2.45534L11.7353 2.72159C11.8056 2.79189 11.901 2.83139 12.0004 2.83139C12.0998 2.83139 12.1952 2.79189 12.2655 2.72159L12.5325 2.45459C12.8109 2.17569 13.1416 1.95442 13.5056 1.80345C13.8696 1.65248 14.2598 1.57477 14.6539 1.57477C15.048 1.57477 15.4382 1.65248 15.8022 1.80345C16.1662 1.95442 16.4969 2.17569 16.7753 2.45459C17.337 3.01708 17.6525 3.77952 17.6525 4.57447C17.6525 5.36941 17.337 6.13185 16.7753 6.69434L12.0004 11.47Z" fill="#FD474D"/>
</g>
<defs>
<clipPath id="clip0_113_1711">
<rect width="24" height="24" fill="white"/>
</clipPath>
</defs>
</svg>
