<svg width="249" height="31" viewBox="0 0 249 31" fill="none" xmlns="http://www.w3.org/2000/svg">
<path d="M99.3635 21.8948V18.063L116.284 18.0924C117.147 18.0924 117.804 17.8959 118.255 17.5029C118.726 17.0903 118.961 16.432 118.961 15.528C118.961 14.6241 118.726 13.9757 118.255 13.5827C117.804 13.17 117.147 12.9637 116.284 12.9637H105.749C103.571 12.9637 101.875 12.4429 100.658 11.4014C99.4616 10.3403 98.8633 8.78793 98.8633 6.74428C98.8633 4.70063 99.4616 3.15807 100.658 2.11659C101.875 1.05547 103.571 0.524902 105.749 0.524902H122.286V4.35675L106.249 4.32727C105.406 4.32727 104.748 4.52378 104.278 4.91678C103.807 5.29014 103.571 5.89931 103.571 6.74428C103.571 7.58925 103.807 8.20824 104.278 8.60125C104.748 8.97461 105.406 9.16129 106.249 9.16129H116.784C118.961 9.16129 120.648 9.70168 121.845 10.7825C123.061 11.8436 123.669 13.4254 123.669 15.528C123.669 17.611 123.061 19.1929 121.845 20.2736C120.648 21.3544 118.961 21.8948 116.784 21.8948H99.3635Z" fill="#EF426F"/>
<path d="M131.006 21.7474C129.28 21.7474 128.014 21.3151 127.21 20.4505C126.425 19.5859 126.033 18.4658 126.033 17.0903V6.56743H130.3V16.5892C130.3 17.7682 130.888 18.3577 132.065 18.3577H138.186C139.363 18.3577 139.951 17.7682 139.951 16.5892V6.56743H144.218V17.0903C144.218 18.4658 143.816 19.5859 143.012 20.4505C142.227 21.3151 140.972 21.7474 139.245 21.7474H131.006Z" fill="#EF426F"/>
<path d="M147.301 28.3795V6.56743H158.189C160.818 6.56743 162.868 7.21589 164.339 8.51282C165.81 9.80976 166.546 11.6864 166.546 14.1427C166.546 16.6187 165.81 18.5051 164.339 19.802C162.868 21.099 160.818 21.7474 158.189 21.7474H151.568V28.3795H147.301ZM158.189 9.95714H151.568V18.3577H158.189C159.464 18.3577 160.435 18.0138 161.102 17.3261C161.789 16.6186 162.132 15.5575 162.132 14.1427C162.132 12.7475 161.789 11.706 161.102 11.0183C160.435 10.3108 159.464 9.95714 158.189 9.95714Z" fill="#EF426F"/>
<path d="M169.198 28.3795V6.56743H180.086C182.715 6.56743 184.765 7.21589 186.236 8.51282C187.707 9.80976 188.443 11.6864 188.443 14.1427C188.443 16.6187 187.707 18.5051 186.236 19.802C184.765 21.099 182.715 21.7474 180.086 21.7474H173.465V28.3795H169.198ZM180.086 9.95714H173.465V18.3577H180.086C181.361 18.3577 182.332 18.0138 182.999 17.3261C183.686 16.6186 184.029 15.5575 184.029 14.1427C184.029 12.7475 183.686 11.706 182.999 11.0183C182.332 10.3108 181.361 9.95714 180.086 9.95714Z" fill="#EF426F"/>
<path d="M198.864 21.8948C196.235 21.8948 194.185 21.2463 192.714 19.9494C191.243 18.6328 190.507 16.7071 190.507 14.1722C190.507 11.6176 191.243 9.69185 192.714 8.39492C194.185 7.07834 196.235 6.42005 198.864 6.42005H204.308C206.937 6.42005 208.987 7.07834 210.458 8.39492C211.929 9.69185 212.665 11.6176 212.665 14.1722C212.665 16.7071 211.929 18.6328 210.458 19.9494C208.987 21.2463 206.937 21.8948 204.308 21.8948H198.864ZM198.864 18.5051H204.308C205.583 18.5051 206.554 18.1514 207.221 17.444C207.908 16.7366 208.251 15.646 208.251 14.1722C208.251 12.6787 207.908 11.5783 207.221 10.8709C206.554 10.1635 205.583 9.80976 204.308 9.80976H198.864C197.589 9.80976 196.608 10.1635 195.921 10.8709C195.254 11.5783 194.921 12.6787 194.921 14.1722C194.921 15.646 195.254 16.7366 195.921 17.444C196.608 18.1514 197.589 18.5051 198.864 18.5051Z" fill="#EF426F"/>
<path d="M215.32 21.7474V6.56743H226.914C228.621 6.56743 229.876 6.99974 230.681 7.86436C231.485 8.70933 231.887 9.82941 231.887 11.2246V14.3785H227.562V11.7552C227.562 10.5761 226.973 9.98661 225.796 9.98661H219.646V21.7474H215.32Z" fill="#EF426F"/>
<path d="M242.115 21.7474C240.408 21.7474 239.153 21.3249 238.348 20.48C237.544 19.6153 237.142 18.4854 237.142 17.0903V9.95714H232.758V6.56743H237.142V1.91026H241.409V6.56743H247.706V9.95714H241.409V16.5597C241.409 17.7584 241.997 18.3577 243.174 18.3577H248.53V21.7474H242.115Z" fill="#EF426F"/>
<path d="M1.53724 22.0485V6.86852H5.80401V22.0485H1.53724ZM1.50781 4.36309V1.03233H5.83344V4.36309H1.50781Z" fill="#231F20"/>
<path d="M20.3076 22.1959C16.4234 22.1959 13.4513 21.3018 11.3915 19.5136C9.33169 17.7058 8.30178 15.0333 8.30178 11.4962C8.30178 7.97878 9.33169 5.31614 11.3915 3.50829C13.4513 1.70045 16.4234 0.80635 20.3076 0.826001L30.901 0.884951V4.65784H20.6313C18.081 4.65784 16.188 5.19823 14.9521 6.27901C13.7162 7.35979 13.0982 9.09886 13.0982 11.4962C13.0982 13.8936 13.7162 15.6425 14.9521 16.7429C16.188 17.8237 18.081 18.3641 20.6313 18.3641H31.1952V22.1959H20.3076Z" fill="#231F20"/>
<path d="M41.4617 22.1959C38.833 22.1959 36.783 21.5474 35.3117 20.2505C33.8404 18.9339 33.1047 17.0082 33.1047 14.4733C33.1047 11.9187 33.8404 9.99295 35.3117 8.69602C36.783 7.37944 38.833 6.72115 41.4617 6.72115H46.9055C49.5343 6.72115 51.5843 7.37944 53.0556 8.69602C54.5269 9.99295 55.2625 11.9187 55.2625 14.4733C55.2625 17.0082 54.5269 18.9339 53.0556 20.2505C51.5843 21.5474 49.5343 22.1959 46.9055 22.1959H41.4617ZM41.4617 18.8062H46.9055C48.1807 18.8062 49.1517 18.4525 49.8187 17.7451C50.5053 17.0377 50.8486 15.947 50.8486 14.4733C50.8486 12.9798 50.5053 11.8794 49.8187 11.172C49.1517 10.4646 48.1807 10.1109 46.9055 10.1109H41.4617C40.1866 10.1109 39.2057 10.4646 38.5191 11.172C37.8521 11.8794 37.5186 12.9798 37.5186 14.4733C37.5186 15.947 37.8521 17.0377 38.5191 17.7451C39.2057 18.4525 40.1866 18.8062 41.4617 18.8062Z" fill="#231F20"/>
<path d="M57.918 22.0485V6.86852H69.5119C71.2186 6.86852 72.4741 7.30084 73.2784 8.16546C74.0827 9.01043 74.4849 10.1305 74.4849 11.5257V14.6796H70.1592V12.0563C70.1592 10.8772 69.5707 10.2877 68.3937 10.2877H62.2436V22.0485H57.918Z" fill="#231F20"/>
<path d="M85.1697 22.1959C82.541 22.1959 80.491 21.5474 79.0197 20.2505C77.5484 18.9339 76.8127 17.0082 76.8127 14.4733C76.8127 11.9187 77.5484 9.99295 79.0197 8.69602C80.491 7.37944 82.541 6.72115 85.1697 6.72115H92.5262C94.2526 6.72115 95.5669 7.13381 96.4693 7.95913C97.3913 8.7648 97.8524 9.92417 97.8524 11.4373C97.8524 14.5224 96.077 16.065 92.5262 16.065H81.4032C81.8152 17.8924 83.0707 18.8062 85.1697 18.8062H97.0873V22.1959H85.1697ZM85.1697 10.1109C83.1491 10.1109 81.9034 10.9657 81.4326 12.6752H92.3203C92.7126 12.6752 93.0167 12.5573 93.2325 12.3215C93.4679 12.0857 93.5856 11.7615 93.5856 11.3488C93.5856 10.5235 93.1638 10.1109 92.3203 10.1109H85.1697Z" fill="#231F20"/>
<path fill-rule="evenodd" clip-rule="evenodd" d="M246.322 30.5902H0.0136719V28.9883H246.322V30.5902Z" fill="#231F20"/>
<path fill-rule="evenodd" clip-rule="evenodd" d="M31.1327 30.558H0.107422V28.9561H31.1327V30.558Z" fill="#EF426F"/>
</svg>
