<svg width="176" height="44" viewBox="0 0 176 44" fill="none" xmlns="http://www.w3.org/2000/svg">
<path d="M45.5296 24.3066L43.1953 28.0119C43.9611 28.6047 44.7886 29.1482 45.6778 29.6422C46.5671 30.1115 47.5305 30.482 48.5679 30.7538C49.6301 31.0502 50.7788 31.1984 52.0138 31.1984C54.0394 31.1984 55.6079 30.7414 56.7195 29.8275C57.8558 28.8888 58.4239 27.5055 58.4239 25.6776C58.4239 24.6154 58.1893 23.7632 57.7199 23.1209C57.2753 22.4787 56.6701 21.9476 55.9044 21.5277C55.1633 21.1077 54.3482 20.7372 53.4589 20.4161C52.619 20.095 51.9027 19.8356 51.3098 19.638C50.7417 19.4157 50.2971 19.181 49.9759 18.934C49.6795 18.687 49.5313 18.3782 49.5313 18.0077C49.5313 17.6865 49.6548 17.4272 49.9018 17.2296C50.1736 17.0319 50.5688 16.9331 51.0875 16.9331C51.8533 16.9331 52.6931 17.1555 53.6071 17.6001C54.5211 18.02 55.3362 18.5635 56.0526 19.2304L58.0534 15.5992C57.3865 15.1052 56.6701 14.6729 55.9044 14.3024C55.1633 13.9319 54.3605 13.6355 53.4959 13.4131C52.6561 13.1908 51.7421 13.0797 50.754 13.0797C49.519 13.0797 48.4197 13.2649 47.4564 13.6355C46.5177 14.006 45.7643 14.5494 45.1962 15.2658C44.6527 15.9821 44.381 16.859 44.381 17.8965C44.381 18.9834 44.6157 19.8726 45.085 20.5643C45.5543 21.2559 46.1472 21.8117 46.8635 22.2317C47.6046 22.6269 48.3827 22.9727 49.1978 23.2691C50.1118 23.5409 50.8282 23.8002 51.3469 24.0472C51.8903 24.2943 52.2732 24.5536 52.4955 24.8253C52.7178 25.0724 52.829 25.3811 52.829 25.7517C52.829 26.1469 52.6931 26.468 52.4214 26.715C52.1497 26.962 51.7298 27.0856 51.1616 27.0856C50.7664 27.0856 50.2971 27.0115 49.7536 26.8632C49.2102 26.6903 48.5803 26.4063 47.8639 26.011C47.1723 25.5911 46.3942 25.023 45.5296 24.3066Z" fill="white"/>
<path d="M65.8365 25.1588C65.8365 24.7389 65.9353 24.3931 66.1329 24.1213C66.3305 23.8249 66.627 23.6026 67.0222 23.4544C67.4174 23.3062 67.9485 23.2321 68.6154 23.2321C69.48 23.2321 70.2952 23.3556 71.0609 23.6026C71.8514 23.8249 72.543 24.1584 73.1359 24.603V22.1205C72.8394 21.7994 72.3948 21.4906 71.802 21.1942C71.2091 20.8978 70.4928 20.6508 69.6529 20.4531C68.8378 20.2555 67.9114 20.1567 66.874 20.1567C64.7496 20.1567 63.107 20.6384 61.946 21.6018C60.785 22.5404 60.2045 23.8249 60.2045 25.4552C60.2045 26.6162 60.4762 27.6043 61.0197 28.4195C61.5878 29.2346 62.3288 29.8522 63.2428 30.2721C64.1815 30.6673 65.1943 30.8649 66.2811 30.8649C67.368 30.8649 68.3808 30.6797 69.3194 30.3091C70.2581 29.9139 71.0239 29.3458 71.6167 28.6047C72.2095 27.839 72.506 26.9126 72.506 25.8258L71.9131 23.6026C71.9131 24.3931 71.7402 25.06 71.3944 25.6035C71.0486 26.1469 70.6039 26.5545 70.0605 26.8262C69.5171 27.0979 68.9242 27.2338 68.282 27.2338C67.8373 27.2338 67.4298 27.1597 67.0592 27.0115C66.6887 26.8385 66.3923 26.6039 66.17 26.3075C65.9477 25.9863 65.8365 25.6035 65.8365 25.1588ZM63.354 18.6746C63.601 18.5264 63.9962 18.3411 64.5397 18.1188C65.0831 17.8718 65.713 17.6618 66.4293 17.4889C67.1704 17.316 67.9238 17.2296 68.6896 17.2296C69.2083 17.2296 69.6653 17.279 70.0605 17.3778C70.4804 17.4766 70.8263 17.6371 71.098 17.8595C71.3697 18.0818 71.5673 18.3535 71.6908 18.6746C71.839 18.971 71.9131 19.3292 71.9131 19.7491V30.4944H77.2858V18.4893C77.2858 17.3037 76.9399 16.3032 76.2483 15.4881C75.5566 14.6729 74.618 14.0554 73.4323 13.6355C72.2466 13.1908 70.9004 12.9685 69.3936 12.9685C67.7879 12.9685 66.3058 13.1785 64.9472 13.5984C63.5886 14.0183 62.4277 14.463 61.4643 14.9323L63.354 18.6746Z" fill="white"/>
<path d="M85.8102 25.1588C85.8102 24.7389 85.909 24.3931 86.1066 24.1213C86.3042 23.8249 86.6006 23.6026 86.9959 23.4544C87.3911 23.3062 87.9222 23.2321 88.5891 23.2321C89.4537 23.2321 90.2688 23.3556 91.0346 23.6026C91.8251 23.8249 92.5167 24.1584 93.1096 24.603V22.1205C92.8131 21.7994 92.3685 21.4906 91.7757 21.1942C91.1828 20.8978 90.4665 20.6508 89.6266 20.4531C88.8114 20.2555 87.8851 20.1567 86.8477 20.1567C84.7233 20.1567 83.0806 20.6384 81.9197 21.6018C80.7587 22.5404 80.1782 23.8249 80.1782 25.4552C80.1782 26.6162 80.4499 27.6043 80.9933 28.4195C81.5615 29.2346 82.3025 29.8522 83.2165 30.2721C84.1552 30.6673 85.1679 30.8649 86.2548 30.8649C87.3417 30.8649 88.3545 30.6797 89.2931 30.3091C90.2318 29.9139 90.9975 29.3458 91.5904 28.6047C92.1832 27.839 92.4797 26.9126 92.4797 25.8258L91.8868 23.6026C91.8868 24.3931 91.7139 25.06 91.3681 25.6035C91.0223 26.1469 90.5776 26.5545 90.0342 26.8262C89.4907 27.0979 88.8979 27.2338 88.2557 27.2338C87.811 27.2338 87.4034 27.1597 87.0329 27.0115C86.6624 26.8385 86.366 26.6039 86.1437 26.3075C85.9213 25.9863 85.8102 25.6035 85.8102 25.1588ZM83.3277 18.6746C83.5747 18.5264 83.9699 18.3411 84.5133 18.1188C85.0568 17.8718 85.6867 17.6618 86.403 17.4889C87.1441 17.316 87.8975 17.2296 88.6632 17.2296C89.182 17.2296 89.639 17.279 90.0342 17.3778C90.4541 17.4766 90.7999 17.6371 91.0717 17.8595C91.3434 18.0818 91.541 18.3535 91.6645 18.6746C91.8127 18.971 91.8868 19.3292 91.8868 19.7491V30.4944H97.2594V18.4893C97.2594 17.3037 96.9136 16.3032 96.222 15.4881C95.5303 14.6729 94.5917 14.0554 93.406 13.6355C92.2203 13.1908 90.874 12.9685 89.3672 12.9685C87.7616 12.9685 86.2795 13.1785 84.9209 13.5984C83.5623 14.0183 82.4013 14.463 81.438 14.9323L83.3277 18.6746Z" fill="white"/>
<path d="M102.375 24.3066L100.041 28.0119C100.806 28.6047 101.634 29.1482 102.523 29.6422C103.412 30.1115 104.376 30.482 105.413 30.7538C106.476 31.0502 107.624 31.1984 108.859 31.1984C110.885 31.1984 112.453 30.7414 113.565 29.8275C114.701 28.8888 115.269 27.5055 115.269 25.6776C115.269 24.6154 115.035 23.7632 114.565 23.1209C114.121 22.4787 113.516 21.9476 112.75 21.5277C112.009 21.1077 111.194 20.7372 110.304 20.4161C109.464 20.095 108.748 19.8356 108.155 19.638C107.587 19.4157 107.142 19.181 106.821 18.934C106.525 18.687 106.377 18.3782 106.377 18.0077C106.377 17.6865 106.5 17.4272 106.747 17.2296C107.019 17.0319 107.414 16.9331 107.933 16.9331C108.699 16.9331 109.539 17.1555 110.452 17.6001C111.366 18.02 112.182 18.5635 112.898 19.2304L114.899 15.5992C114.232 15.1052 113.516 14.6729 112.75 14.3024C112.009 13.9319 111.206 13.6355 110.341 13.4131C109.501 13.1908 108.588 13.0797 107.599 13.0797C106.364 13.0797 105.265 13.2649 104.302 13.6355C103.363 14.006 102.61 14.5494 102.042 15.2658C101.498 15.9821 101.226 16.859 101.226 17.8965C101.226 18.9834 101.461 19.8726 101.93 20.5643C102.4 21.2559 102.993 21.8117 103.709 22.2317C104.45 22.6269 105.228 22.9727 106.043 23.2691C106.957 23.5409 107.674 23.8002 108.192 24.0472C108.736 24.2943 109.119 24.5536 109.341 24.8253C109.563 25.0724 109.674 25.3811 109.674 25.7517C109.674 26.1469 109.539 26.468 109.267 26.715C108.995 26.962 108.575 27.0856 108.007 27.0856C107.612 27.0856 107.142 27.0115 106.599 26.8632C106.056 26.6903 105.426 26.4063 104.709 26.011C104.018 25.5911 103.24 25.023 102.375 24.3066Z" fill="white"/>
<path d="M132.122 25.4923H139.013C138.791 26.1592 138.482 26.7891 138.087 27.382C137.717 27.9501 137.26 28.4565 136.716 28.9011C136.173 29.3211 135.518 29.6545 134.752 29.9015C133.987 30.1239 133.134 30.235 132.196 30.235C130.664 30.235 129.306 29.9015 128.12 29.2346C126.959 28.5429 126.033 27.5796 125.341 26.3445C124.674 25.0847 124.341 23.6026 124.341 21.8982C124.341 20.1691 124.686 18.7117 125.378 17.526C126.094 16.3156 127.045 15.3893 128.231 14.747C129.441 14.1048 130.763 13.7837 132.196 13.7837C133.703 13.7837 134.95 14.1295 135.938 14.8211C136.951 15.4881 137.754 16.3403 138.346 17.3778L143.904 14.4877C143.089 13.2773 142.113 12.2151 140.977 11.3011C139.866 10.3625 138.581 9.63376 137.124 9.11502C135.666 8.59628 134.024 8.33691 132.196 8.33691C130.145 8.33691 128.243 8.65804 126.49 9.30028C124.736 9.94253 123.204 10.8565 121.895 12.0422C120.586 13.2279 119.573 14.6606 118.857 16.3403C118.14 17.9953 117.782 19.8479 117.782 21.8982C117.782 23.9484 118.128 25.8258 118.82 27.5302C119.536 29.2099 120.524 30.6673 121.784 31.9024C123.044 33.1128 124.538 34.0514 126.267 34.7184C127.996 35.3606 129.898 35.6818 131.973 35.6818C134.172 35.6818 136.123 35.2989 137.828 34.5331C139.532 33.7427 140.952 32.6558 142.089 31.2725C143.225 29.8892 144.065 28.2959 144.608 26.4927C145.152 24.6895 145.362 22.7504 145.238 20.6754H132.122V25.4923Z" fill="white"/>
<path d="M154.592 21.8982C154.592 20.3667 154.889 19.0204 155.482 17.8594C156.099 16.6738 156.951 15.7474 158.038 15.0805C159.15 14.4135 160.447 14.0801 161.929 14.0801C163.436 14.0801 164.732 14.4135 165.819 15.0805C166.906 15.7474 167.746 16.6738 168.339 17.8594C168.932 19.0204 169.228 20.3667 169.228 21.8982C169.228 23.4297 168.919 24.7883 168.302 25.974C167.709 27.135 166.857 28.0489 165.745 28.7159C164.658 29.3828 163.386 29.7163 161.929 29.7163C160.447 29.7163 159.15 29.3828 158.038 28.7159C156.951 28.0489 156.099 27.135 155.482 25.974C154.889 24.7883 154.592 23.4297 154.592 21.8982ZM147.96 21.8982C147.96 23.899 148.293 25.7393 148.96 27.419C149.652 29.0987 150.615 30.5561 151.85 31.7912C153.11 33.0263 154.592 33.9897 156.297 34.6813C158.001 35.3483 159.878 35.6818 161.929 35.6818C163.954 35.6818 165.819 35.3483 167.524 34.6813C169.228 33.9897 170.698 33.0263 171.933 31.7912C173.193 30.5561 174.156 29.0987 174.823 27.419C175.515 25.7393 175.86 23.899 175.86 21.8982C175.86 19.8973 175.515 18.0694 174.823 16.4144C174.131 14.7594 173.156 13.3267 171.896 12.1163C170.636 10.9059 169.154 9.97958 167.45 9.33734C165.77 8.67039 163.93 8.33691 161.929 8.33691C159.953 8.33691 158.112 8.67039 156.408 9.33734C154.703 9.97958 153.221 10.9059 151.962 12.1163C150.702 13.3267 149.714 14.7594 148.997 16.4144C148.306 18.0694 147.96 19.8973 147.96 21.8982Z" fill="white"/>
<g clip-path="url(#clip0_82_2121)">
<path d="M35.8357 0.376221H35.8343C35.84 0.394884 35.8444 0.414982 35.8501 0.436516C35.8458 0.414982 35.84 0.394884 35.8357 0.376221Z" fill="#AAD037"/>
<path d="M1.64675 14.2742C3.0077 11.9557 5.23577 10.2086 7.94189 8.79883C5.56883 10.0248 3.58195 11.4805 2.21381 13.3913C2.00996 13.6756 1.82045 13.9699 1.64675 14.2742Z" fill="#AAD037"/>
<path d="M9.65878 42.6921C11.9055 43.9568 27.3024 46.6745 32.6773 36.608C37.6891 27.7546 35.2098 18.7475 29.1587 15.2748C25.7534 13.7516 23.0387 14.0588 20.9154 15.9352C24.7298 20.8794 24.5647 33.675 17.5029 33.3821C10.902 33.8243 8.99839 22.0136 12.1452 15.9452C4.93849 14.0244 1.02071 18.4776 0.274197 19.4395C0.246918 19.5156 0.225384 19.5945 0.202415 19.6735C-0.934589 30.643 2.75493 39.3629 9.65878 42.6921Z" fill="#EF4154"/>
<path d="M0.142479 19.3764L0.202778 19.6736C0.270252 17.6508 0.735386 15.9051 1.57378 14.402C1.59819 14.359 1.62259 14.3173 1.647 14.2743C3.00796 11.9558 5.23602 10.2086 7.94215 8.79885C8.14888 8.69118 8.35704 8.58495 8.56807 8.48302C8.84228 8.34807 9.12078 8.21599 9.4036 8.08822C14.6464 5.70798 21.3522 8.08822 29.7089 7.09765C33.7243 6.62247 35.269 4.96721 35.7901 3.37368C36.1777 2.1893 35.9997 1.03938 35.8504 0.436425C35.8461 0.414891 35.8404 0.394793 35.836 0.37613H35.8346V0.371823C35.747 0.24836 35.6566 0.124898 35.5618 0C35.5618 0 32.8744 2.73627 19.5806 1.12408C6.4606 -0.468009 0.52866 10.0794 0.142479 19.3764Z" fill="url(#paint0_linear_82_2121)"/>
<path d="M0.274515 19.4396C1.02103 18.4778 4.93881 14.0245 12.1456 15.9453C13.0471 14.2054 14.3636 12.9363 16.105 12.5645C13.3802 12.5975 10.9583 12.4439 8.78768 12.7138C8.78481 12.7138 8.78337 12.7138 8.7805 12.7138C8.77619 12.7138 8.77189 12.7152 8.76758 12.7152C7.38222 12.9463 6.11888 13.3196 5.00485 13.8637C5.00341 13.8637 5.00198 13.8637 5.00054 13.8651C4.9991 13.8666 4.99623 13.8666 4.9948 13.868C2.75668 14.9605 1.11578 16.7392 0.274515 19.4382V19.4396Z" fill="#BC2026"/>
<path d="M0.202797 19.6737C0.225765 19.5947 0.247299 19.5158 0.274578 19.4397C1.11584 16.7407 2.75674 14.962 4.99486 13.8695C4.9963 13.8681 4.99916 13.8681 5.0006 13.8666C5.00204 13.8652 5.00347 13.8652 5.00491 13.8652C6.11894 13.3211 7.38228 12.9479 8.76764 12.7167C8.77195 12.7167 8.77626 12.7153 8.78056 12.7153C8.78343 12.7153 8.78487 12.7153 8.78774 12.7153C10.9584 12.4454 13.3803 12.599 16.105 12.566H16.1065C16.1395 12.566 16.174 12.5645 16.2084 12.5645C16.8257 12.5559 17.4344 12.5545 18.0316 12.5588C24.3297 12.5947 29.4663 13.146 33.2161 11.0485C37.2171 8.80899 39.1753 5.08646 35.8361 0.376221C35.8404 0.394884 35.8461 0.414982 35.8504 0.436516C35.9997 1.03947 36.1777 2.1894 35.7901 3.37377C35.2704 4.9673 33.7257 6.62543 29.7089 7.10062C21.3522 8.09119 14.645 5.70808 9.40362 8.09119C9.1208 8.21896 8.84229 8.35103 8.56809 8.48311C8.35706 8.58504 8.1489 8.69127 7.94217 8.79894C5.23604 10.2087 3.00798 11.9558 1.64702 14.2744C1.62261 14.3174 1.59821 14.3591 1.5738 14.4021C0.771297 15.8449 0.288929 17.5303 0.208534 19.5273C0.205666 19.5732 0.204231 19.6263 0.202797 19.6737Z" fill="url(#paint1_linear_82_2121)"/>
</g>
<defs>
<linearGradient id="paint0_linear_82_2121" x1="2.50693" y1="12.9061" x2="35.2216" y2="-1.83184" gradientUnits="userSpaceOnUse">
<stop stop-color="#EF4154"/>
<stop offset="0.25" stop-color="#F0544F"/>
<stop offset="0.5" stop-color="#F2644C"/>
<stop offset="0.75" stop-color="#F3754A"/>
<stop offset="1" stop-color="#F5834C"/>
</linearGradient>
<linearGradient id="paint1_linear_82_2121" x1="16.9004" y1="10.5418" x2="52.9902" y2="0.987791" gradientUnits="userSpaceOnUse">
<stop stop-color="#EF4154"/>
<stop offset="0.25" stop-color="#F0544F"/>
<stop offset="0.5" stop-color="#F2644C"/>
<stop offset="0.75" stop-color="#F3754A"/>
<stop offset="1" stop-color="#F5834C"/>
</linearGradient>
<clipPath id="clip0_82_2121">
<rect width="37.5354" height="44" fill="white" transform="matrix(-1 0 0 1 37.5356 0)"/>
</clipPath>
</defs>
</svg>
