<svg width="176" height="44" viewBox="0 0 176 44" fill="none" xmlns="http://www.w3.org/2000/svg">
<path d="M45.0667 24.3065L42.7324 28.0118C43.4982 28.6046 44.3257 29.148 45.2149 29.6421C46.1042 30.1114 47.0676 30.4819 48.1051 30.7536C49.1672 31.0501 50.3159 31.1983 51.5509 31.1983C53.5765 31.1983 55.1451 30.7413 56.2566 29.8273C57.3929 28.8887 57.9611 27.5054 57.9611 25.6774C57.9611 24.6153 57.7264 23.7631 57.2571 23.1208C56.8124 22.4786 56.2072 21.9475 55.4415 21.5275C54.7004 21.1076 53.8853 20.7371 52.996 20.416C52.1561 20.0948 51.4398 19.8355 50.8469 19.6379C50.2788 19.4155 49.8342 19.1809 49.5131 18.9339C49.2166 18.6868 49.0684 18.3781 49.0684 18.0075C49.0684 17.6864 49.1919 17.4271 49.4389 17.2294C49.7107 17.0318 50.1059 16.933 50.6246 16.933C51.3904 16.933 52.2302 17.1553 53.1442 17.6C54.0582 18.0199 54.8733 18.5633 55.5897 19.2303L57.5905 15.5991C56.9236 15.1051 56.2072 14.6728 55.4415 14.3023C54.7004 13.9318 53.8976 13.6353 53.0331 13.413C52.1932 13.1907 51.2792 13.0795 50.2912 13.0795C49.0561 13.0795 47.9568 13.2648 46.9935 13.6353C46.0548 14.0059 45.3014 14.5493 44.7333 15.2656C44.1898 15.982 43.9181 16.8589 43.9181 17.8964C43.9181 18.9833 44.1528 19.8725 44.6221 20.5642C45.0914 21.2558 45.6843 21.8116 46.4006 22.2315C47.1417 22.6268 47.9198 22.9726 48.7349 23.269C49.6489 23.5407 50.3653 23.8001 50.884 24.0471C51.4274 24.2941 51.8103 24.5535 52.0326 24.8252C52.2549 25.0722 52.3661 25.381 52.3661 25.7515C52.3661 26.1468 52.2302 26.4679 51.9585 26.7149C51.6868 26.9619 51.2669 27.0854 50.6987 27.0854C50.3035 27.0854 49.8342 27.0113 49.2907 26.8631C48.7473 26.6902 48.1174 26.4061 47.4011 26.0109C46.7094 25.591 45.9313 25.0228 45.0667 24.3065Z" fill="#2F3045"/>
<path d="M65.3736 25.1587C65.3736 24.7388 65.4724 24.3929 65.67 24.1212C65.8676 23.8248 66.1641 23.6025 66.5593 23.4543C66.9545 23.3061 67.4856 23.232 68.1526 23.232C69.0171 23.232 69.8323 23.3555 70.598 23.6025C71.3885 23.8248 72.0801 24.1583 72.673 24.6029V22.1204C72.3766 21.7993 71.9319 21.4905 71.3391 21.1941C70.7462 20.8976 70.0299 20.6506 69.19 20.453C68.3749 20.2554 67.4486 20.1566 66.4111 20.1566C64.2867 20.1566 62.6441 20.6383 61.4831 21.6016C60.3221 22.5403 59.7416 23.8248 59.7416 25.4551C59.7416 26.6161 60.0133 27.6042 60.5568 28.4193C61.1249 29.2345 61.866 29.852 62.7799 30.272C63.7186 30.6672 64.7314 30.8648 65.8182 30.8648C66.9051 30.8648 67.9179 30.6795 68.8566 30.309C69.7952 29.9138 70.561 29.3456 71.1538 28.6046C71.7467 27.8388 72.0431 26.9125 72.0431 25.8256L71.4502 23.6025C71.4502 24.3929 71.2773 25.0599 70.9315 25.6033C70.5857 26.1468 70.141 26.5543 69.5976 26.8261C69.0542 27.0978 68.4613 27.2336 67.8191 27.2336C67.3744 27.2336 66.9669 27.1595 66.5963 27.0113C66.2258 26.8384 65.9294 26.6038 65.7071 26.3073C65.4848 25.9862 65.3736 25.6033 65.3736 25.1587ZM62.8911 18.6745C63.1381 18.5263 63.5333 18.341 64.0768 18.1187C64.6202 17.8717 65.2501 17.6617 65.9664 17.4888C66.7075 17.3159 67.4609 17.2294 68.2267 17.2294C68.7454 17.2294 69.2024 17.2788 69.5976 17.3776C70.0175 17.4765 70.3634 17.637 70.6351 17.8593C70.9068 18.0816 71.1044 18.3534 71.2279 18.6745C71.3761 18.9709 71.4502 19.3291 71.4502 19.749V30.4943H76.8229V18.4892C76.8229 17.3035 76.477 16.3031 75.7854 15.488C75.0937 14.6728 74.1551 14.0553 72.9694 13.6353C71.7837 13.1907 70.4375 12.9684 68.9307 12.9684C67.325 12.9684 65.8429 13.1783 64.4843 13.5983C63.1257 14.0182 61.9648 14.4628 61.0014 14.9322L62.8911 18.6745Z" fill="#2F3045"/>
<path d="M85.3473 25.1587C85.3473 24.7388 85.4461 24.3929 85.6437 24.1212C85.8413 23.8248 86.1377 23.6025 86.533 23.4543C86.9282 23.3061 87.4593 23.232 88.1262 23.232C88.9908 23.232 89.806 23.3555 90.5717 23.6025C91.3622 23.8248 92.0538 24.1583 92.6467 24.6029V22.1204C92.3502 21.7993 91.9056 21.4905 91.3128 21.1941C90.7199 20.8976 90.0036 20.6506 89.1637 20.453C88.3486 20.2554 87.4222 20.1566 86.3848 20.1566C84.2604 20.1566 82.6177 20.6383 81.4568 21.6016C80.2958 22.5403 79.7153 23.8248 79.7153 25.4551C79.7153 26.6161 79.987 27.6042 80.5304 28.4193C81.0986 29.2345 81.8396 29.852 82.7536 30.272C83.6923 30.6672 84.705 30.8648 85.7919 30.8648C86.8788 30.8648 87.8916 30.6795 88.8302 30.309C89.7689 29.9138 90.5347 29.3456 91.1275 28.6046C91.7203 27.8388 92.0168 26.9125 92.0168 25.8256L91.4239 23.6025C91.4239 24.3929 91.251 25.0599 90.9052 25.6033C90.5594 26.1468 90.1147 26.5543 89.5713 26.8261C89.0279 27.0978 88.435 27.2336 87.7928 27.2336C87.3481 27.2336 86.9406 27.1595 86.57 27.0113C86.1995 26.8384 85.9031 26.6038 85.6808 26.3073C85.4585 25.9862 85.3473 25.6033 85.3473 25.1587ZM82.8648 18.6745C83.1118 18.5263 83.507 18.341 84.0504 18.1187C84.5939 17.8717 85.2238 17.6617 85.9401 17.4888C86.6812 17.3159 87.4346 17.2294 88.2003 17.2294C88.7191 17.2294 89.1761 17.2788 89.5713 17.3776C89.9912 17.4765 90.337 17.637 90.6088 17.8593C90.8805 18.0816 91.0781 18.3534 91.2016 18.6745C91.3498 18.9709 91.4239 19.3291 91.4239 19.749V30.4943H96.7966V18.4892C96.7966 17.3035 96.4507 16.3031 95.7591 15.488C95.0674 14.6728 94.1288 14.0553 92.9431 13.6353C91.7574 13.1907 90.4112 12.9684 88.9043 12.9684C87.2987 12.9684 85.8166 13.1783 84.458 13.5983C83.0994 14.0182 81.9384 14.4628 80.9751 14.9322L82.8648 18.6745Z" fill="#2F3045"/>
<path d="M101.912 24.3065L99.5778 28.0118C100.344 28.6046 101.171 29.148 102.06 29.6421C102.95 30.1114 103.913 30.4819 104.95 30.7536C106.013 31.0501 107.161 31.1983 108.396 31.1983C110.422 31.1983 111.99 30.7413 113.102 29.8273C114.238 28.8887 114.806 27.5054 114.806 25.6774C114.806 24.6153 114.572 23.7631 114.102 23.1208C113.658 22.4786 113.053 21.9475 112.287 21.5275C111.546 21.1076 110.731 20.7371 109.841 20.416C109.002 20.0948 108.285 19.8355 107.692 19.6379C107.124 19.4155 106.68 19.1809 106.358 18.9339C106.062 18.6868 105.914 18.3781 105.914 18.0075C105.914 17.6864 106.037 17.4271 106.284 17.2294C106.556 17.0318 106.951 16.933 107.47 16.933C108.236 16.933 109.076 17.1553 109.99 17.6C110.904 18.0199 111.719 18.5633 112.435 19.2303L114.436 15.5991C113.769 15.1051 113.053 14.6728 112.287 14.3023C111.546 13.9318 110.743 13.6353 109.878 13.413C109.039 13.1907 108.125 13.0795 107.137 13.0795C105.901 13.0795 104.802 13.2648 103.839 13.6353C102.9 14.0059 102.147 14.5493 101.579 15.2656C101.035 15.982 100.764 16.8589 100.764 17.8964C100.764 18.9833 100.998 19.8725 101.467 20.5642C101.937 21.2558 102.53 21.8116 103.246 22.2315C103.987 22.6268 104.765 22.9726 105.58 23.269C106.494 23.5407 107.211 23.8001 107.729 24.0471C108.273 24.2941 108.656 24.5535 108.878 24.8252C109.1 25.0722 109.212 25.381 109.212 25.7515C109.212 26.1468 109.076 26.4679 108.804 26.7149C108.532 26.9619 108.112 27.0854 107.544 27.0854C107.149 27.0854 106.68 27.0113 106.136 26.8631C105.593 26.6902 104.963 26.4061 104.246 26.0109C103.555 25.591 102.777 25.0228 101.912 24.3065Z" fill="#2F3045"/>
<path d="M131.658 25.4922H138.55C138.328 26.1591 138.019 26.789 137.624 27.3818C137.253 27.95 136.796 28.4564 136.253 28.901C135.709 29.3209 135.055 29.6544 134.289 29.9014C133.523 30.1237 132.671 30.2349 131.732 30.2349C130.201 30.2349 128.842 29.9014 127.657 29.2345C126.496 28.5428 125.569 27.5795 124.878 26.3444C124.211 25.0846 123.877 23.6025 123.877 21.8981C123.877 20.1689 124.223 18.7115 124.915 17.5258C125.631 16.3155 126.582 15.3891 127.768 14.7469C128.978 14.1047 130.3 13.7835 131.732 13.7835C133.239 13.7835 134.487 14.1294 135.475 14.821C136.487 15.488 137.29 16.3402 137.883 17.3776L143.441 14.4875C142.626 13.2771 141.65 12.215 140.514 11.301C139.402 10.3623 138.118 9.63363 136.66 9.1149C135.203 8.59616 133.56 8.33679 131.732 8.33679C129.682 8.33679 127.78 8.65791 126.026 9.30016C124.272 9.94241 122.741 10.8564 121.432 12.0421C120.122 13.2277 119.11 14.6604 118.393 16.3402C117.677 17.9952 117.319 19.8478 117.319 21.8981C117.319 23.9483 117.665 25.8256 118.356 27.5301C119.073 29.2098 120.061 30.6672 121.321 31.9023C122.58 33.1127 124.075 34.0513 125.804 34.7183C127.533 35.3605 129.435 35.6816 131.51 35.6816C133.708 35.6816 135.66 35.2988 137.364 34.533C139.069 33.7425 140.489 32.6557 141.625 31.2724C142.762 29.8891 143.602 28.2958 144.145 26.4926C144.688 24.6894 144.898 22.7503 144.775 20.6753H131.658V25.4922Z" fill="#2F3045"/>
<path d="M154.129 21.8981C154.129 20.3665 154.425 19.0203 155.018 17.8593C155.636 16.6736 156.488 15.7473 157.575 15.0804C158.686 14.4134 159.983 14.0799 161.465 14.0799C162.972 14.0799 164.269 14.4134 165.356 15.0804C166.443 15.7473 167.283 16.6736 167.875 17.8593C168.468 19.0203 168.765 20.3665 168.765 21.8981C168.765 23.4296 168.456 24.7882 167.838 25.9738C167.246 27.1348 166.393 28.0488 165.282 28.7157C164.195 29.3827 162.923 29.7162 161.465 29.7162C159.983 29.7162 158.686 29.3827 157.575 28.7157C156.488 28.0488 155.636 27.1348 155.018 25.9738C154.425 24.7882 154.129 23.4296 154.129 21.8981ZM147.496 21.8981C147.496 23.8989 147.83 25.7392 148.497 27.4189C149.189 29.0986 150.152 30.556 151.387 31.7911C152.647 33.0262 154.129 33.9896 155.833 34.6812C157.538 35.3482 159.415 35.6816 161.465 35.6816C163.491 35.6816 165.356 35.3482 167.06 34.6812C168.765 33.9896 170.234 33.0262 171.47 31.7911C172.729 30.556 173.693 29.0986 174.36 27.4189C175.051 25.7392 175.397 23.8989 175.397 21.8981C175.397 19.8972 175.051 18.0693 174.36 16.4143C173.668 14.7592 172.692 13.3265 171.432 12.1162C170.173 10.9058 168.691 9.97946 166.986 9.33721C165.306 8.67027 163.466 8.33679 161.465 8.33679C159.489 8.33679 157.649 8.67027 155.944 9.33721C154.24 9.97946 152.758 10.9058 151.498 12.1162C150.238 13.3265 149.25 14.7592 148.534 16.4143C147.842 18.0693 147.496 19.8972 147.496 21.8981Z" fill="#2F3045"/>
<g clip-path="url(#clip0_82_2111)">
<path d="M35.8357 0.376099H35.8343C35.84 0.394762 35.8444 0.41486 35.8501 0.436394C35.8458 0.41486 35.84 0.394762 35.8357 0.376099Z" fill="#AAD037"/>
<path d="M1.64675 14.2742C3.0077 11.9557 5.23577 10.2086 7.94189 8.79883C5.56883 10.0248 3.58195 11.4805 2.21381 13.3913C2.00996 13.6756 1.82045 13.9699 1.64675 14.2742Z" fill="#AAD037"/>
<path d="M9.65878 42.6922C11.9055 43.957 27.3024 46.6746 32.6773 36.6081C37.6891 27.7547 35.2098 18.7477 29.1587 15.2749C25.7534 13.7517 23.0387 14.059 20.9154 15.9353C24.7298 20.8795 24.5647 33.6751 17.5029 33.3823C10.902 33.8244 8.99839 22.0137 12.1452 15.9454C4.93849 14.0245 1.02071 18.4778 0.274197 19.4396C0.246918 19.5157 0.225384 19.5947 0.202415 19.6736C-0.934589 30.6431 2.75493 39.363 9.65878 42.6922Z" fill="#EF4154"/>
<path d="M0.142479 19.3764L0.202778 19.6736C0.270252 17.6508 0.735386 15.9051 1.57378 14.402C1.59819 14.359 1.62259 14.3173 1.647 14.2743C3.00796 11.9558 5.23602 10.2086 7.94215 8.79885C8.14888 8.69118 8.35704 8.58495 8.56807 8.48302C8.84228 8.34807 9.12078 8.21599 9.4036 8.08822C14.6464 5.70798 21.3522 8.08822 29.7089 7.09765C33.7243 6.62247 35.269 4.96721 35.7901 3.37368C36.1777 2.1893 35.9997 1.03938 35.8504 0.436425C35.8461 0.414891 35.8404 0.394793 35.836 0.37613H35.8346V0.371823C35.747 0.24836 35.6566 0.124898 35.5618 0C35.5618 0 32.8744 2.73627 19.5806 1.12408C6.4606 -0.468009 0.52866 10.0794 0.142479 19.3764Z" fill="url(#paint0_linear_82_2111)"/>
<path d="M0.274515 19.4396C1.02103 18.4778 4.93881 14.0245 12.1456 15.9453C13.0471 14.2054 14.3636 12.9363 16.105 12.5645C13.3802 12.5975 10.9583 12.4439 8.78768 12.7138C8.78481 12.7138 8.78337 12.7138 8.7805 12.7138C8.77619 12.7138 8.77189 12.7152 8.76758 12.7152C7.38222 12.9463 6.11888 13.3196 5.00485 13.8637C5.00341 13.8637 5.00198 13.8637 5.00054 13.8651C4.9991 13.8666 4.99623 13.8666 4.9948 13.868C2.75668 14.9605 1.11578 16.7392 0.274515 19.4382V19.4396Z" fill="#BC2026"/>
<path d="M0.202797 19.6736C0.225765 19.5946 0.247299 19.5156 0.274578 19.4396C1.11584 16.7406 2.75674 14.9619 4.99486 13.8694C4.9963 13.868 4.99916 13.868 5.0006 13.8665C5.00204 13.8651 5.00347 13.8651 5.00491 13.8651C6.11894 13.321 7.38228 12.9477 8.76764 12.7166C8.77195 12.7166 8.77626 12.7152 8.78056 12.7152C8.78343 12.7152 8.78487 12.7152 8.78774 12.7152C10.9584 12.4453 13.3803 12.5989 16.105 12.5659H16.1065C16.1395 12.5659 16.174 12.5644 16.2084 12.5644C16.8257 12.5558 17.4344 12.5544 18.0316 12.5587C24.3297 12.5946 29.4663 13.1458 33.2161 11.0484C37.2171 8.80887 39.1753 5.08633 35.8361 0.376099C35.8404 0.394762 35.8461 0.41486 35.8504 0.436394C35.9997 1.03935 36.1777 2.18927 35.7901 3.37365C35.2704 4.96718 33.7257 6.62531 29.7089 7.10049C21.3522 8.09106 14.645 5.70795 9.40362 8.09106C9.1208 8.21883 8.84229 8.35091 8.56809 8.48299C8.35706 8.58491 8.1489 8.69115 7.94217 8.79882C5.23604 10.2086 3.00798 11.9557 1.64702 14.2742C1.62261 14.3173 1.59821 14.3589 1.5738 14.402C0.771297 15.8448 0.288929 17.5302 0.208534 19.5271C0.205666 19.5731 0.204231 19.6262 0.202797 19.6736Z" fill="url(#paint1_linear_82_2111)"/>
</g>
<defs>
<linearGradient id="paint0_linear_82_2111" x1="2.50693" y1="12.9061" x2="35.2216" y2="-1.83184" gradientUnits="userSpaceOnUse">
<stop stop-color="#EF4154"/>
<stop offset="0.25" stop-color="#F0544F"/>
<stop offset="0.5" stop-color="#F2644C"/>
<stop offset="0.75" stop-color="#F3754A"/>
<stop offset="1" stop-color="#F5834C"/>
</linearGradient>
<linearGradient id="paint1_linear_82_2111" x1="16.9004" y1="10.5417" x2="52.9902" y2="0.987668" gradientUnits="userSpaceOnUse">
<stop stop-color="#EF4154"/>
<stop offset="0.25" stop-color="#F0544F"/>
<stop offset="0.5" stop-color="#F2644C"/>
<stop offset="0.75" stop-color="#F3754A"/>
<stop offset="1" stop-color="#F5834C"/>
</linearGradient>
<clipPath id="clip0_82_2111">
<rect width="37.5354" height="44" fill="white" transform="matrix(-1 0 0 1 37.5356 0)"/>
</clipPath>
</defs>
</svg>
