<svg width="24" height="24" viewBox="0 0 24 24" fill="none" xmlns="http://www.w3.org/2000/svg">
<g clip-path="url(#clip0_186_2039)">
<path d="M20.9183 9C22.509 8.3055 23.625 6.71887 23.625 4.875C23.625 2.39363 21.6064 0.375 19.125 0.375C16.6436 0.375 14.625 2.39363 14.625 4.875C14.625 6.71887 15.741 8.3055 17.3317 9C15.741 9.6945 14.625 11.2811 14.625 13.125C14.625 15.0799 15.8801 16.7426 17.625 17.3625V19.5H16.125L19.125 23.5001L22.125 19.5H20.625V17.3625C22.3699 16.7426 23.625 15.0799 23.625 13.125C23.625 11.2811 22.509 9.6945 20.9183 9ZM19.125 1.125C21.1927 1.125 22.875 2.80725 22.875 4.875C22.8757 5.61805 22.6543 6.34437 22.2394 6.96075C22.0696 6.54674 21.8188 6.17086 21.5016 5.85523C21.1844 5.53961 20.8073 5.2906 20.3925 5.12288C20.5834 4.94862 20.7359 4.73661 20.8405 4.50027C20.9451 4.26393 20.9994 4.00844 21 3.75C21 2.71613 20.1589 1.875 19.125 1.875C18.0911 1.875 17.25 2.71613 17.25 3.75C17.25 4.29375 17.4866 4.78013 17.8575 5.12288C17.4426 5.29055 17.0655 5.53953 16.7483 5.85517C16.4311 6.1708 16.1803 6.54671 16.0106 6.96075C15.5957 6.34437 15.3743 5.61805 15.375 4.875C15.375 2.80725 17.0573 1.125 19.125 1.125ZM18 3.75C18 3.12975 18.5047 2.625 19.125 2.625C19.7453 2.625 20.25 3.12975 20.25 3.75C20.25 4.37025 19.7453 4.875 19.125 4.875C18.5047 4.875 18 4.37025 18 3.75ZM16.5806 7.62188C16.866 6.45413 17.9059 5.625 19.125 5.625C20.3441 5.625 21.384 6.45413 21.6694 7.62188C21 8.24213 20.1075 8.625 19.125 8.625C18.1425 8.625 17.25 8.24213 16.5806 7.62188ZM18 12C18 11.3798 18.5047 10.875 19.125 10.875C19.7453 10.875 20.25 11.3798 20.25 12C20.25 12.6202 19.7453 13.125 19.125 13.125C18.5047 13.125 18 12.6202 18 12ZM16.5806 15.8719C16.866 14.7041 17.9059 13.875 19.125 13.875C20.3441 13.875 21.384 14.7041 21.6694 15.8719C21 16.4921 20.1075 16.875 19.125 16.875C18.1425 16.875 17.25 16.4921 16.5806 15.8719ZM20.625 20.25L19.125 22.2499L17.625 20.25H18.375V17.5571C18.6195 17.5984 18.8689 17.625 19.125 17.625C19.3811 17.625 19.6305 17.5984 19.875 17.5571V20.25H20.625ZM22.2394 15.2108C22.0696 14.7967 21.8188 14.4209 21.5016 14.1052C21.1844 13.7896 20.8073 13.5406 20.3925 13.3729C20.5834 13.1986 20.7359 12.9866 20.8405 12.7503C20.9451 12.5139 20.9994 12.2584 21 12C21 10.9661 20.1589 10.125 19.125 10.125C18.0911 10.125 17.25 10.9661 17.25 12C17.25 12.5437 17.4866 13.0301 17.8575 13.3729C17.4426 13.5405 17.0655 13.7895 16.7483 14.1052C16.4311 14.4208 16.1803 14.7967 16.0106 15.2108C15.5957 14.5944 15.3743 13.8681 15.375 13.125C15.375 11.0573 17.0573 9.375 19.125 9.375C21.1927 9.375 22.875 11.0573 22.875 13.125C22.8757 13.8681 22.6543 14.5944 22.2394 15.2108ZM14.625 9V7.5C14.6243 7.2681 14.5518 7.04211 14.4175 6.85304C14.2832 6.66398 14.0937 6.52109 13.875 6.444V5.35125L12.8497 5.02275C12.7576 4.73529 12.6423 4.45576 12.5051 4.18687L12.9971 3.231L11.0194 1.25325L10.0635 1.74525C9.79456 1.60816 9.51504 1.49291 9.22762 1.40062L8.89837 0.375H6.10125L5.77275 1.40025C5.4825 1.49363 5.20275 1.60912 4.93687 1.74487L3.981 1.25288L2.00325 3.231L2.49525 4.18687C2.3581 4.45579 2.24285 4.73532 2.15062 5.02275L1.125 5.35162V6.44438C0.906288 6.52135 0.716772 6.66415 0.582481 6.85317C0.44819 7.04218 0.375711 7.26814 0.375 7.5V9C0.375 9.48825 0.689625 9.90075 1.125 10.056V12C1.125 12.4882 1.43963 12.9008 1.875 13.056V15C1.875 15.4882 2.18963 15.9008 2.625 16.056V18C2.625 18.6203 3.12975 19.125 3.75 19.125H4.125V23.625H10.875V19.125H11.25C11.8702 19.125 12.375 18.6203 12.375 18V16.056C12.5937 15.9789 12.7832 15.836 12.9175 15.647C13.0518 15.4579 13.1243 15.2319 13.125 15V13.056C13.3437 12.9789 13.5332 12.836 13.6675 12.647C13.8018 12.4579 13.8743 12.2319 13.875 12V10.056C14.0937 9.97891 14.2832 9.83602 14.4175 9.64696C14.5518 9.45789 14.6243 9.2319 14.625 9ZM2.7585 5.616L2.81325 5.42212C2.9175 5.05237 3.06337 4.6995 3.24563 4.37325L3.34387 4.19737L2.9205 3.37462L4.12462 2.17013L4.94775 2.59387L5.12325 2.49525C5.45477 2.31098 5.80665 2.166 6.17175 2.06325L6.36563 2.0085L6.64838 1.125H8.35125L8.63437 2.0085L8.82825 2.06325C9.19913 2.16825 9.55162 2.31375 9.87675 2.49525L10.0522 2.59387L10.8754 2.17013L12.0795 3.37462L11.6561 4.19737L11.7544 4.37325C11.937 4.6995 12.0825 5.05237 12.1868 5.42212L12.2415 5.616L13.125 5.89838V6.375H11.6059C11.4157 4.27575 9.648 2.625 7.5 2.625C5.352 2.625 3.58425 4.27575 3.39412 6.375H1.875V5.89838L2.7585 5.616ZM10.095 6.375C9.912 5.10525 8.81962 4.125 7.5 4.125C6.18038 4.125 5.088 5.10525 4.905 6.375H4.14713C4.33463 4.69012 5.766 3.375 7.5 3.375C9.234 3.375 10.6657 4.69012 10.8529 6.375H10.095ZM9.33712 6.375H5.66288C5.83725 5.52037 6.59438 4.875 7.5 4.875C8.40563 4.875 9.16275 5.52037 9.33712 6.375ZM10.125 22.875H4.875V19.125H10.125V22.875ZM11.25 18.375H3.75C3.54338 18.375 3.375 18.207 3.375 18V16.125H11.625V18C11.625 18.207 11.4566 18.375 11.25 18.375ZM12 15.375H3C2.79338 15.375 2.625 15.207 2.625 15V13.125H12.375V15C12.375 15.207 12.2066 15.375 12 15.375ZM12.75 12.375H2.25C2.04338 12.375 1.875 12.207 1.875 12V10.125H13.125V12C13.125 12.207 12.9566 12.375 12.75 12.375ZM13.875 9C13.875 9.207 13.7066 9.375 13.5 9.375H1.5C1.29338 9.375 1.125 9.207 1.125 9V7.5C1.125 7.293 1.29338 7.125 1.5 7.125H13.5C13.7066 7.125 13.875 7.293 13.875 7.5V9Z" fill="#FD474D"/>
<path d="M1.875 7.875H2.625V8.625H1.875V7.875ZM3.375 7.875H4.125V8.625H3.375V7.875ZM4.875 7.875H5.625V8.625H4.875V7.875ZM8.625 10.875H9.375V11.625H8.625V10.875ZM10.125 10.875H10.875V11.625H10.125V10.875ZM11.625 10.875H12.375V11.625H11.625V10.875ZM4.875 13.875H5.625V14.625H4.875V13.875ZM6.375 13.875H7.125V14.625H6.375V13.875ZM3.375 13.875H4.125V14.625H3.375V13.875ZM7.125 16.875H7.875V17.625H7.125V16.875ZM8.625 16.875H9.375V17.625H8.625V16.875ZM10.125 16.875H10.875V17.625H10.125V16.875Z" fill="#FD474D"/>
</g>
<defs>
<clipPath id="clip0_186_2039">
<rect width="24" height="24" fill="white"/>
</clipPath>
</defs>
</svg>
