<svg width="24" height="24" viewBox="0 0 24 24" fill="none" xmlns="http://www.w3.org/2000/svg">
<g clip-path="url(#clip0_113_1183)">
<path d="M23.3908 1.50369L20.9916 0.160093C20.8118 0.0575757 20.6084 0.00366211 20.4014 0.00366211C20.1944 0.00366211 19.991 0.0575757 19.8112 0.160093L17.4112 1.50649C17.2258 1.61007 17.0714 1.76126 16.964 1.94443C16.8566 2.1276 16.7999 2.33613 16.8 2.54849V3.60009H7.20001V2.54849C7.20077 2.33586 7.1447 2.12688 7.03759 1.94319C6.93048 1.7595 6.77624 1.60776 6.59081 1.50369L4.19161 0.160093C4.0118 0.0575757 3.80839 0.00366211 3.60141 0.00366211C3.39443 0.00366211 3.19102 0.0575757 3.01121 0.160093L0.611208 1.50649C0.425823 1.61007 0.27144 1.76126 0.163997 1.94443C0.0565536 2.1276 -5.73777e-05 2.33613 7.68305e-06 2.54849V5.45169C-0.000755272 5.66433 0.0553179 5.87331 0.162425 6.057C0.269531 6.24069 0.42378 6.39242 0.609208 6.49649L3.00921 7.84249C3.07041 7.87409 3.13441 7.90009 3.20001 7.92009V16.0801C3.13481 16.1001 3.07201 16.1261 3.01121 16.1573L0.611208 17.5037C0.425407 17.6075 0.270756 17.7591 0.163287 17.9428C0.055818 18.1265 -0.000556557 18.3357 7.68305e-06 18.5485V21.4517C-0.000755272 21.6643 0.0553179 21.8733 0.162425 22.057C0.269531 22.2407 0.42378 22.3924 0.609208 22.4965L3.00921 23.8425C3.37521 24.0505 3.82361 24.0505 4.18961 23.8425L6.58961 22.4957C6.77514 22.3918 6.92955 22.2403 7.03687 22.0568C7.14419 21.8732 7.20051 21.6643 7.20001 21.4517V20.4001H16.8V21.4517C16.7992 21.6643 16.8553 21.8733 16.9624 22.057C17.0695 22.2407 17.2238 22.3924 17.4092 22.4965L19.8092 23.8425C20.1752 24.0505 20.6236 24.0505 20.9896 23.8425L23.3896 22.4957C23.5751 22.3918 23.7296 22.2403 23.8369 22.0568C23.9442 21.8732 24.0005 21.6643 24 21.4517V18.5485C24.0008 18.3359 23.9447 18.1269 23.8376 17.9432C23.7305 17.7595 23.5762 17.6078 23.3908 17.5037L20.9908 16.1581C20.9296 16.1265 20.8658 16.1004 20.8 16.0801V7.92009C20.8652 7.90009 20.928 7.87449 20.9888 7.84329L23.3888 6.49649C23.5746 6.39268 23.7293 6.24106 23.8367 6.05735C23.9442 5.87364 24.0006 5.66453 24 5.45169V2.54849C24.0008 2.33586 23.9447 2.12688 23.8376 1.94319C23.7305 1.7595 23.5762 1.60776 23.3908 1.50369ZM17.8 2.20009L20.206 0.852093C20.2659 0.817339 20.334 0.799201 20.4033 0.799553C20.4725 0.799904 20.5405 0.818732 20.6 0.854093L23 2.20249C23.0107 2.20954 23.021 2.21715 23.0308 2.22529L20.7432 3.50849C20.6388 3.56849 20.5204 3.60009 20.4 3.60009C20.2792 3.60009 20.16 3.56809 20.0556 3.50729L17.77 2.22729C17.7794 2.2176 17.7894 2.20852 17.8 2.20009ZM1.00001 2.20009L3.40601 0.852093C3.46592 0.817339 3.53402 0.799201 3.60328 0.799553C3.67254 0.799904 3.74045 0.818732 3.80001 0.854093L6.20001 2.20249C6.21067 2.20954 6.22095 2.21715 6.23081 2.22529L3.94321 3.50849C3.83858 3.56872 3.71992 3.60028 3.59919 3.6C3.47847 3.59972 3.35996 3.5676 3.25561 3.50689L0.970008 2.22689C0.979436 2.21734 0.989456 2.20839 1.00001 2.20009ZM1.00001 5.79649C0.938733 5.76203 0.887843 5.71173 0.85266 5.65086C0.817477 5.59 0.799292 5.52079 0.800008 5.45049V3.04809L2.86041 4.20369C2.96761 4.26409 3.08161 4.31169 3.20001 4.34489V5.60009C3.20001 5.70618 3.24215 5.80792 3.31717 5.88294C3.39218 5.95795 3.49392 6.00009 3.60001 6.00009C3.70609 6.00009 3.80784 5.95795 3.88285 5.88294C3.95787 5.80792 4.00001 5.70618 4.00001 5.60009V4.34489C4.11761 4.31209 4.23081 4.26489 4.33721 4.20489L6.40001 3.04809V5.45169C6.40077 5.52216 6.38262 5.59155 6.34744 5.65262C6.31226 5.71368 6.26135 5.7642 6.20001 5.79889L3.79441 7.14809C3.73489 7.1825 3.66736 7.20062 3.59861 7.20062C3.52986 7.20062 3.46233 7.1825 3.40281 7.14809L1.00001 5.79649ZM1.00001 18.2001L3.40601 16.8521C3.46592 16.8173 3.53402 16.7992 3.60328 16.7996C3.67254 16.7999 3.74045 16.8187 3.80001 16.8541L6.20001 18.2025C6.21067 18.2095 6.22095 18.2172 6.23081 18.2253L3.94321 19.5085C3.83858 19.5687 3.71992 19.6003 3.59919 19.6C3.47847 19.5997 3.35996 19.5676 3.25561 19.5069L0.970008 18.2269C0.979436 18.2173 0.989456 18.2084 1.00001 18.2001ZM6.40001 21.4517C6.40077 21.5222 6.38262 21.5915 6.34744 21.6526C6.31226 21.7137 6.26135 21.7642 6.20001 21.7989L3.79441 23.1481C3.73485 23.1824 3.66733 23.2004 3.59861 23.2004C3.52988 23.2004 3.46237 23.1824 3.40281 23.1481L1.00001 21.7977C0.938733 21.7632 0.887843 21.7129 0.85266 21.6521C0.817477 21.5912 0.799292 21.522 0.800008 21.4517V19.0481L2.86041 20.2037C2.96761 20.2641 3.08161 20.3117 3.20001 20.3449V21.6001C3.20001 21.7062 3.24215 21.8079 3.31717 21.8829C3.39218 21.958 3.49392 22.0001 3.60001 22.0001C3.70609 22.0001 3.80784 21.958 3.88285 21.8829C3.95787 21.8079 4.00001 21.7062 4.00001 21.6001V20.3449C4.11761 20.3121 4.23081 20.2649 4.33721 20.2049L6.40001 19.0481V21.4517ZM16.8 18.5485V19.6001H7.20001V18.5485C7.20077 18.3359 7.1447 18.1269 7.03759 17.9432C6.93048 17.7595 6.77624 17.6078 6.59081 17.5037L4.19081 16.1581C4.12963 16.1265 4.06578 16.1004 4.00001 16.0801V7.92009C4.06521 7.90009 4.12801 7.87449 4.18881 7.84329L6.58881 6.49649C6.77461 6.39268 6.92926 6.24106 7.03673 6.05735C7.1442 5.87364 7.20057 5.66453 7.20001 5.45169V4.40009H16.8V5.45169C16.7992 5.66433 16.8553 5.87331 16.9624 6.057C17.0695 6.24069 17.2238 6.39242 17.4092 6.49649L19.8092 7.84249C19.8704 7.87409 19.9344 7.90009 20 7.92009V16.0801C19.9348 16.1001 19.872 16.1261 19.8112 16.1573L17.4112 17.5037C17.2254 17.6075 17.0708 17.7591 16.9633 17.9428C16.8558 18.1265 16.7994 18.3357 16.8 18.5485ZM23.2 21.4517C23.2008 21.5222 23.1826 21.5915 23.1474 21.6526C23.1123 21.7137 23.0614 21.7642 23 21.7989L20.5944 23.1481C20.5349 23.1824 20.4673 23.2004 20.3986 23.2004C20.3299 23.2004 20.2624 23.1824 20.2028 23.1481L17.8 21.7977C17.7387 21.7632 17.6878 21.7129 17.6527 21.6521C17.6175 21.5912 17.5993 21.522 17.6 21.4517V19.0481L19.6604 20.2037C19.7676 20.2641 19.8816 20.3117 20 20.3449V21.6001C20 21.7062 20.0422 21.8079 20.1172 21.8829C20.1922 21.958 20.2939 22.0001 20.4 22.0001C20.5061 22.0001 20.6078 21.958 20.6829 21.8829C20.7579 21.8079 20.8 21.7062 20.8 21.6001V20.3449C20.9176 20.3121 21.0308 20.2649 21.1372 20.2049L23.2 19.0481V21.4517ZM23 18.2025C23.0107 18.2095 23.021 18.2172 23.0308 18.2253L20.7424 19.5085C20.6384 19.5685 20.52 19.5997 20.4 19.6001C20.2792 19.6001 20.16 19.5681 20.0556 19.5073L17.77 18.2273C17.7802 18.2185 17.7908 18.2103 17.802 18.2029L20.2072 16.8537C20.2657 16.8193 20.3322 16.8008 20.4 16.8001C20.4704 16.8001 20.5392 16.8189 20.6 16.8541L23 18.2025ZM23.2 5.45169C23.2008 5.52216 23.1826 5.59155 23.1474 5.65262C23.1123 5.71368 23.0614 5.7642 23 5.79889L20.5944 7.14809C20.5349 7.1825 20.4674 7.20062 20.3986 7.20062C20.3299 7.20062 20.2623 7.1825 20.2028 7.14809L17.8 5.79769C17.7387 5.76323 17.6878 5.71293 17.6527 5.65206C17.6175 5.5912 17.5993 5.52199 17.6 5.45169V3.04809L19.6604 4.20369C19.7676 4.26409 19.8816 4.31169 20 4.34489V5.60009C20 5.70618 20.0422 5.80792 20.1172 5.88294C20.1922 5.95795 20.2939 6.00009 20.4 6.00009C20.5061 6.00009 20.6078 5.95795 20.6829 5.88294C20.7579 5.80792 20.8 5.70618 20.8 5.60009V4.34489C20.9176 4.31209 21.0308 4.26489 21.1372 4.20489L23.2 3.04809V5.45169Z" fill="#FD474D"/>
<path d="M15.1109 11.1517C14.7055 10.7466 14.1848 10.4769 13.6201 10.3797C13.5228 9.81497 13.2531 9.29421 12.8481 8.88889L11.1509 7.19169C10.8936 6.93217 10.5875 6.72621 10.2502 6.58574C9.91287 6.44526 9.55105 6.37306 9.18565 6.37329H9.17285C8.61931 6.37333 8.0782 6.53744 7.61789 6.84489C7.15758 7.15233 6.79872 7.58932 6.58666 8.10063C6.3746 8.61194 6.31886 9.17464 6.42647 9.71762C6.53408 10.2606 6.80021 10.7595 7.19125 11.1513L8.88845 12.8485C9.29377 13.2536 9.81453 13.5232 10.3793 13.6205C10.4765 14.1852 10.7462 14.706 11.1513 15.1113L12.8485 16.8085C13.3736 17.3336 14.0858 17.6286 14.8285 17.6286C15.5711 17.6286 16.2833 17.3336 16.8085 16.8085C17.3336 16.2834 17.6286 15.5711 17.6286 14.8285C17.6286 14.0858 17.3336 13.3736 16.8085 12.8485L15.1109 11.1517ZM13.4141 12.8485L15.1109 14.5457C15.1837 14.6211 15.224 14.7222 15.2231 14.8271C15.2222 14.9319 15.1801 15.0323 15.106 15.1064C15.0318 15.1806 14.9315 15.2227 14.8266 15.2236C14.7217 15.2245 14.6207 15.1842 14.5453 15.1113L12.8485 13.4145C12.7734 13.3395 12.7312 13.2377 12.7312 13.1316C12.7311 13.0255 12.7732 12.9237 12.8483 12.8487C12.9233 12.7736 13.025 12.7314 13.1311 12.7314C13.2372 12.7314 13.339 12.7735 13.4141 12.8485ZM10.5853 11.1513L8.88845 9.45449C8.81559 9.37905 8.77527 9.27801 8.77618 9.17313C8.77709 9.06825 8.81916 8.96793 8.89332 8.89376C8.96749 8.8196 9.06781 8.77753 9.17269 8.77662C9.27757 8.77571 9.37861 8.81603 9.45405 8.88889L11.1509 10.5857C11.1891 10.6226 11.2195 10.6667 11.2405 10.7155C11.2615 10.7643 11.2725 10.8168 11.273 10.8699C11.2734 10.923 11.2633 10.9757 11.2432 11.0249C11.2231 11.074 11.1934 11.1187 11.1558 11.1562C11.1183 11.1938 11.0736 11.2235 11.0244 11.2436C10.9753 11.2637 10.9226 11.2739 10.8695 11.2734C10.8164 11.2729 10.7639 11.2619 10.7151 11.2409C10.6663 11.22 10.6222 11.1895 10.5853 11.1513ZM16.2421 16.2425C15.867 16.6174 15.3584 16.8281 14.8281 16.8281C14.2977 16.8281 13.7891 16.6174 13.4141 16.2425L11.7169 14.5457C11.344 14.1696 11.1347 13.6613 11.1347 13.1317C11.1347 12.602 11.344 12.0938 11.7169 11.7177C11.9415 11.4924 12.0676 11.1872 12.0676 10.8691C12.0676 10.551 11.9415 10.2458 11.7169 10.0205L10.0197 8.32289C9.90854 8.20998 9.77618 8.12019 9.63019 8.0587C9.48421 7.9972 9.32749 7.96522 9.16909 7.96459C9.01068 7.96397 8.85371 7.99471 8.70725 8.05505C8.56078 8.11539 8.42771 8.20413 8.31571 8.31615C8.20371 8.42818 8.115 8.56127 8.0547 8.70775C7.99439 8.85423 7.96369 9.0112 7.96435 9.16961C7.96502 9.32802 7.99704 9.48473 8.05857 9.6307C8.1201 9.77667 8.20992 9.90901 8.32285 10.0201L10.0197 11.7173C10.1705 11.8661 10.3585 11.9721 10.5637 12.0241C10.4573 12.2703 10.3874 12.5306 10.3561 12.7969C10.0151 12.7087 9.70374 12.5313 9.45405 12.2829L7.75725 10.5857C7.47861 10.3063 7.28882 9.95081 7.21176 9.56384C7.13471 9.17688 7.17384 8.77577 7.32422 8.41099C7.47461 8.04621 7.72953 7.73406 8.05691 7.51382C8.38429 7.29359 8.76949 7.17511 9.16405 7.17329H9.18205C9.44297 7.17305 9.70134 7.22458 9.94221 7.32489C10.1831 7.42521 10.4016 7.57231 10.5853 7.75769L12.2825 9.45449C12.6554 9.83063 12.8646 10.3388 12.8646 10.8685C12.8646 11.3981 12.6554 11.9064 12.2825 12.2825C12.0579 12.5078 11.9317 12.813 11.9317 13.1311C11.9317 13.4492 12.0579 13.7544 12.2825 13.9797L13.9797 15.6765C14.0908 15.7894 14.2231 15.8792 14.3691 15.9407C14.5151 16.0022 14.6718 16.0342 14.8302 16.0348C14.9886 16.0354 15.1456 16.0047 15.2921 15.9443C15.4385 15.884 15.5716 15.7953 15.6836 15.6832C15.7956 15.5712 15.8843 15.4381 15.9446 15.2916C16.0049 15.1452 16.0356 14.9882 16.035 14.8298C16.0343 14.6714 16.0023 14.5147 15.9407 14.3687C15.8792 14.2227 15.7894 14.0904 15.6765 13.9793L13.9797 12.2829C13.8289 12.134 13.6411 12.0281 13.4357 11.9761C13.542 11.7299 13.6119 11.4696 13.6433 11.2033C13.9845 11.2913 14.2953 11.4689 14.5453 11.7173L16.2421 13.4145C16.617 13.7895 16.8276 14.2982 16.8276 14.8285C16.8276 15.3588 16.617 15.8674 16.2421 16.2425Z" fill="#FD474D"/>
</g>
<defs>
<clipPath id="clip0_113_1183">
<rect width="24" height="24" fill="white"/>
</clipPath>
</defs>
</svg>
