<svg width="24" height="24" viewBox="0 0 24 24" fill="none" xmlns="http://www.w3.org/2000/svg">
<g clip-path="url(#clip0_113_1362)">
<path d="M18.8033 9.99995H20.0033C20.1094 9.99995 20.2111 9.95781 20.2861 9.88279C20.3611 9.80778 20.4033 9.70604 20.4033 9.59995V8.39995C20.4033 8.29386 20.3611 8.19212 20.2861 8.11711C20.2111 8.04209 20.1094 7.99995 20.0033 7.99995C19.8972 7.99995 19.7954 8.04209 19.7204 8.11711C19.6454 8.19212 19.6033 8.29386 19.6033 8.39995V9.19995H18.8033C18.6972 9.19995 18.5954 9.24209 18.5204 9.31711C18.4454 9.39212 18.4033 9.49386 18.4033 9.59995C18.4033 9.70604 18.4454 9.80778 18.5204 9.88279C18.5954 9.95781 18.6972 9.99995 18.8033 9.99995ZM9.39297 8.39995C10.2765 8.39995 10.993 7.68355 10.993 6.79995C10.993 5.91635 10.2765 5.19995 9.39297 5.19995C8.50917 5.19995 7.79297 5.91635 7.79297 6.79995C7.79297 7.68355 8.50917 8.39995 9.39297 8.39995ZM9.39297 5.99995C9.83472 5.99995 10.193 6.35815 10.193 6.79995C10.193 7.24175 9.83472 7.59995 9.39297 7.59995C8.95097 7.59995 8.59297 7.24175 8.59297 6.79995C8.59297 6.35815 8.95097 5.99995 9.39297 5.99995Z" fill="#FD474D"/>
<path d="M0.655279 8.2672C0.824704 8.35468 1.01265 8.40022 1.20333 8.4C1.45174 8.39997 1.69395 8.3224 1.89615 8.17811C2.09836 8.03382 2.25047 7.83 2.33128 7.5951L5.47698 7.5465L4.92818 8C4.85499 8.06011 4.80552 8.14426 4.7886 8.23744C4.77167 8.33063 4.78839 8.4268 4.83578 8.5088L5.58328 9.8L5.59963 11.6H3.60333C3.57993 11.6024 3.55668 11.607 3.53403 11.6141C3.34513 11.0581 2.78168 10.7203 2.20218 10.8161C1.62288 10.9117 1.19788 11.4127 1.19788 12C1.19788 12.5873 1.62288 13.0883 2.20218 13.184C2.78168 13.2797 3.34518 12.942 3.53403 12.386C3.55668 12.393 3.57993 12.3976 3.60333 12.4H6.00333C6.10998 12.4 6.21233 12.3574 6.28733 12.2816C6.32455 12.2441 6.35396 12.1996 6.37387 12.1507C6.39379 12.1017 6.4038 12.0493 6.40333 11.9965L6.38498 9.96915L7.66488 9.48925C7.7506 9.54474 7.83885 9.59622 7.92933 9.64355L8.19923 11.2653C8.21486 11.3587 8.26313 11.4435 8.33545 11.5047C8.40778 11.5658 8.49946 11.5994 8.59418 11.5992H8.80333V13.5992H7.60333C7.49724 13.5992 7.3955 13.6414 7.32049 13.7164C7.24547 13.7914 7.20333 13.8932 7.20333 13.9992V19.8344L3.72053 23.3172C3.66461 23.3731 3.62652 23.4444 3.6111 23.522C3.59567 23.5996 3.60359 23.68 3.63386 23.7531C3.66413 23.8261 3.71538 23.8886 3.78115 23.9326C3.84691 23.9765 3.92423 24 4.00333 24H16.8033C16.8824 24 16.9597 23.9766 17.0255 23.9326C17.0912 23.8887 17.1425 23.8262 17.1727 23.7531C17.2029 23.68 17.2109 23.5996 17.1955 23.522C17.1801 23.4445 17.1421 23.3732 17.0862 23.3172L14.4033 20.6344V18.5107L15.2988 17.0191C16.8098 17.9308 17.7233 18.4 18.0033 18.4H20.4033C20.5094 18.4 20.6112 18.3579 20.6862 18.2828C20.7612 18.2078 20.8033 18.1061 20.8033 18V15.7656L21.4858 15.0832C21.5607 15.0079 21.6029 14.9062 21.6033 14.8V13.6H22.1877C22.321 13.6 22.4522 13.5667 22.5693 13.5031C22.6864 13.4395 22.7859 13.3477 22.8585 13.236C22.9311 13.1242 22.9747 12.9961 22.9853 12.8633C22.9958 12.7304 22.9731 12.597 22.919 12.4752L21.6752 9.6752C22.1472 9.11318 22.4052 8.40228 22.4033 7.66835C22.4123 5.0209 20.9153 2.59885 18.5434 1.42285L17.3832 0.842C17.298 0.799525 17.2005 0.788838 17.1081 0.811862C17.0157 0.834885 16.9346 0.890108 16.8793 0.9676L16.7117 1.2H14.0033V0.4C14.0033 0.293913 13.9612 0.192172 13.8862 0.117157C13.8112 0.0421427 13.7094 0 13.6033 0L9.60333 0C9.49724 0 9.3955 0.0421427 9.32049 0.117157C9.24547 0.192172 9.20333 0.293913 9.20333 0.4V2H8.59303C8.49827 1.99992 8.40656 2.03349 8.33424 2.09472C8.26192 2.15596 8.21368 2.24087 8.19813 2.33435L7.92818 3.95565C7.83763 4.00286 7.74938 4.05435 7.66373 4.10995L6.12333 3.5328C6.03468 3.49953 5.93709 3.4988 5.84796 3.53075C5.75882 3.56269 5.68391 3.62524 5.63658 3.70725L5.23328 4.40605C5.22293 4.40605 5.21453 4.4 5.20418 4.4H2.80333V3.12635C3.35433 2.93165 3.68483 2.36815 3.58598 1.7922C3.48713 1.216 2.98773 0.7951 2.40333 0.7951C1.81878 0.7951 1.31933 1.216 1.22053 1.7922C1.12173 2.3682 1.45238 2.93165 2.00333 3.12635V4.8C2.00333 4.90609 2.04547 5.00783 2.12049 5.08284C2.1955 5.15786 2.29724 5.2 2.40333 5.2H4.79733C4.77932 5.27223 4.78203 5.34807 4.80517 5.41882C4.82831 5.48957 4.87092 5.55237 4.92813 5.6L6.19688 6.64475C6.19688 6.674 6.19688 6.7039 6.19458 6.7336L2.32973 6.79315C2.24132 6.54639 2.07453 6.33537 1.85487 6.19235C1.63521 6.04933 1.37476 5.98217 1.11333 6.00115C0.851903 6.02004 0.603857 6.12403 0.40711 6.29721C0.210364 6.47039 0.0757434 6.70324 0.0238289 6.96015C-0.0281562 7.21708 0.00544083 7.48396 0.119482 7.71999C0.233524 7.95602 0.421733 8.1482 0.655329 8.26715L0.655279 8.2672ZM2.40333 12.4C2.29724 12.4 2.1955 12.3578 2.12049 12.2828C2.04548 12.2078 2.00335 12.1061 2.00335 12C2.00336 11.8939 2.04551 11.7921 2.12053 11.7171C2.19555 11.6421 2.29729 11.6 2.40338 11.6C2.50947 11.6 2.61121 11.6421 2.68622 11.7172C2.76124 11.7922 2.80338 11.8939 2.80338 12C2.80338 12.1061 2.76124 12.2078 2.68622 12.2828C2.61121 12.3579 2.50942 12.4 2.40333 12.4ZM2.40333 1.6C2.50942 1.6 2.61116 1.64214 2.68617 1.71716C2.76119 1.79217 2.80333 1.89391 2.80333 2C2.80333 2.10609 2.76119 2.20783 2.68617 2.28284C2.61116 2.35786 2.50942 2.4 2.40333 2.4C2.29724 2.4 2.1955 2.35786 2.12049 2.28284C2.04547 2.20783 2.00333 2.10609 2.00333 2C2.00333 1.89391 2.04547 1.79217 2.12049 1.71716C2.1955 1.64214 2.29724 1.6 2.40333 1.6ZM9.60333 11.6H10.193C10.2876 11.6 10.3792 11.5664 10.4514 11.5053C10.5236 11.4441 10.5717 11.3593 10.5873 11.266L10.8576 9.64435C10.9481 9.5972 11.0362 9.54571 11.1217 9.49005L12.6629 10.0672C12.7516 10.1005 12.8491 10.1012 12.9383 10.0692C13.0274 10.0373 13.1023 9.97475 13.1496 9.89275L13.319 9.6H15.2034C15.2329 9.59767 15.262 9.59176 15.2901 9.5824L16.0034 10.5332V11.2H14.4034V12H15.3262L14.255 12.4283C14.1807 12.458 14.117 12.5093 14.0721 12.5755C14.0273 12.6418 14.0033 12.72 14.0034 12.8V13.6H9.60338L9.60333 11.6ZM13.9496 5.09275L13.7809 4.8H14.8034V6.4H12.8877L13.8576 5.6C13.9303 5.53989 13.9795 5.45601 13.9963 5.36318C14.0131 5.27036 13.9966 5.17457 13.9496 5.09275ZM14.8033 7.2V8.8H13.7809L13.9496 8.50725C13.9966 8.42543 14.0131 8.32964 13.9963 8.23682C13.9795 8.14399 13.9303 8.06011 13.8576 8L12.8877 7.2H14.8033ZM12.1205 17.0828L13.6033 18.5656V18.8H11.2033V14.4H12.0033V16.8C12.0033 16.906 12.0455 17.0078 12.1205 17.0828ZM9.58503 22.4H9.60333V22.3793L11.1045 20.6637C11.1683 20.5906 11.2034 20.4969 11.2033 20.4V19.6H12.0033V23.2H8.88323L9.58503 22.4ZM4.96898 23.2L7.88618 20.2828C7.96118 20.2078 8.00331 20.1061 8.00333 20V14.4H10.4033V20.2496L9.60333 21.1641V19.2H8.80333V22.0801L7.82173 23.2H4.96898ZM15.8377 23.2H12.8033V19.6H13.6033V20.8C13.6033 20.906 13.6455 21.0078 13.7205 21.0828L15.8377 23.2ZM13.9232 17.7553L12.8033 16.6352V14.4H14.0033V16C14.0034 16.0678 14.0206 16.1345 14.0535 16.1939C14.0864 16.2532 14.1337 16.3032 14.1912 16.3393C14.3405 16.4328 14.4752 16.5153 14.616 16.6019L13.9232 17.7553ZM17.3301 1.71035L18.1854 2.1385C20.2856 3.1795 21.6112 5.3242 21.6034 7.66835C21.6042 7.97469 21.5443 8.27815 21.4271 8.56118C21.3099 8.8442 21.1377 9.10117 20.9205 9.3172C20.8634 9.37433 20.8249 9.44745 20.8101 9.5269C20.7953 9.60636 20.8049 9.68843 20.8377 9.7623L22.1877 12.8H21.2033C21.0972 12.8 20.9955 12.8421 20.9205 12.9172C20.8455 12.9922 20.8033 13.0939 20.8033 13.2V14.4H20.7346C20.4283 14.4009 20.1249 14.341 19.842 14.2238C19.559 14.1066 19.3021 13.9344 19.0862 13.7172C19.0108 13.644 18.9097 13.6034 18.8046 13.6041C18.6995 13.6049 18.599 13.647 18.5247 13.7213C18.4504 13.7956 18.4083 13.8961 18.4075 14.0012C18.4067 14.1063 18.4473 14.2074 18.5205 14.2828C18.9946 14.7584 19.6102 15.0672 20.2748 15.1629L20.1205 15.3172C20.0455 15.3922 20.0034 15.4939 20.0033 15.6V17.6L18.0412 17.6024C17.1171 17.1749 16.2248 16.6816 15.3713 16.1264L15.3693 16.1244H15.3668C15.1785 16.01 14.9897 15.8939 14.8033 15.7783V13.0707L16.5518 12.3717C16.6261 12.342 16.6897 12.2907 16.7346 12.2244C16.7794 12.1582 16.8034 12.08 16.8033 12V10.4C16.8033 10.3135 16.7752 10.2293 16.7233 10.16L15.6033 8.6668V4.12795L17.3301 1.71035ZM10.0033 0.8H13.2033V1.6C13.2033 1.70609 13.2455 1.80783 13.3205 1.88284C13.3955 1.95786 13.4972 2 13.6033 2H16.1405L14.8781 3.7676C14.8293 3.83525 14.8032 3.91659 14.8033 4H13.319L13.1497 3.70725C13.1023 3.62525 13.0275 3.56271 12.9383 3.53077C12.8492 3.49882 12.7516 3.49954 12.663 3.5328L11.1233 4.11C11.0378 4.05434 10.9497 4.00285 10.8592 3.9557L10.5873 2.33405C10.5718 2.24072 10.5236 2.15593 10.4514 2.09477C10.3792 2.0336 10.2877 2.00002 10.193 2H10.0034L10.0033 0.8ZM5.69808 5.2L6.15923 4.4L7.57973 4.9324C7.64246 4.95588 7.71008 4.96322 7.77638 4.95377C7.84269 4.94432 7.90556 4.91837 7.95923 4.8783C8.10981 4.76484 8.27324 4.66951 8.44613 4.5943C8.50773 4.56786 8.5617 4.52636 8.60306 4.4736C8.64442 4.42084 8.67185 4.35853 8.68283 4.2924L8.93168 2.8H9.85413L10.103 4.29275C10.1139 4.3589 10.1414 4.42123 10.1827 4.47401C10.2241 4.52678 10.2781 4.5683 10.3397 4.59475C10.5125 4.67016 10.6759 4.76547 10.8266 4.87875C10.8802 4.9188 10.943 4.94474 11.0092 4.95418C11.0755 4.96363 11.143 4.95628 11.2057 4.9328L12.6266 4.4L13.0873 5.2L11.9172 6.1629C11.8655 6.20555 11.8253 6.26053 11.8003 6.32278C11.7754 6.38503 11.7665 6.45256 11.7744 6.51915C11.799 6.70584 11.799 6.89496 11.7744 7.08165C11.7665 7.14827 11.7754 7.21582 11.8003 7.2781C11.8253 7.34038 11.8655 7.3954 11.9172 7.4381L13.0873 8.4L12.6266 9.2L11.2057 8.6676C11.143 8.64413 11.0755 8.63679 11.0092 8.64624C10.943 8.65569 10.8802 8.68164 10.8266 8.7217C10.6759 8.83498 10.5125 8.93029 10.3397 9.0057C10.2781 9.03214 10.2241 9.07365 10.1827 9.1264C10.1414 9.17916 10.114 9.24147 10.103 9.3076L9.85413 10.8H8.93128L8.68328 9.30725C8.67231 9.24109 8.64488 9.17876 8.60351 9.12599C8.56214 9.07321 8.50815 9.03169 8.44653 9.00525C8.27366 8.93008 8.11028 8.83476 7.95978 8.72125C7.90609 8.68116 7.84319 8.65519 7.77686 8.64575C7.71052 8.63631 7.64287 8.64368 7.58013 8.6672L6.15923 9.2L5.69808 8.4L6.86818 7.4371C6.87518 7.43025 6.88208 7.42285 6.88853 7.41525C6.89633 7.4078 6.90353 7.4002 6.91053 7.392C6.94059 7.35956 6.9649 7.32225 6.98243 7.28165L6.98498 7.27715C7.00166 7.23307 7.01033 7.18637 7.01058 7.13925C7.01193 7.1336 7.01308 7.12775 7.01368 7.12205C7.01368 7.1172 7.01138 7.1133 7.01098 7.1084C7.01058 7.1035 7.01098 7.09005 7.01098 7.0809C6.98637 6.89421 6.98637 6.70509 7.01098 6.5184C7.01886 6.45174 7.00988 6.38417 6.98486 6.32188C6.95984 6.25959 6.91959 6.20458 6.86778 6.1619L5.69808 5.2ZM0.847679 7.0172C0.871287 6.96995 0.90412 6.92791 0.944242 6.89356C0.984363 6.85921 1.03096 6.83325 1.08128 6.8172C1.17989 6.7921 1.28437 6.80553 1.37343 6.85476C1.46249 6.90398 1.52944 6.9853 1.56065 7.08215C1.59187 7.17901 1.58499 7.28412 1.54143 7.37608C1.49787 7.46804 1.42089 7.53995 1.32618 7.57715C1.27617 7.59323 1.22347 7.5993 1.17111 7.59502C1.11875 7.59074 1.06775 7.57618 1.02101 7.55219C0.974277 7.52819 0.932725 7.49523 0.898729 7.45517C0.864733 7.41512 0.838959 7.36876 0.822879 7.31875C0.790983 7.2189 0.799899 7.11049 0.847679 7.0172Z" fill="#FD474D"/>
<path d="M8.80273 16H9.60273V16.8H8.80273V16ZM8.80273 17.6H9.60273V18.4H8.80273V17.6ZM11.2027 11.2H12.0027V12H11.2027V11.2ZM12.8027 11.2H13.6027V12H12.8027V11.2ZM16.4027 4H17.2027V5.6H16.4027V4ZM16.4027 6.4H17.2027V7.2H16.4027V6.4ZM16.4027 8H17.2027V8.8H16.4027V8Z" fill="#FD474D"/>
</g>
<defs>
<clipPath id="clip0_113_1362">
<rect width="24" height="24" fill="white"/>
</clipPath>
</defs>
</svg>
