<svg width="24" height="24" viewBox="0 0 24 24" fill="none" xmlns="http://www.w3.org/2000/svg">
<path d="M20.9272 15.1422C20.2312 15.1422 19.6552 15.6222 19.4872 16.2702H17.9992V13.5342H18.2152C20.6632 13.5342 22.7992 11.3982 22.7992 8.97425C22.7992 6.86225 21.5752 5.20625 19.5832 4.60625C19.3912 3.07025 18.3832 1.82225 16.9192 1.27025C15.4552 0.718249 13.8472 1.03025 12.6952 2.03825C11.5672 1.53425 10.1752 1.53425 8.92722 2.06225C7.84722 2.51825 7.03122 3.33425 6.64722 4.31825C5.92722 4.27025 5.20722 4.51025 4.65522 5.01425C4.10322 5.51825 3.79122 6.19025 3.79122 6.91025C2.27922 7.27025 1.19922 8.59025 1.19922 10.1982C1.19922 12.0222 2.73522 13.5582 4.55922 13.5582H5.99922V16.2702H4.51122C4.34322 15.6222 3.76722 15.1422 3.07122 15.1422C2.25522 15.1422 1.58322 15.8142 1.58322 16.6302C1.58322 17.4462 2.25522 18.1182 3.07122 18.1182C3.76722 18.1182 4.34322 17.6382 4.51122 16.9902H6.35922C6.55122 16.9902 6.71922 16.8222 6.71922 16.6302V13.5342H8.83122V17.2542L7.43922 18.6462C7.22322 18.5022 6.95922 18.4302 6.67122 18.4302C5.85522 18.4302 5.18322 19.1022 5.18322 19.9182C5.18322 20.7342 5.85522 21.4062 6.67122 21.4062C7.48722 21.4062 8.15922 20.7342 8.15922 19.9182C8.15922 19.6302 8.08722 19.3902 7.94322 19.1502L9.40722 17.6862C9.47922 17.6142 9.50322 17.5182 9.50322 17.4222V13.5342H11.6152V19.3182C10.9672 19.4862 10.4872 20.0622 10.4872 20.7582C10.4872 21.5742 11.1592 22.2462 11.9752 22.2462C12.7912 22.2462 13.4632 21.5742 13.4632 20.7582C13.4632 20.0622 12.9832 19.4862 12.3352 19.3182V13.5342H14.4472V17.4222C14.4472 17.5182 14.4952 17.6142 14.5432 17.6862L16.0072 19.1502C15.8632 19.3662 15.7912 19.6302 15.7912 19.9182C15.7912 20.7342 16.4632 21.4062 17.2792 21.4062C18.0952 21.4062 18.7672 20.7342 18.7672 19.9182C18.7672 19.1022 18.0952 18.4302 17.2792 18.4302C16.9912 18.4302 16.7512 18.5022 16.5112 18.6462L15.1432 17.2782V13.5342H17.2792V16.6062C17.2792 16.7982 17.4472 16.9662 17.6392 16.9662H19.4872C19.6552 17.6142 20.2312 18.0942 20.9272 18.0942C21.7432 18.0942 22.4152 17.4222 22.4152 16.6062C22.4152 15.7902 21.7432 15.1422 20.9272 15.1422ZM3.07122 17.3742C2.66322 17.3742 2.30322 17.0382 2.30322 16.6062C2.30322 16.1982 2.63922 15.8382 3.07122 15.8382C3.47922 15.8382 3.83922 16.1742 3.83922 16.6062C3.83922 17.0382 3.47922 17.3742 3.07122 17.3742ZM6.69522 20.6622C6.28722 20.6622 5.92722 20.3262 5.92722 19.8942C5.92722 19.4862 6.26322 19.1262 6.69522 19.1262C7.10322 19.1262 7.46322 19.4622 7.46322 19.8942C7.43922 20.3262 7.10322 20.6622 6.69522 20.6622ZM12.7672 20.7582C12.7672 21.1662 12.4312 21.5262 11.9992 21.5262C11.5912 21.5262 11.2312 21.1902 11.2312 20.7582C11.2312 20.3502 11.5672 19.9902 11.9992 19.9902C12.4072 19.9902 12.7672 20.3262 12.7672 20.7582ZM18.0712 19.8942C18.0712 20.3022 17.7352 20.6622 17.3032 20.6622C16.8952 20.6622 16.5352 20.3262 16.5352 19.8942C16.5352 19.4862 16.8712 19.1262 17.3032 19.1262C17.7352 19.1502 18.0712 19.4862 18.0712 19.8942ZM1.91922 10.1982C1.91922 8.83025 2.85522 7.75025 4.22322 7.58225C4.41522 7.55825 4.55922 7.39025 4.53522 7.19825C4.48722 6.57425 4.70322 5.99825 5.15922 5.56625C5.51922 5.23025 5.99922 5.03825 6.47922 5.03825C6.59922 5.03825 6.71922 5.03825 6.83922 5.06225C7.03122 5.08625 7.19922 4.99025 7.24722 4.79825C7.48722 3.91025 8.20722 3.14225 9.21522 2.71025C10.3432 2.23025 11.6392 2.25425 12.5992 2.75825C12.7432 2.83025 12.9112 2.80625 13.0312 2.68625C13.9912 1.72625 15.3832 1.41425 16.6792 1.89425C17.9512 2.37425 18.8152 3.50225 18.9112 4.87025C18.9112 5.01425 19.0312 5.15825 19.1752 5.18225C20.9752 5.68625 22.0792 7.12625 22.0792 8.97425C22.0792 11.0142 20.2792 12.8142 18.2152 12.8142H4.55922C3.11922 12.8142 1.91922 11.6142 1.91922 10.1982ZM20.9272 17.3742C20.5192 17.3742 20.1592 17.0382 20.1592 16.6062C20.1592 16.1982 20.4952 15.8382 20.9272 15.8382C21.3352 15.8382 21.6952 16.1742 21.6952 16.6062C21.6952 17.0382 21.3592 17.3742 20.9272 17.3742Z" fill="#FD474D"/>
</svg>
