<svg width="24" height="24" viewBox="0 0 24 24" fill="none" xmlns="http://www.w3.org/2000/svg">
<path d="M13.9722 15.9601C14.8542 16.4971 15.9387 16.8751 17.2497 16.8751C18.5217 16.8435 19.731 16.3161 20.6195 15.4053C21.5079 14.4945 22.0053 13.2725 22.0053 12.0001C22.0053 10.7277 21.5079 9.50573 20.6195 8.59493C19.731 7.68412 18.5217 7.15666 17.2497 7.1251C12.7662 7.1251 10.9557 11.5816 10.9557 11.5816C10.9557 11.5816 9.7662 14.6251 6.7497 14.6251C6.0535 14.6251 5.38582 14.3485 4.89354 13.8563C4.40126 13.364 4.1247 12.6963 4.1247 12.0001C4.1247 11.3039 4.40126 10.6362 4.89354 10.1439C5.38582 9.65166 6.0535 9.3751 6.7497 9.3751C7.5927 9.3751 8.2902 9.6166 8.8557 9.9601C8.98183 10.0418 9.12306 10.0974 9.27105 10.1237C9.41904 10.1499 9.57078 10.1462 9.71732 10.1128C9.86385 10.0794 10.0022 10.017 10.1242 9.92924C10.2462 9.84149 10.3494 9.73018 10.4277 9.60188C10.506 9.47358 10.5578 9.3309 10.58 9.18226C10.6022 9.03362 10.5944 8.88204 10.5571 8.73645C10.5198 8.59087 10.4536 8.45425 10.3626 8.33465C10.2716 8.21505 10.1576 8.11489 10.0272 8.0401C9.04143 7.43537 7.90616 7.11843 6.7497 7.1251C5.4777 7.15666 4.26842 7.68412 3.37994 8.59493C2.49145 9.50573 1.99414 10.7277 1.99414 12.0001C1.99414 13.2725 2.49145 14.4945 3.37994 15.4053C4.26842 16.3161 5.4777 16.8435 6.7497 16.8751C11.2332 16.8751 13.0437 12.4186 13.0437 12.4186C13.0437 12.4186 14.2332 9.3751 17.2497 9.3751C17.9459 9.3751 18.6136 9.65166 19.1059 10.1439C19.5981 10.6362 19.8747 11.3039 19.8747 12.0001C19.8747 12.6963 19.5981 13.364 19.1059 13.8563C18.6136 14.3485 17.9459 14.6251 17.2497 14.6251C16.5069 14.6299 15.7776 14.4273 15.1437 14.0401C15.0176 13.9584 14.8763 13.9028 14.7283 13.8765C14.5804 13.8503 14.4286 13.854 14.2821 13.8874C14.1355 13.9208 13.9972 13.9832 13.8752 14.071C13.7532 14.1587 13.65 14.27 13.5717 14.3983C13.4934 14.5266 13.4416 14.6693 13.4194 14.8179C13.3972 14.9666 13.405 15.1182 13.4423 15.2638C13.4796 15.4093 13.5458 15.546 13.6368 15.6656C13.7278 15.7852 13.8418 15.8853 13.9722 15.9601Z" fill="#FD474D"/>
</svg>
