<svg width="24" height="24" viewBox="0 0 24 24" fill="none" xmlns="http://www.w3.org/2000/svg">
<path d="M18.1796 12.6928C18.1796 10.2669 19.8463 9.02633 20.5927 8.46322C19.0286 6.11432 16.2196 6.23226 16.1336 6.23226C14.4288 6.23226 13.0014 7.25835 12.2223 7.25835C11.3041 7.25835 9.72339 6.28368 8.48584 6.28368C8.33711 6.28368 2.88477 6.45984 2.88477 12.9746C2.88477 16.659 5.83671 23.2805 8.71201 23.2968C10.1497 23.305 11.3754 22.3747 12.466 22.3747C14.1746 22.3747 14.691 23.3071 16.1287 23.3071C19.004 23.3071 21.1637 17.415 21.1637 17.3744C21.1637 17.129 18.1796 16.2732 18.1796 12.6928Z" stroke="#FD474D" stroke-width="1.3" stroke-miterlimit="10" stroke-linecap="round" stroke-linejoin="round"/>
<path d="M16.4932 0.703145C16.5817 3.8942 14.2996 6.108 12.0202 5.96916C11.6446 3.42264 14.2993 0.703145 16.4932 0.703145Z" stroke="#FD474D" stroke-width="1.3" stroke-miterlimit="10" stroke-linecap="round" stroke-linejoin="round"/>
</svg>
