<svg width="24" height="24" viewBox="0 0 24 24" fill="none" xmlns="http://www.w3.org/2000/svg">
<path d="M21.0869 13.1972C20.7208 12.7636 20.3079 12.3272 19.8551 11.8927C20.3036 11.4614 20.7124 11.0288 21.0757 10.5989C22.691 8.68645 23.2258 7.01816 22.5818 5.90207C21.9372 4.78551 20.2249 4.41426 17.7607 4.85629C17.1124 4.97254 16.4294 5.14129 15.723 5.35738C15.708 5.29645 15.693 5.23551 15.6776 5.17504C16.3788 4.8441 16.8654 4.1302 16.8654 3.30426C16.8654 2.16473 15.9386 1.23801 14.7991 1.23801C14.5418 1.23801 14.2957 1.28535 14.0688 1.3716C13.4186 0.473477 12.6729 0.000976562 11.8985 0.000976562C10.6094 0.000976562 9.43146 1.29801 8.58255 3.65348C8.40911 4.13395 8.25302 4.64863 8.1138 5.19098C7.60286 5.05035 7.10646 4.93598 6.6288 4.8502C4.16458 4.40816 2.45224 4.77895 1.80771 5.89551C1.16318 7.0116 1.69755 8.67988 3.31333 10.5933C3.67849 11.0255 4.09005 11.461 4.54099 11.8941C4.49036 11.9429 4.43974 11.9916 4.39005 12.0404C4.19342 11.9038 3.97453 11.8024 3.74318 11.7408C3.20974 11.5979 2.6524 11.6714 2.17521 11.9475C1.69708 12.2232 1.3549 12.6685 1.21193 13.2019C1.06896 13.7354 1.14255 14.2922 1.41865 14.7704C1.54708 14.993 1.71161 15.1819 1.90005 15.3357C1.44724 16.35 1.41068 17.2327 1.7974 17.9021C2.26474 18.7111 3.29224 19.1283 4.7613 19.1283C5.31911 19.1283 5.94021 19.0683 6.61849 18.9464C7.08443 18.863 7.56818 18.7519 8.06599 18.616C8.21693 19.23 8.38943 19.8099 8.58302 20.3471C9.43193 22.7025 10.6099 23.9996 11.899 23.9996C13.188 23.9996 14.3655 22.7025 15.2144 20.3471C15.4254 19.7616 15.6115 19.126 15.7713 18.45C15.9227 18.496 16.0727 18.5396 16.2222 18.5813C16.1585 19.3543 16.533 20.1324 17.2474 20.5454C17.5722 20.7329 17.9271 20.8224 18.2777 20.8224C18.9926 20.8224 19.6886 20.4516 20.0716 19.7893C20.1986 19.5694 20.2821 19.3332 20.3219 19.0899C21.4244 18.9755 22.2063 18.5658 22.5935 17.8955C23.2371 16.7789 22.7022 15.1107 21.0869 13.1972ZM17.8933 5.59363C19.9929 5.21676 21.4652 5.46566 21.933 6.27613C22.4004 7.0866 21.8796 8.48582 20.5033 10.1152C20.148 10.5361 19.7463 10.9599 19.3047 11.3827C18.4277 10.5985 17.4255 9.82598 16.3333 9.09332C16.2377 8.04191 16.0891 7.0341 15.8908 6.08957C16.586 5.87441 17.2572 5.70801 17.8933 5.59363ZM14.0974 15.2054C13.4766 15.5639 12.8439 15.9015 12.2004 16.2174C11.5527 15.9002 10.9161 15.561 10.2916 15.2002C9.5388 14.7657 8.81693 14.3086 8.13443 13.8371C8.09932 13.2252 8.08181 12.6124 8.08193 11.9996C8.08193 11.3021 8.10443 10.6149 8.14802 9.94316C8.82349 9.47723 9.53693 9.02629 10.2813 8.59691C10.9093 8.23385 11.5497 7.89255 12.2013 7.57363C13.3784 8.15116 14.519 8.80035 15.6166 9.51754C15.6804 10.3233 15.7132 11.1535 15.7132 11.9996C15.7132 12.7679 15.6865 13.5239 15.6335 14.2599C15.1305 14.5895 14.6183 14.9048 14.0974 15.2054ZM15.551 15.2035C15.4685 15.9957 15.3555 16.7583 15.2135 17.4807C14.5104 17.2379 13.7904 16.95 13.0629 16.6224C13.9125 16.1859 14.7427 15.7124 15.551 15.2035ZM11.3388 16.6233C10.4102 17.0424 9.49661 17.3944 8.62052 17.6714C8.4349 16.7686 8.29521 15.8007 8.20474 14.7891C8.76467 15.16 9.33588 15.5136 9.91755 15.8494C10.3849 16.119 10.8588 16.3771 11.3388 16.6233ZM7.35771 13.2807C6.74552 12.8269 6.17177 12.3624 5.64536 11.8941C6.17693 11.4216 6.75302 10.9557 7.36708 10.501C7.32478 11.427 7.32166 12.3544 7.35771 13.2807ZM8.22536 8.98691C8.32286 7.98379 8.46911 7.0252 8.6613 6.1341C9.52521 6.40832 10.4247 6.75566 11.3393 7.1677C10.8553 7.41571 10.3777 7.67579 9.90677 7.9477C9.33602 8.27718 8.7753 8.62374 8.22536 8.98691ZM13.0643 7.16816C13.7801 6.84613 14.4865 6.56394 15.1736 6.32488C15.3208 7.03832 15.4385 7.78973 15.5261 8.56973C14.7262 8.06719 13.9048 7.59957 13.0643 7.16816ZM16.4051 10.0505C17.2582 10.6472 18.0466 11.2664 18.7516 11.8927C18.0504 12.5166 17.2661 13.1339 16.4172 13.7288C16.4472 13.1607 16.4627 12.5832 16.4627 11.9991C16.4627 11.3396 16.443 10.6885 16.4051 10.0505ZM16.1158 3.30426C16.1158 4.03129 15.5252 4.62238 14.7991 4.62238C14.0721 4.62238 13.481 4.03129 13.481 3.30426C13.481 2.57816 14.0721 1.98754 14.7991 1.98754C15.5252 1.98754 16.1158 2.57816 16.1158 3.30426ZM9.28755 3.90754C10.0108 1.90082 10.9624 0.750039 11.8985 0.750039C12.5168 0.750039 13.046 1.24973 13.4257 1.76113C13.0001 2.13988 12.7315 2.69066 12.7315 3.30379C12.7315 4.44379 13.6591 5.37145 14.7991 5.37145C14.8507 5.37145 14.9018 5.3691 14.9524 5.36535C14.9716 5.43941 14.9899 5.51488 15.0082 5.58988C14.0974 5.90254 13.1543 6.28926 12.2018 6.7416C11.0515 6.19504 9.91568 5.7441 8.83286 5.40285C8.96739 4.87457 9.11927 4.37395 9.28755 3.90754ZM3.88568 10.1096C2.50943 8.47973 1.98865 7.08004 2.45646 6.27004C2.92427 5.45957 4.39708 5.21113 6.49615 5.58754C6.96021 5.67098 7.44349 5.78254 7.94083 5.91988C7.69708 7.03738 7.52364 8.25566 7.42568 9.53348C6.58099 10.1311 5.79771 10.7518 5.0913 11.3836C4.6474 10.9589 4.24333 10.5324 3.88568 10.1096ZM1.93568 13.3955C2.02661 13.0557 2.24458 12.7721 2.54974 12.5963C2.75271 12.4791 2.97771 12.4191 3.20599 12.4191C3.32036 12.4191 3.43568 12.4341 3.54911 12.4646C3.88896 12.5555 4.17349 12.7739 4.34974 13.0786C4.71302 13.7072 4.49693 14.5149 3.86786 14.8786C3.23833 15.2414 2.43068 15.0249 2.0674 14.3954C1.89115 14.0902 1.84427 13.7354 1.93568 13.3955ZM6.48583 18.2086C4.38677 18.5855 2.91396 18.3371 2.44615 17.5271C2.13771 16.9932 2.30599 16.2839 2.55911 15.698C2.77008 15.7677 2.99083 15.8033 3.21302 15.8035C3.56318 15.8035 3.91802 15.7144 4.2424 15.5274C5.22958 14.9569 5.56849 13.6899 4.99849 12.7036C4.97269 12.6594 4.94533 12.6161 4.91646 12.5738C4.97411 12.5171 5.03271 12.4604 5.09177 12.4041C5.79068 13.0294 6.56927 13.6477 7.40974 14.2439C7.4988 15.5283 7.66427 16.7555 7.89958 17.8847C7.41302 18.0179 6.94005 18.1271 6.48583 18.2086ZM14.5085 20.0925C13.7857 22.0988 12.8341 23.2496 11.898 23.2496C10.9619 23.2496 10.0104 22.0988 9.28708 20.0925C9.09865 19.5699 8.93083 19.0041 8.78458 18.4046C9.88193 18.061 11.0336 17.6044 12.2004 17.0494C13.1669 17.5083 14.1246 17.9011 15.0551 18.2185C14.899 18.8874 14.7166 19.516 14.5085 20.0925ZM19.4215 19.4138C19.0577 20.0433 18.2501 20.2594 17.6215 19.8961C16.9924 19.5329 16.7763 18.7252 17.1391 18.0957C17.5024 17.4671 18.3101 17.251 18.9391 17.6138C19.2438 17.79 19.4622 18.0741 19.5532 18.4144C19.6446 18.7538 19.5977 19.1091 19.4215 19.4138ZM21.9433 17.52C21.6344 18.0549 20.9374 18.2635 20.3046 18.3371C20.2966 18.2977 20.2877 18.2588 20.2769 18.2199C20.134 17.6864 19.7922 17.2407 19.3136 16.9641C18.3265 16.395 17.0599 16.7344 16.4899 17.7202V17.7207C16.4641 17.7657 16.4407 17.8116 16.4182 17.8575C16.2565 17.8125 16.0943 17.7647 15.9302 17.7146C16.121 16.763 16.2626 15.7439 16.3516 14.6822C17.4372 13.9524 18.4329 13.1836 19.3043 12.4027C19.7501 12.8288 20.1555 13.2563 20.5136 13.6805C21.8904 15.3108 22.4111 16.71 21.9433 17.52ZM14.629 10.3477C14.629 9.49223 13.4552 8.8477 11.8985 8.8477C10.3418 8.8477 9.16802 9.49269 9.16802 10.3477V13.6524C9.16802 14.5074 10.3418 15.1524 11.8985 15.1524C13.4543 15.1524 14.6276 14.5074 14.6276 13.6524V10.3786C14.628 10.3683 14.629 10.358 14.629 10.3477ZM13.878 11.9996C13.878 12.2986 13.0882 12.7505 11.898 12.7505C10.7069 12.7505 9.91708 12.2986 9.91708 11.9996V11.4C10.4069 11.6789 11.1026 11.8482 11.898 11.8482C12.693 11.8482 13.3877 11.6794 13.878 11.401V11.9996ZM11.8985 9.59676C13.0765 9.59676 13.8616 10.0388 13.879 10.3374C13.879 10.3407 13.8785 10.3439 13.8785 10.3477V10.3641C13.8508 10.6627 13.068 11.0986 11.8985 11.0986C10.7074 11.0986 9.91755 10.6468 9.91755 10.3477C9.91755 10.0486 10.7074 9.59676 11.8985 9.59676ZM11.8985 14.4029C10.7074 14.4029 9.91755 13.951 9.91755 13.6519V13.051C10.4074 13.3299 11.103 13.4991 11.8985 13.4991C12.694 13.4991 13.3886 13.3304 13.8785 13.0514V13.6519C13.878 13.9514 13.0886 14.4029 11.8985 14.4029Z" fill="#FD474D"/>
</svg>
