<svg width="24" height="24" viewBox="0 0 24 24" fill="none" xmlns="http://www.w3.org/2000/svg">
<g clip-path="url(#clip0_113_1075)">
<path d="M3.64648 7.39331H16.1015V8.43141H3.64648V7.39331Z" fill="#FD474D"/>
<path d="M2.08943 17.2536C0.943031 17.2536 0.0136719 16.3242 0.0136719 15.1776V9.46921C0.0136719 8.32262 0.943031 7.39331 2.08938 7.39331C3.23597 7.39331 4.16528 8.32262 4.16528 9.46921V15.1776C4.16528 16.3242 3.23597 17.2536 2.08938 17.2536L2.08943 17.2536ZM2.08943 8.43136C1.5162 8.43136 1.05153 8.89599 1.05153 9.46921V15.1776C1.05153 15.7508 1.5162 16.2157 2.08938 16.2157C2.6628 16.2157 3.12743 15.7508 3.12743 15.1776V9.46921C3.12743 8.89604 2.6628 8.43136 2.08943 8.43136ZM17.6582 17.2536C16.5118 17.2536 15.5824 16.3242 15.5824 15.1777V9.46921C15.5824 8.32262 16.5118 7.39331 17.6582 7.39331C18.8047 7.39331 19.7341 8.32262 19.7341 9.46921V15.1776C19.7341 16.3242 18.8047 17.2536 17.6582 17.2536L17.6582 17.2536ZM17.6582 8.43136C17.085 8.43136 16.6203 8.89599 16.6203 9.46921V15.1776C16.6203 15.7508 17.085 16.2157 17.6582 16.2157C18.2316 16.2157 18.6962 15.7508 18.6962 15.1776V9.46921C18.6962 8.89604 18.2316 8.43136 17.6582 8.43136Z" fill="#FD474D"/>
<path d="M12.4682 24.0001C11.3217 24.0001 10.3923 23.0706 10.3923 21.9242V19.3295H9.35446V21.9242C9.35446 23.0706 8.42515 24.0001 7.27856 24.0001C6.13221 24.0001 5.20271 23.0706 5.20271 21.9242V19.3295H4.68383C3.8239 19.3295 3.12695 18.6324 3.12695 17.7726V7.91231C3.12695 4.18641 6.14739 1.16577 9.87334 1.16577C13.5994 1.16577 16.6198 4.18641 16.6198 7.91231V17.7726C16.6198 18.6324 15.9227 19.3295 15.063 19.3295H14.5439V21.9242C14.5439 23.0706 13.6146 24.0001 12.4682 24.0001ZM8.31642 18.2914H11.4302V21.9242C11.4302 22.4973 11.895 22.962 12.4682 22.962C13.0414 22.962 13.5061 22.4974 13.5061 21.9242V18.2914H15.063C15.3496 18.2914 15.582 18.0592 15.582 17.7725V7.91231C15.582 4.75963 13.0263 2.20382 9.87329 2.20382C6.72062 2.20382 4.16481 4.75958 4.16481 7.91231V17.7726C4.16481 18.0592 4.39727 18.2914 4.68383 18.2914H6.24071V21.9242C6.24071 22.4974 6.70539 22.9621 7.27856 22.9621C7.85174 22.9621 8.31642 22.4974 8.31642 21.9242V18.2914Z" fill="#FD474D"/>
<path d="M7.79788 4.79854H6.75988V5.83639H7.79788V4.79854ZM12.9874 4.79854H11.9495V5.83639H12.9874V4.79854ZM5.03516 0.594046L5.89645 0.0152282L7.33398 2.15448L6.4725 2.73334L5.03516 0.594046ZM12.4022 2.1375L13.8387 0L14.7005 0.579256L13.2641 2.71675L12.4022 2.1375Z" fill="#FD474D"/>
</g>
<defs>
<clipPath id="clip0_113_1075">
<rect width="24" height="24" fill="white"/>
</clipPath>
</defs>
</svg>
