<svg width="24" height="24" viewBox="0 0 24 24" fill="none" xmlns="http://www.w3.org/2000/svg">
<g clip-path="url(#clip0_113_1208)">
<path d="M22.125 11.625H18.375V9.75C18.3747 9.45173 18.256 9.16578 18.0451 8.95487C17.8342 8.74397 17.5483 8.62534 17.25 8.625H14.25C13.9517 8.62534 13.6658 8.74397 13.4549 8.95487C13.244 9.16578 13.1253 9.45173 13.125 9.75V11.625H12.1553L9.53035 9H8.5605C8.47204 8.74979 8.29798 8.53892 8.06907 8.40464C7.84017 8.27036 7.57116 8.22133 7.3096 8.2662C7.04804 8.31108 6.81077 8.44698 6.63971 8.64988C6.46866 8.85278 6.37484 9.10962 6.37484 9.375C6.37484 9.64038 6.46866 9.89722 6.63971 10.1001C6.81077 10.303 7.04804 10.4389 7.3096 10.4838C7.57116 10.5287 7.84017 10.4796 8.06907 10.3454C8.29798 10.2111 8.47204 10.0002 8.5605 9.75H9.21971L11.0947 11.625H9.375C9.07674 11.6253 8.79078 11.744 8.57988 11.9549C8.36897 12.1658 8.25034 12.4517 8.25 12.75V17.0947L6.375 15.2197V13.4355C6.62521 13.347 6.83609 13.173 6.97036 12.9441C7.10464 12.7152 7.15368 12.4462 7.1088 12.1846C7.06392 11.923 6.92803 11.6858 6.72513 11.5147C6.52222 11.3437 6.26539 11.2498 6 11.2498C5.73462 11.2498 5.47778 11.3437 5.27488 11.5147C5.07198 11.6858 4.93608 11.923 4.8912 12.1846C4.84633 12.4462 4.89536 12.7152 5.02964 12.9441C5.16392 13.173 5.3748 13.347 5.625 13.4355V15.5303L8.25 18.1553V22.125C8.25034 22.4233 8.36897 22.7092 8.57988 22.9201C8.79078 23.131 9.07674 23.2497 9.375 23.25H22.125C22.4233 23.2497 22.7092 23.131 22.9201 22.9201C23.131 22.7092 23.2497 22.4233 23.25 22.125V12.75C23.2497 12.4517 23.131 12.1658 22.9201 11.9549C22.7092 11.744 22.4233 11.6253 22.125 11.625ZM7.5 9.75C7.42583 9.75 7.35333 9.72801 7.29166 9.6868C7.23 9.6456 7.18193 9.58703 7.15355 9.51851C7.12516 9.44998 7.11774 9.37458 7.13221 9.30184C7.14668 9.2291 7.18239 9.16228 7.23484 9.10983C7.28728 9.05739 7.3541 9.02168 7.42684 9.00721C7.49959 8.99274 7.57499 9.00016 7.64351 9.02855C7.71203 9.05693 7.7706 9.10499 7.8118 9.16666C7.85301 9.22833 7.875 9.30083 7.875 9.375C7.87488 9.47442 7.83533 9.56973 7.76503 9.64003C7.69473 9.71033 7.59942 9.74988 7.5 9.75ZM6 12.75C5.92583 12.75 5.85333 12.728 5.79166 12.6868C5.73 12.6456 5.68193 12.587 5.65355 12.5185C5.62516 12.45 5.61774 12.3746 5.63221 12.3018C5.64668 12.2291 5.68239 12.1623 5.73484 12.1098C5.78728 12.0574 5.8541 12.0217 5.92684 12.0072C5.99959 11.9927 6.07499 12.0002 6.14351 12.0285C6.21203 12.0569 6.2706 12.105 6.3118 12.1667C6.35301 12.2283 6.375 12.3008 6.375 12.375C6.37488 12.4744 6.33533 12.5697 6.26503 12.64C6.19473 12.7103 6.09942 12.7499 6 12.75ZM13.875 9.75C13.8751 9.65058 13.9147 9.55527 13.985 9.48497C14.0553 9.41467 14.1506 9.37512 14.25 9.375H17.25C17.3494 9.37512 17.4447 9.41467 17.515 9.48497C17.5853 9.55527 17.6249 9.65058 17.625 9.75V11.625H13.875V9.75ZM22.5 22.125C22.4999 22.2244 22.4603 22.3197 22.39 22.39C22.3197 22.4603 22.2244 22.4999 22.125 22.5H9.375C9.27558 22.4999 9.18027 22.4603 9.10997 22.39C9.03968 22.3197 9.00013 22.2244 9 22.125V15.375H14.25V16.875C14.2503 17.1733 14.369 17.4592 14.5799 17.6701C14.7908 17.881 15.0767 17.9997 15.375 18H16.125C16.4233 17.9997 16.7092 17.881 16.9201 17.6701C17.131 17.4592 17.2497 17.1733 17.25 16.875V15.375H22.5V22.125ZM15 16.875V15.375H16.5V16.875C16.4999 16.9744 16.4603 17.0697 16.39 17.14C16.3197 17.2103 16.2244 17.2499 16.125 17.25H15.375C15.2756 17.2499 15.1803 17.2103 15.11 17.14C15.0397 17.0697 15.0001 16.9744 15 16.875ZM22.5 14.625H9V12.75C9.00013 12.6506 9.03968 12.5553 9.10997 12.485C9.18027 12.4147 9.27558 12.3751 9.375 12.375H22.125C22.2244 12.3751 22.3197 12.4147 22.39 12.485C22.4603 12.5553 22.4999 12.6506 22.5 12.75V14.625ZM23.2031 2.625C22.7184 2.62445 22.2538 2.43167 21.9111 2.08895C21.5683 1.74623 21.3755 1.28156 21.375 0.796875V0.75H20.625V0.796875C20.6245 1.28156 20.4317 1.74623 20.089 2.08895C19.7462 2.43167 19.2816 2.62445 18.7969 2.625H18.75V3.375H18.7969C19.2816 3.37555 19.7462 3.56833 20.089 3.91105C20.4317 4.25377 20.6245 4.71844 20.625 5.20312V5.25H21.375V5.20312C21.3755 4.71844 21.5683 4.25377 21.9111 3.91105C22.2538 3.56833 22.7184 3.37555 23.2031 3.375H23.25V2.625H23.2031ZM21 3.86527C20.7846 3.51208 20.4879 3.21544 20.1347 3C20.4879 2.78456 20.7846 2.48792 21 2.13473C21.2154 2.48792 21.5121 2.78456 21.8653 3C21.5121 3.21544 21.2154 3.51208 21 3.86527Z" fill="#FD474D"/>
<path d="M6.37519 18H5.25019C4.95193 17.9997 4.66598 17.881 4.45507 17.6701C4.24416 17.4592 4.12553 17.1733 4.12519 16.875V13.5H2.00584C1.94095 13.5 1.87718 13.4832 1.82076 13.4512C1.76433 13.4191 1.71717 13.373 1.68391 13.3173C1.65064 13.2616 1.63239 13.1982 1.63095 13.1334C1.62951 13.0685 1.64493 13.0044 1.67569 12.9473L3.75019 9.09459V8.625C3.75019 4.69627 6.94646 1.5 10.8752 1.5H11.2971C11.5341 1.5 11.7685 1.5112 12.0002 1.53192V2.0947L8.96387 5.13103C8.75936 4.96297 8.50221 4.87228 8.23752 4.87487C7.97283 4.87746 7.7175 4.97315 7.51632 5.14518C7.31513 5.31721 7.18094 5.55457 7.13728 5.81565C7.09361 6.07673 7.14327 6.34484 7.27752 6.57297C7.41178 6.80109 7.62208 6.97467 7.87152 7.06324C8.12096 7.15181 8.39363 7.14974 8.64169 7.05737C8.88976 6.965 9.09738 6.78824 9.22814 6.55809C9.3589 6.32794 9.40446 6.0591 9.35682 5.79872L12.7502 2.4053V1.6358C13.6364 1.80296 14.4867 2.12301 15.2632 2.58164L14.3599 3.48492C14.1203 3.37049 13.848 3.34443 13.5911 3.41136C13.3342 3.47829 13.1092 3.63389 12.9559 3.85067C12.8026 4.06744 12.7309 4.33142 12.7534 4.59596C12.776 4.86049 12.8913 5.10854 13.079 5.29627C13.2668 5.48399 13.5148 5.5993 13.7794 5.62181C14.0439 5.64432 14.3079 5.57258 14.5247 5.41928C14.7414 5.26597 14.897 5.04097 14.9639 4.78405C15.0308 4.52713 15.0047 4.25482 14.8903 4.01527L15.903 3.00258C16.4892 3.43051 17.0136 3.93724 17.4614 4.50844L14.8449 7.125H12.6857C12.5972 6.87479 12.4232 6.66392 12.1943 6.52964C11.9654 6.39536 11.6964 6.34633 11.4348 6.3912C11.1732 6.43608 10.936 6.57198 10.7649 6.77488C10.5939 6.97778 10.5 7.23462 10.5 7.5C10.5 7.76538 10.5939 8.02222 10.7649 8.22512C10.936 8.42802 11.1732 8.56392 11.4348 8.6088C11.6964 8.65367 11.9654 8.60464 12.1943 8.47036C12.4232 8.33608 12.5972 8.12521 12.6857 7.875H15.1555L17.9011 5.12939C18.7022 6.38317 19.127 7.84031 19.1252 9.32812V9.35217C19.1251 9.83975 19.0796 10.3263 18.9892 10.8054L19.7261 10.9446C19.8252 10.4196 19.8751 9.88646 19.8752 9.35217V9.32812C19.8752 4.59811 16.027 0.75 11.2971 0.75H10.8752C6.53288 0.75 3.00019 4.28269 3.00019 8.625V8.90545L1.01532 12.5917C0.923041 12.763 0.876807 12.9554 0.881138 13.15C0.885469 13.3446 0.940216 13.5348 1.04003 13.7019C1.13984 13.869 1.2813 14.0073 1.45059 14.1034C1.61987 14.1995 1.81119 14.25 2.00584 14.25H3.37519V16.875C3.37577 17.3721 3.57349 17.8487 3.925 18.2002C4.27651 18.5517 4.75309 18.7494 5.25019 18.75H6.37519C6.47461 18.7501 6.56992 18.7897 6.64022 18.86C6.71052 18.9303 6.75007 19.0256 6.75019 19.125V23.25H7.50019V19.125C7.49986 18.8267 7.38123 18.5408 7.17032 18.3299C6.95941 18.119 6.67346 18.0003 6.37519 18ZM8.25019 6.375C8.17603 6.375 8.10352 6.35301 8.04186 6.3118C7.98019 6.2706 7.93212 6.21203 7.90374 6.14351C7.87536 6.07498 7.86793 5.99958 7.8824 5.92684C7.89687 5.8541 7.93258 5.78728 7.98503 5.73484C8.03747 5.68239 8.10429 5.64668 8.17704 5.63221C8.24978 5.61774 8.32518 5.62516 8.3937 5.65355C8.46222 5.68193 8.52079 5.72999 8.562 5.79166C8.6032 5.85333 8.62519 5.92583 8.62519 6C8.62507 6.09942 8.58552 6.19473 8.51522 6.26503C8.44492 6.33533 8.34961 6.37488 8.25019 6.375ZM13.8752 4.875C13.801 4.875 13.7285 4.85301 13.6669 4.8118C13.6052 4.7706 13.5571 4.71203 13.5287 4.64351C13.5004 4.57498 13.4929 4.49958 13.5074 4.42684C13.5219 4.3541 13.5576 4.28728 13.61 4.23484C13.6625 4.18239 13.7293 4.14667 13.802 4.13221C13.8748 4.11774 13.9502 4.12516 14.0187 4.15355C14.0872 4.18193 14.1458 4.22999 14.187 4.29166C14.2282 4.35333 14.2502 4.42583 14.2502 4.5C14.2501 4.59942 14.2105 4.69473 14.1402 4.76503C14.0699 4.83533 13.9746 4.87488 13.8752 4.875ZM11.6252 7.875C11.551 7.875 11.4785 7.85301 11.4169 7.8118C11.3552 7.7706 11.3071 7.71203 11.2787 7.64351C11.2504 7.57498 11.2429 7.49958 11.2574 7.42684C11.2719 7.3541 11.3076 7.28728 11.36 7.23483C11.4125 7.18239 11.4793 7.14668 11.552 7.13221C11.6248 7.11774 11.7002 7.12516 11.7687 7.15355C11.8372 7.18193 11.8958 7.22999 11.937 7.29166C11.9782 7.35333 12.0002 7.42583 12.0002 7.5C12.0001 7.59942 11.9605 7.69473 11.8902 7.76503C11.8199 7.83533 11.7246 7.87488 11.6252 7.875Z" fill="#FD474D"/>
</g>
<defs>
<clipPath id="clip0_113_1208">
<rect width="24" height="24" fill="white"/>
</clipPath>
</defs>
</svg>
