<svg width="24" height="24" viewBox="0 0 24 24" fill="none" xmlns="http://www.w3.org/2000/svg">
<g clip-path="url(#clip0_113_1223)">
<path d="M20.7576 5.5368C19.8634 4.13645 17.9407 3.55476 15.3499 3.88869C15.2584 3.89935 15.1614 3.91562 15.0699 3.92628C15.0322 3.84027 14.9946 3.75399 14.9514 3.66797C13.8366 1.30336 12.3123 0 10.6534 0C8.99452 0 7.4649 1.30341 6.35533 3.66797C6.31763 3.75399 6.27454 3.84027 6.23684 3.92628C6.13989 3.91034 6.04833 3.89935 5.95682 3.88864C3.36082 3.54932 1.44335 4.1365 0.549171 5.53686C-0.344797 6.93722 -0.0702187 8.92454 1.31937 11.1328C1.50641 11.4302 1.7059 11.7195 1.91732 12.0001C1.70188 12.2908 1.50265 12.5763 1.31942 12.867C-0.0702188 15.0753 -0.344797 17.0681 0.549171 18.4632C1.27628 19.605 2.68757 20.2029 4.58867 20.2029C5.04432 20.2004 5.49944 20.1699 5.95133 20.1112C6.04289 20.1005 6.13984 20.0843 6.2314 20.0736C6.26926 20.1598 6.30691 20.2459 6.35005 20.3321C7.46495 22.6965 8.98919 24.0001 10.6479 24.0001C12.3068 24.0001 13.8366 22.6965 14.9459 20.3321C14.9836 20.2459 15.0267 20.1598 15.0644 20.0736C15.1614 20.0898 15.2529 20.1005 15.3447 20.1112C15.7963 20.1724 16.2514 20.203 16.7072 20.203C18.6084 20.203 20.0195 19.605 20.7467 18.4632C21.6408 17.0629 21.366 15.0753 19.9766 12.867C19.7895 12.5698 19.59 12.2806 19.3787 12.0001C19.5941 11.709 19.7934 11.4238 19.9766 11.1328C21.3823 8.91932 21.6571 6.93167 20.7576 5.5368ZM7.3303 4.12578C8.24043 2.18682 9.45228 1.0772 10.6534 1.0772C11.8544 1.0772 13.0663 2.18682 13.9765 4.12578C13.9772 4.12984 13.9791 4.13359 13.982 4.1365C12.838 4.41168 11.7219 4.79206 10.6479 5.27278C9.57498 4.78964 8.4587 4.40918 7.31404 4.1365C7.32481 4.1365 7.32481 4.13101 7.33025 4.12573L7.3303 4.12578ZM15.5062 12.0001C15.5065 12.8618 15.4598 13.7231 15.3661 14.5798C14.6948 15.1216 13.9935 15.6251 13.2656 16.0879C12.4255 16.6274 11.5511 17.1114 10.6479 17.5369C9.74649 17.1081 8.87233 16.6242 8.03043 16.0879C7.30334 15.6238 6.60212 15.1204 5.92989 14.5798C5.74307 12.865 5.74307 11.1349 5.92989 9.42005C7.38162 8.25344 8.96513 7.26104 10.648 6.4632C11.5495 6.8918 12.4237 7.37563 13.2656 7.91192C13.9927 8.37603 14.6939 8.87948 15.3662 9.42C15.4598 10.2768 15.5065 11.1381 15.5063 12.0001H15.5062ZM16.5349 10.4326C17.0623 10.9239 17.5588 11.4474 18.0215 12.0001C17.5587 12.5526 17.0623 13.076 16.5349 13.5672C16.5672 13.0503 16.5834 12.5279 16.5834 12.0001C16.5834 11.4722 16.5673 10.9498 16.5349 10.4326ZM15.1452 16.1096C14.9752 17.0422 14.7284 17.9591 14.4073 18.851C13.5708 18.6621 12.7499 18.41 11.9515 18.0969C12.5996 17.7562 13.2338 17.3897 13.8526 16.9983C14.2944 16.7128 14.7253 16.4166 15.1452 16.1096ZM9.35528 18.0969C8.55829 18.414 7.73698 18.6662 6.89937 18.851C6.57835 17.9591 6.33157 17.0422 6.16154 16.1096C6.57626 16.4166 7.00714 16.7128 7.45418 16.9928C8.08434 17.3968 8.71989 17.763 9.35528 18.0969ZM4.77185 13.5672C4.24451 13.076 3.74803 12.5526 3.28526 12.0001C3.74797 11.4474 4.24445 10.9239 4.77185 10.4326C4.73948 10.9498 4.72326 11.4722 4.72326 12.0001C4.72326 12.5279 4.73942 13.0503 4.77185 13.5672ZM6.16154 7.89048C6.33153 6.95792 6.57833 6.04101 6.89942 5.14912C7.73598 5.33782 8.55696 5.5899 9.35528 5.90316C8.70718 6.24387 8.07298 6.61038 7.45418 7.0018C7.01487 7.28557 6.58381 7.58192 6.16154 7.89048ZM13.8474 7.0018C13.2225 6.60334 12.5869 6.2316 11.946 5.90316C12.743 5.58603 13.5644 5.33386 14.4021 5.14912C14.723 6.04107 14.9698 6.95797 15.14 7.89048C14.7253 7.58348 14.2944 7.28725 13.8474 7.0018ZM2.22976 10.5566C1.08777 8.74675 0.807753 7.12567 1.45407 6.11311C1.97118 5.30521 3.09152 4.86883 4.60488 4.86883C5.01007 4.87056 5.41488 4.8977 5.81673 4.94962H5.82745C5.39176 6.21648 5.08858 7.52509 4.92276 8.85447C4.09277 9.54694 3.32003 10.3053 2.61206 11.1221C2.47741 10.9391 2.3482 10.7506 2.22976 10.5566ZM5.81145 19.045C5.40958 19.0971 5.00484 19.1241 4.5996 19.1258C3.08603 19.1258 1.96574 18.6949 1.44879 17.8815C0.802474 16.8689 1.08255 15.2479 2.22427 13.4381C2.34276 13.2496 2.47213 13.0555 2.60678 12.867C3.31457 13.6839 4.08725 14.4423 4.91727 15.1347C5.08321 16.464 5.38646 17.7726 5.82217 19.0395C5.82217 19.045 5.81673 19.045 5.81145 19.045ZM13.9765 19.8743C13.0663 21.8133 11.8545 22.9229 10.6534 22.9229C9.45222 22.9229 8.24043 21.8133 7.33025 19.8743C7.32962 19.8703 7.32772 19.8665 7.32481 19.8636C8.46884 19.5884 9.58495 19.208 10.6588 18.7271C11.7317 19.2104 12.848 19.5909 13.9927 19.8636C13.982 19.8636 13.982 19.8688 13.9765 19.8743ZM19.077 13.4436C20.219 15.2531 20.499 16.8744 19.8527 17.887C19.2064 18.8994 17.6175 19.325 15.4953 19.045H15.4845C15.9203 17.7781 16.2236 16.4695 16.3894 15.1401C17.2195 14.4477 17.9922 13.6894 18.7 12.8725C18.8294 13.061 18.9586 13.2496 19.0771 13.4436H19.077ZM16.384 8.85996C16.2182 7.53057 15.915 6.22196 15.4793 4.95512H15.4901C17.6121 4.68032 19.2009 5.10054 19.8473 6.11311C20.4936 7.12567 20.2135 8.74675 19.0717 10.5566C18.9533 10.7451 18.8239 10.9391 18.6893 11.1276C17.9847 10.3094 17.2137 9.55096 16.384 8.85996Z" fill="#FD474D"/>
<path d="M10.6524 9.86724C9.47452 9.86724 8.51953 10.8222 8.51953 12.0001C8.51953 13.1781 9.47447 14.1328 10.6524 14.1328C11.8305 14.1328 12.7854 13.1781 12.7854 12.0001C12.7845 10.8224 11.83 9.8681 10.6524 9.86724ZM10.6524 13.0556C10.0695 13.0556 9.59673 12.5831 9.59673 12.0001C9.59673 11.4172 10.0695 10.9444 10.6524 10.9444C11.2354 10.9444 11.7082 11.4172 11.7082 12.0001C11.7071 12.5827 11.235 13.0548 10.6524 13.0556Z" fill="#FD474D"/>
</g>
<defs>
<clipPath id="clip0_113_1223">
<rect width="24" height="24" fill="white"/>
</clipPath>
</defs>
</svg>
