<svg width="24" height="24" viewBox="0 0 24 24" fill="none" xmlns="http://www.w3.org/2000/svg">
<path d="M8.32875 11.965L9.60984 6.37745C9.63218 6.28063 9.69199 6.19661 9.77617 6.14381C9.86034 6.091 9.96201 6.07371 10.0589 6.09573C10.2605 6.14214 10.3866 6.34276 10.3406 6.54479L9.05953 12.1323C9.04058 12.2149 8.99421 12.2886 8.92799 12.3415C8.86176 12.3943 8.77958 12.4232 8.69484 12.4234C8.66719 12.4234 8.63906 12.4201 8.61094 12.414C8.56292 12.4031 8.51753 12.3828 8.47736 12.3543C8.4372 12.3258 8.40304 12.2896 8.37683 12.2479C8.35063 12.2062 8.33289 12.1598 8.32464 12.1112C8.31639 12.0627 8.31779 12.013 8.32875 11.965ZM4.14516 9.58136L7.21313 11.2956C7.27078 11.3279 7.33359 11.3434 7.39547 11.3434C7.52672 11.3434 7.65422 11.274 7.72312 11.1512C7.82391 10.9707 7.75922 10.7425 7.57875 10.6412L5.09625 9.25417L7.57875 7.86714C7.75922 7.76636 7.82391 7.53808 7.72312 7.35714C7.62234 7.17667 7.39406 7.11198 7.21313 7.21276L4.14516 8.92698C4.08694 8.95948 4.03847 9.00695 4.00476 9.06448C3.97105 9.12201 3.95333 9.1875 3.95344 9.25417C3.95324 9.32086 3.97091 9.38639 4.00463 9.44394C4.03835 9.50148 4.08687 9.54893 4.14516 9.58136ZM10.9472 11.1512C10.9712 11.1942 11.0034 11.232 11.042 11.2626C11.0806 11.2931 11.1249 11.3157 11.1723 11.3291C11.2196 11.3425 11.2692 11.3465 11.3181 11.3407C11.367 11.335 11.4142 11.3196 11.4572 11.2956L14.5252 9.58136C14.6438 9.51526 14.7169 9.39011 14.7169 9.25417C14.7169 9.11823 14.6433 8.99308 14.5252 8.92698L11.4572 7.21276C11.3704 7.16438 11.2679 7.15242 11.1723 7.17948C11.0767 7.20655 10.9957 7.27044 10.9472 7.35714C10.8464 7.53761 10.9111 7.76589 11.0916 7.86714L13.5741 9.25417L11.0916 10.6412C10.9111 10.742 10.8464 10.9703 10.9472 11.1512ZM24 14.079V15.3934C24 15.5556 23.8955 15.6995 23.7413 15.7496L22.9237 16.0154C22.8183 16.396 22.6669 16.7612 22.4719 17.1043L22.8628 17.8712C22.9369 18.016 22.9088 18.1918 22.7934 18.3067L21.8653 19.2348C21.8094 19.2909 21.7371 19.3279 21.6589 19.3403C21.5806 19.3528 21.5004 19.3401 21.4298 19.3042L20.6634 18.9132C20.3202 19.1088 19.954 19.2607 19.5731 19.3656L19.5098 19.5587L19.3083 20.1817C19.2839 20.257 19.2362 20.3227 19.1721 20.3693C19.108 20.4159 19.0308 20.4409 18.9516 20.4409H17.6377C17.475 20.4409 17.3311 20.3364 17.2809 20.1817L17.0161 19.3656C16.635 19.2606 16.2694 19.1092 15.9258 18.9132L15.1594 19.3042C15.0888 19.3402 15.0086 19.353 14.9303 19.3405C14.8521 19.328 14.7798 19.291 14.7239 19.2348L13.7958 18.3067C13.7467 18.2576 13.7121 18.1959 13.696 18.1283C13.6799 18.0608 13.6828 17.9901 13.7044 17.9242H11.3845L12.0173 19.6914H13.2577C13.4648 19.6914 13.6322 19.8592 13.6322 20.0659C13.6322 20.2726 13.4644 20.4404 13.2577 20.4404H5.41219C5.205 20.4404 5.03766 20.2726 5.03766 20.0659C5.03766 19.8592 5.20547 19.6914 5.41219 19.6914H6.6525L7.28531 17.9242H1.54969C0.695156 17.9242 0 17.2295 0 16.375V5.10714C0 4.25354 0.695156 3.55933 1.54922 3.55933H17.1206C17.9752 3.55933 18.6698 4.25354 18.6698 5.10714V9.03104H18.9516C19.1142 9.03104 19.2581 9.13558 19.3083 9.29026L19.5731 10.1068C19.9542 10.2123 20.3194 10.3637 20.663 10.5587L21.4303 10.1687C21.5007 10.1329 21.5807 10.1202 21.6588 10.1326C21.7368 10.145 21.8089 10.1817 21.8648 10.2376L22.7934 11.1648C22.8496 11.2207 22.8865 11.293 22.899 11.3712C22.9114 11.4495 22.8988 11.5297 22.8628 11.6003L22.4719 12.3667C22.6683 12.7121 22.8197 13.0773 22.9242 13.4565L23.1173 13.5198L23.7403 13.7214C23.895 13.7725 24 13.9164 24 14.079ZM0.749531 5.10714V14.2009H12.5902V14.0785C12.5902 13.9159 12.6947 13.772 12.8494 13.7218L13.6659 13.457C13.7714 13.0759 13.9228 12.7107 14.1183 12.3671L13.7273 11.6003C13.6913 11.5297 13.6786 11.4495 13.691 11.3712C13.7035 11.293 13.7405 11.2207 13.7967 11.1648L14.7253 10.2376C14.7812 10.1817 14.8533 10.1449 14.9313 10.1325C15.0094 10.12 15.0893 10.1325 15.1598 10.1682L15.9272 10.5582C16.2708 10.3632 16.6359 10.2118 17.017 10.1064L17.0803 9.91276L17.2819 9.28979C17.3063 9.21442 17.354 9.14873 17.4181 9.10216C17.4822 9.05559 17.5594 9.03052 17.6386 9.03058H17.9217V5.10667C17.9217 4.66651 17.5627 4.30792 17.122 4.30792H1.54969C1.10859 4.30886 0.749531 4.66698 0.749531 5.10714ZM1.54969 17.1751H14.0822L14.1183 17.1043C13.9235 16.7613 13.7717 16.3956 13.6664 16.0154L12.8489 15.7496C12.7737 15.7252 12.7082 15.6775 12.6617 15.6135C12.6152 15.5495 12.5902 15.4725 12.5902 15.3934V14.9509H0.749531V16.3754C0.749531 16.816 1.10859 17.1751 1.54969 17.1751ZM10.5895 17.9242H8.08125L7.44844 19.6914H11.2223L10.5895 17.9242ZM23.2505 14.3514L22.4948 14.1053C22.4333 14.085 22.3781 14.0492 22.3345 14.0013C22.2909 13.9534 22.2604 13.8951 22.2459 13.832C22.1456 13.3909 21.9713 12.97 21.7266 12.5809C21.692 12.526 21.6724 12.4631 21.6695 12.3984C21.6666 12.3336 21.6806 12.2692 21.7102 12.2115L22.0711 11.5028L21.5273 10.96L20.8186 11.3204C20.7609 11.3498 20.6965 11.3638 20.6317 11.3609C20.567 11.358 20.5041 11.3384 20.4492 11.304C20.064 11.0618 19.6408 10.8862 19.1972 10.7846C19.1343 10.7701 19.0762 10.7396 19.0285 10.6961C18.9808 10.6526 18.9451 10.5975 18.9248 10.5362L18.6788 9.78058H17.91L17.6639 10.5362C17.6437 10.5975 17.6081 10.6527 17.5604 10.6962C17.5126 10.7397 17.4545 10.7702 17.3916 10.7846C16.9481 10.8865 16.5249 11.062 16.1395 11.304C16.0847 11.3385 16.0218 11.3582 15.957 11.3611C15.8923 11.364 15.8279 11.3499 15.7702 11.3204L15.0614 10.96L14.5177 11.5028L14.8786 12.2115C14.908 12.2693 14.922 12.3336 14.9191 12.3984C14.9162 12.4631 14.8966 12.526 14.8622 12.5809C14.6201 12.9662 14.4446 13.3894 14.3428 13.8329C14.3283 13.8958 14.2978 13.9539 14.2543 14.0016C14.2107 14.0493 14.1557 14.085 14.0944 14.1053L13.3387 14.3514V15.121L14.0934 15.3662C14.2186 15.407 14.3137 15.5101 14.3433 15.6385C14.4451 16.082 14.6207 16.5052 14.8627 16.8906C14.933 17.0021 14.9391 17.1423 14.8791 17.26L14.647 17.7151C14.6442 17.7207 14.6414 17.7268 14.6381 17.7325L14.5177 17.9692L15.0614 18.5129L15.7702 18.152C15.828 18.1225 15.8925 18.1086 15.9573 18.1115C16.0221 18.1145 16.0851 18.1343 16.14 18.1689C16.5258 18.4121 16.9462 18.587 17.3902 18.6878C17.5186 18.7168 17.6222 18.8115 17.6634 18.9367L17.9095 19.6923H18.6783L18.9244 18.9367C18.9446 18.8751 18.9804 18.8199 19.0283 18.7763C19.0761 18.7326 19.1345 18.7022 19.1977 18.6878C19.6409 18.5873 20.0637 18.4118 20.4478 18.1689C20.5027 18.1343 20.5657 18.1145 20.6305 18.1115C20.6953 18.1086 20.7598 18.1225 20.8177 18.152L21.5264 18.5129L22.0702 17.9692L21.7092 17.2604C21.6798 17.2027 21.6659 17.1383 21.6687 17.0736C21.6716 17.0088 21.6912 16.9459 21.7256 16.891C21.968 16.5048 22.1428 16.0839 22.245 15.639C22.2595 15.5759 22.2901 15.5175 22.3339 15.4698C22.3777 15.422 22.4332 15.3865 22.4948 15.3667L23.2495 15.1215V14.3514H23.2505ZM20.6114 14.7367C20.6114 16.0135 19.5727 17.0528 18.2953 17.0528C17.0175 17.0528 15.9778 16.014 15.9778 14.7367C15.9778 13.4589 17.0175 12.4192 18.2953 12.4192C19.5727 12.4192 20.6114 13.4589 20.6114 14.7367ZM19.8623 14.7367C19.8623 13.8723 19.1597 13.1687 18.2958 13.1687C17.4314 13.1687 16.7278 13.8723 16.7278 14.7367C16.7278 15.6006 17.4314 16.3032 18.2958 16.3032C19.1592 16.3032 19.8623 15.6006 19.8623 14.7367Z" fill="#FD474D"/>
</svg>
